<svg id="_2_Classes_Multi_Class" data-name="2 Classes Multi Class" xmlns="http://www.w3.org/2000/svg" xmlns:xlink="http://www.w3.org/1999/xlink" viewBox="0 0 18.5 18.5"><defs><style>.cls-1{fill:#fddd9d;}.cls-2,.cls-3{fill:none;stroke-miterlimit:10;stroke-width:1.5px;}.cls-2{stroke:url(#linear-gradient);}.cls-3{stroke:url(#linear-gradient-2);}</style><linearGradient id="linear-gradient" x1="5.1" y1="2.07" x2="13.41" y2="16.44" gradientUnits="userSpaceOnUse"><stop offset="0" stop-color="#806f65"/><stop offset="0.16" stop-color="#8a796f"/><stop offset="0.43" stop-color="#a59589"/><stop offset="0.79" stop-color="#d1c1b2"/><stop offset="1" stop-color="#efdfcf"/></linearGradient><linearGradient id="linear-gradient-2" x1="4.63" y1="1.24" x2="13.88" y2="17.27" gradientUnits="userSpaceOnUse"><stop offset="0" stop-color="#ddcbbc"/><stop offset="1" stop-color="#928178"/></linearGradient></defs><path id="Gold_2_Classes" data-name="Gold 2 Classes" class="cls-1" d="M153.9,43.3a3.6,3.6,0,0,1,.4-.9,5.5,5.5,0,0,1,1.2-1.4l1.3-1.2a5.5,5.5,0,0,1,3.3-.9,7.9,7.9,0,0,1,2.2.5,6.4,6.4,0,0,1,2.5,1.5,6.1,6.1,0,0,1,1.5,2.4v-.2a5.1,5.1,0,0,0-1.5-2.3,6.7,6.7,0,0,0-4.8-2.1,6.6,6.6,0,0,0-4.8,2,7.2,7.2,0,0,0-1.6,2.5Z" transform="translate(-150.9 -29.3)"/><path id="Gold_2_Classes-2" data-name="Gold 2 Classes" class="cls-1" d="M166.4,33.5a6.5,6.5,0,0,1-1.1,2.2l-.5.6a6.7,6.7,0,0,1-4.7,1.9,6.3,6.3,0,0,1-4.6-2,6.9,6.9,0,0,1-1.7-3l-.2.2a6.9,6.9,0,0,0,1.7,3,7.4,7.4,0,0,0,4.8,2,7.1,7.1,0,0,0,4.8-2.1,5.7,5.7,0,0,0,1.6-2.7Z" transform="translate(-150.9 -29.3)"/><circle class="cls-2" cx="9.3" cy="9.3" r="7.6"/><circle class="cls-3" cx="9.3" cy="9.3" r="8.5"/></svg>