<?xml version="1.0" encoding="iso-8859-1"?>
<!-- Generator: Adobe Illustrator 19.0.0, SVG Export Plug-In . SVG Version: 6.00 Build 0)  -->
<svg version="1.1" id="Capa_1" xmlns="http://www.w3.org/2000/svg" xmlns:xlink="http://www.w3.org/1999/xlink" x="0px" y="0px"
	 viewBox="0 0 405.13 405.13" style="enable-background:new 0 0 405.13 405.13;" xml:space="preserve">
<g>
	<g>
		<path d="M396.929,0.142c-0.993-0.19-2.012-0.19-3.005,0l0,0l-54.8,10.48c-1.581,0.311-3.03,1.092-4.16,2.24l-179.44,179.52
			l-10.08-10.08c-0.765-0.764-1.595-1.46-2.48-2.08c0.653-18.722-13.995-34.429-32.717-35.082s-34.429,13.995-35.082,32.717
			s13.995,34.429,32.717,35.082c0.76,0.026,1.521,0.027,2.282,0.003c0.619,0.886,1.315,1.716,2.08,2.48l19.52,19.52l-1.2,0.96
			l-81.2,81.36l-0.96,1.12l-6.48-6.48c-9.312-9.043-24.128-9.043-33.44,0c-9.043,9.312-9.043,24.128,0,33.44l50,49.6
			c7.63,10.839,22.601,13.44,33.44,5.811c10.839-7.63,13.44-22.601,5.811-33.44c-1.589-2.257-3.554-4.222-5.811-5.811l-6.56-6.56
			l1.12-0.96l80.96-81.04l0.96-1.2l19.52,19.52c0.763,0.765,1.593,1.462,2.48,2.08c-0.555,18.725,14.175,34.355,32.9,34.91
			c9.316,0.276,18.336-3.293,24.94-9.87c13.268-13.162,13.354-34.588,0.192-47.857c-6.669-6.723-15.85-10.344-25.312-9.983
			c-0.623-0.883-1.319-1.713-2.08-2.48l-10.08-10.08l179.6-179.6c1.148-1.13,1.929-2.579,2.24-4.16l10.48-54.72
			C404.114,5.163,401.269,0.972,396.929,0.142z M80.244,383.662c-3.057,2.797-7.743,2.797-10.8,0l-49.68-49.68
			c-3.913-2.052-5.422-6.887-3.37-10.8s6.887-5.422,10.8-3.37c1.44,0.755,2.616,1.931,3.37,3.37l16.96,16.96l16,16l16.96,16.96
			C83.07,376.182,82.967,380.703,80.244,383.662z M156.164,261.422l-81.68,81.28c-0.344,0.363-0.75,0.661-1.2,0.88l-13.44-13.84
			c0.227-0.445,0.524-0.85,0.88-1.2l81.28-81.28c0.346-0.361,0.752-0.658,1.2-0.88l13.84,13.84
			C156.825,260.672,156.527,261.078,156.164,261.422z M220.244,276.862l-0.08-0.08c9.662-2.145,19.233,3.949,21.378,13.61
			c1.318,5.938-0.466,12.14-4.738,16.47c-7.087,6.796-18.273,6.796-25.36,0c-4.35-4.354-6.136-10.65-4.72-16.64
			c0.832-4.079-1.603-8.115-5.6-9.28c-0.69-0.145-1.326-0.477-1.84-0.96l-30-30l-16-16l-29.68-29.84
			c-0.489-0.541-0.821-1.204-0.96-1.92c-0.965-3.594-4.281-6.047-8-5.92h-1.76c-5.988,1.354-12.254-0.424-16.64-4.72
			c-7.003-6.993-7.011-18.34-0.017-25.343c0.006-0.006,0.012-0.012,0.017-0.017c7.104-6.756,18.256-6.756,25.36,0
			c4.364,4.379,6.15,10.705,4.72,16.72c-1.214,4.248,1.245,8.676,5.493,9.891c0.141,0.04,0.284,0.077,0.427,0.109
			c0.718,0.131,1.384,0.464,1.92,0.96l75.68,75.68c0.482,0.545,0.813,1.207,0.96,1.92
			C212.072,275.477,216.181,277.811,220.244,276.862z M377.524,58.862l-177.2,177.2l-32.96-32.96l177.2-177.2l40.8-8L377.524,58.862
			z"/>
	</g>
</g>
<g>
</g>
<g>
</g>
<g>
</g>
<g>
</g>
<g>
</g>
<g>
</g>
<g>
</g>
<g>
</g>
<g>
</g>
<g>
</g>
<g>
</g>
<g>
</g>
<g>
</g>
<g>
</g>
<g>
</g>
</svg>
