<?xml version="1.0" encoding="iso-8859-1"?>
<!-- Generator: Adobe Illustrator 19.0.0, SVG Export Plug-In . SVG Version: 6.00 Build 0)  -->
<svg version="1.1" id="Layer_1" xmlns="http://www.w3.org/2000/svg" xmlns:xlink="http://www.w3.org/1999/xlink" x="0px" y="0px"
	 viewBox="0 0 512 512" style="enable-background:new 0 0 512 512;" xml:space="preserve">
<g>
	<g>
		<path d="M491.841,156.427c-19.471-45.946-51.936-85.013-92.786-112.637C358.217,16.166,308.893-0.007,256,0
			c-35.254-0.002-68.946,7.18-99.571,20.158C110.484,39.63,71.416,72.093,43.791,112.943C16.167,153.779-0.007,203.104,0,256
			c-0.002,35.255,7.181,68.948,20.159,99.573c19.471,45.946,51.937,85.013,92.786,112.637C153.783,495.834,203.107,512.007,256,512
			c35.253,0.002,68.946-7.18,99.571-20.158c45.945-19.471,85.013-51.935,112.638-92.785C495.834,358.22,512.007,308.894,512,256
			C512.002,220.744,504.819,187.052,491.841,156.427z M460.413,342.257c-16.851,39.781-45.045,73.724-80.476,97.676
			c-35.443,23.953-78.02,37.926-123.936,37.933c-30.619-0.002-59.729-6.218-86.255-17.454
			c-39.781-16.85-73.724-45.044-97.677-80.475C48.114,344.495,34.14,301.917,34.133,256c0.002-30.62,6.219-59.731,17.454-86.257
			c16.851-39.781,45.045-73.724,80.476-97.676C167.507,48.113,210.084,34.14,256,34.133c30.619,0.002,59.729,6.218,86.255,17.454
			c39.781,16.85,73.724,45.044,97.677,80.475c23.953,35.443,37.927,78.02,37.934,123.939
			C477.864,286.62,471.648,315.731,460.413,342.257z"/>
	</g>
</g>
<g>
	<g>
		<path d="M356.196,272.699c9.222,0,16.699-7.477,16.699-16.699s-7.477-16.699-16.699-16.699h-83.158l29.688-66.797h53.471
			c9.222,0,16.699-7.477,16.699-16.699c0-9.222-7.477-16.699-16.699-16.699H317.57l9.356-21.05
			c3.746-8.428-0.05-18.297-8.478-22.042c-8.428-3.746-18.297,0.05-22.042,8.478l-15.384,34.614h-58.421
			c-16.094-0.002-31.512,3.271-45.506,9.192c-20.999,8.886-38.814,23.685-51.415,42.334c-12.602,18.636-19.98,41.216-19.973,65.369
			c-0.002,16.094,3.271,31.512,9.193,45.506c8.885,20.999,23.685,38.814,42.333,51.415c7.233,4.891,15.065,8.983,23.348,12.174
			l-17.77,39.983c-3.746,8.428,0.05,18.297,8.478,22.042c8.428,3.746,18.297-0.05,22.042-8.478l20.478-46.076
			c2.905,0.216,5.837,0.328,8.793,0.328h133.594c9.222,0,16.699-7.477,16.699-16.699s-7.477-16.699-16.699-16.699H228.506
			l29.688-66.797L356.196,272.699z M194.166,334.527c-1.369-0.495-2.724-1.021-4.06-1.585
			c-14.963-6.325-27.745-16.934-36.751-30.269c-4.503-6.666-8.064-14.006-10.499-21.836c-0.826-2.656-1.512-5.373-2.072-8.136
			h80.861L194.166,334.527z M140.775,239.301c1.111-5.482,2.756-10.762,4.884-15.796c6.325-14.963,16.934-27.745,30.27-36.751
			c6.666-4.503,14.006-8.064,21.836-10.498c7.832-2.435,16.153-3.751,24.835-3.751h43.575l-29.688,66.797L140.775,239.301z"/>
	</g>
</g>
<g>
</g>
<g>
</g>
<g>
</g>
<g>
</g>
<g>
</g>
<g>
</g>
<g>
</g>
<g>
</g>
<g>
</g>
<g>
</g>
<g>
</g>
<g>
</g>
<g>
</g>
<g>
</g>
<g>
</g>
</svg>
