<?xml version="1.0" encoding="iso-8859-1"?>
<!-- Generator: Adobe Illustrator 17.1.0, SVG Export Plug-In . SVG Version: 6.00 Build 0)  -->
<!DOCTYPE svg PUBLIC "-//W3C//DTD SVG 1.1//EN" "http://www.w3.org/Graphics/SVG/1.1/DTD/svg11.dtd">
<svg version="1.1" id="Capa_1" xmlns="http://www.w3.org/2000/svg" xmlns:xlink="http://www.w3.org/1999/xlink" x="0px" y="0px"
	 viewBox="0 0 442 442" style="enable-background:new 0 0 442 442;" xml:space="preserve">
<g>
	<path d="M437.329,284.984l-11.858-7.467c-4.674-2.943-10.848-1.54-13.791,3.133c-2.617,4.156-1.797,9.5,1.704,12.702
		L254.537,393.377L28.617,251.116c3.501-3.202,4.321-8.545,1.704-12.702c-2.943-4.673-9.118-6.075-13.791-3.133l-11.858,7.467
		C1.764,244.579,0,247.774,0,251.21s1.764,6.631,4.671,8.462l244.537,153.984c1.628,1.025,3.479,1.538,5.329,1.538
		s3.7-0.513,5.329-1.538l177.463-111.748c2.907-1.831,4.671-5.026,4.671-8.462S440.236,286.815,437.329,284.984z"/>
	<path d="M437.329,233.656l-11.858-7.467c-4.674-2.943-10.848-1.541-13.791,3.133c-2.617,4.156-1.797,9.5,1.704,12.702
		L254.537,342.049L28.617,199.788c3.501-3.202,4.321-8.545,1.704-12.702c-2.943-4.673-9.118-6.076-13.791-3.133L4.671,191.42
		C1.764,193.25,0,196.446,0,199.882s1.764,6.631,4.671,8.462l244.537,153.984c1.628,1.025,3.479,1.538,5.329,1.538
		s3.7-0.513,5.329-1.538L437.329,250.58c2.907-1.831,4.671-5.026,4.671-8.462S440.236,235.487,437.329,233.656z"/>
	<path d="M4.671,157.016L249.208,311c1.628,1.025,3.479,1.538,5.329,1.538s3.7-0.513,5.329-1.538l177.463-111.748
		c2.907-1.831,4.671-5.026,4.671-8.462s-1.764-6.631-4.671-8.462L192.792,28.344c-3.257-2.051-7.4-2.051-10.657,0L4.671,140.092
		C1.764,141.922,0,145.118,0,148.554S1.764,155.185,4.671,157.016z M187.463,48.623l225.77,142.167l-158.696,99.931L28.767,148.554
		L187.463,48.623z"/>
	<path d="M253.213,172.22l34.832,21.934c1.655,1.042,3.498,1.54,5.319,1.54c3.321,0,6.571-1.654,8.471-4.673
		c2.943-4.673,1.54-10.848-3.133-13.791l-34.832-21.934c-4.672-2.943-10.848-1.541-13.791,3.133
		C247.137,163.103,248.54,169.277,253.213,172.22z"/>
	<path d="M190.232,132.561l34.831,21.933c1.655,1.042,3.498,1.54,5.319,1.54c3.321,0,6.571-1.654,8.471-4.673
		c2.943-4.673,1.54-10.848-3.133-13.791l-34.831-21.933c-4.673-2.944-10.848-1.541-13.791,3.133
		C184.156,123.444,185.559,129.618,190.232,132.561z"/>
	<path d="M251.768,206.783l-97.812-61.592c-4.674-2.943-10.848-1.54-13.791,3.133c-2.943,4.673-1.54,10.848,3.133,13.791
		l97.812,61.592c1.655,1.042,3.498,1.54,5.319,1.54c3.321,0,6.571-1.654,8.471-4.673C257.844,215.9,256.441,209.726,251.768,206.783
		z"/>
</g>
<g>
</g>
<g>
</g>
<g>
</g>
<g>
</g>
<g>
</g>
<g>
</g>
<g>
</g>
<g>
</g>
<g>
</g>
<g>
</g>
<g>
</g>
<g>
</g>
<g>
</g>
<g>
</g>
<g>
</g>
</svg>
