<?xml version="1.0" encoding="iso-8859-1"?>
<!-- Generator: Adobe Illustrator 19.0.0, SVG Export Plug-In . SVG Version: 6.00 Build 0)  -->
<svg version="1.1" id="Layer_1" xmlns="http://www.w3.org/2000/svg" xmlns:xlink="http://www.w3.org/1999/xlink" x="0px" y="0px"
	 viewBox="0 0 512 512" style="enable-background:new 0 0 512 512;" xml:space="preserve">
<g>
	<g>
		<path d="M491.841,156.427c-19.471-45.946-51.936-85.013-92.786-112.637C358.217,16.166,308.893-0.007,256,0
			c-35.254-0.002-68.946,7.18-99.571,20.158C110.484,39.63,71.416,72.093,43.791,112.943C16.167,153.779-0.007,203.104,0,256
			c-0.002,35.255,7.181,68.948,20.159,99.573c19.471,45.946,51.937,85.013,92.786,112.637C153.783,495.834,203.107,512.007,256,512
			c35.253,0.002,68.946-7.18,99.571-20.158c45.945-19.471,85.013-51.935,112.638-92.785C495.834,358.22,512.007,308.894,512,256
			C512.002,220.744,504.819,187.052,491.841,156.427z M460.413,342.257c-16.851,39.781-45.045,73.723-80.476,97.676
			c-35.443,23.953-78.02,37.926-123.936,37.933c-30.619-0.002-59.729-6.218-86.255-17.454
			c-39.781-16.851-73.724-45.044-97.677-80.475C48.114,344.495,34.14,301.917,34.133,256c0.002-30.62,6.219-59.731,17.454-86.257
			c16.851-39.781,45.045-73.723,80.476-97.676C167.506,48.113,210.084,34.14,256,34.133c30.619,0.002,59.729,6.218,86.255,17.454
			c39.781,16.85,73.724,45.044,97.677,80.475c23.953,35.443,37.927,78.02,37.934,123.939
			C477.864,286.62,471.648,315.731,460.413,342.257z"/>
	</g>
</g>
<g>
	<g>
		<path d="M389.594,239.301H122.406c-9.222,0-16.699,7.477-16.699,16.699s7.477,16.699,16.699,16.699h267.189
			c9.222,0,16.699-7.477,16.699-16.699S398.817,239.301,389.594,239.301z"/>
	</g>
</g>
<g>
	<g>
		<path d="M302.156,136.301c-3.815-9.012-10.145-16.628-18.132-22.026c-3.995-2.699-8.411-4.843-13.13-6.311
			c-4.718-1.468-9.74-2.255-14.891-2.255c-6.871-0.002-13.503,1.402-19.506,3.943c-9.012,3.815-16.628,10.145-22.026,18.132
			c-2.699,3.994-4.843,8.411-6.311,13.13c-1.468,4.718-2.256,9.74-2.256,14.891c-0.002,6.871,1.402,13.503,3.943,19.506
			c3.815,9.012,10.145,16.627,18.132,22.026c3.994,2.699,8.411,4.843,13.13,6.311c4.718,1.468,9.74,2.255,14.891,2.255
			c6.871,0.002,13.503-1.402,19.506-3.943c9.012-3.815,16.628-10.145,22.026-18.132c2.699-3.995,4.843-8.411,6.311-13.13
			c1.468-4.718,2.255-9.74,2.255-14.891C306.101,148.935,304.697,142.303,302.156,136.301z M271.393,162.299
			c-1.255,2.975-3.394,5.559-6.069,7.362c-1.336,0.903-2.798,1.61-4.353,2.094c-1.557,0.483-3.206,0.747-4.972,0.748
			c-2.351-0.002-4.507-0.468-6.495-1.306c-2.975-1.255-5.559-3.394-7.362-6.068c-0.902-1.336-1.61-2.798-2.094-4.353
			c-0.483-1.557-0.747-3.206-0.748-4.972c0.002-2.352,0.468-4.507,1.306-6.495c1.255-2.975,3.394-5.559,6.068-7.362
			c1.336-0.903,2.798-1.61,4.353-2.094c1.557-0.483,3.206-0.747,4.972-0.748c2.352,0.002,4.507,0.468,6.495,1.306
			c2.975,1.255,5.559,3.394,7.362,6.069c0.902,1.336,1.61,2.798,2.094,4.353c0.483,1.557,0.747,3.206,0.748,4.972
			C272.697,158.156,272.232,160.311,271.393,162.299z"/>
	</g>
</g>
<g>
	<g>
		<path d="M302.154,336.69c-3.815-9.012-10.145-16.627-18.132-22.026c-3.995-2.699-8.411-4.843-13.13-6.311
			c-4.718-1.468-9.74-2.256-14.891-2.256c-6.871-0.002-13.503,1.402-19.506,3.943c-9.012,3.815-16.628,10.145-22.026,18.132
			c-2.699,3.995-4.843,8.411-6.311,13.13c-1.468,4.718-2.256,9.74-2.256,14.891c-0.002,6.871,1.402,13.503,3.943,19.506
			c3.815,9.012,10.145,16.628,18.132,22.026c3.994,2.699,8.411,4.843,13.13,6.311c4.718,1.468,9.74,2.256,14.891,2.256
			c6.871,0.002,13.503-1.402,19.506-3.943c9.012-3.815,16.628-10.145,22.026-18.132c2.699-3.995,4.843-8.411,6.311-13.13
			c1.468-4.718,2.255-9.74,2.255-14.891C306.099,349.325,304.695,342.693,302.154,336.69z M271.393,362.691
			c-1.255,2.975-3.394,5.559-6.068,7.362c-1.336,0.903-2.798,1.61-4.353,2.094c-1.557,0.483-3.206,0.747-4.972,0.748
			c-2.351-0.002-4.507-0.468-6.495-1.306c-2.975-1.255-5.559-3.394-7.362-6.068c-0.902-1.336-1.61-2.798-2.094-4.353
			c-0.483-1.557-0.747-3.206-0.748-4.972c0.002-2.352,0.468-4.507,1.306-6.495c1.255-2.975,3.394-5.559,6.069-7.362
			c1.336-0.903,2.798-1.61,4.353-2.094c1.557-0.483,3.206-0.747,4.972-0.748c2.352,0.002,4.507,0.468,6.495,1.306
			c2.975,1.255,5.559,3.394,7.362,6.068c0.902,1.336,1.61,2.798,2.094,4.353c0.483,1.557,0.747,3.206,0.748,4.972
			C272.697,358.548,272.232,360.702,271.393,362.691z"/>
	</g>
</g>
<g>
</g>
<g>
</g>
<g>
</g>
<g>
</g>
<g>
</g>
<g>
</g>
<g>
</g>
<g>
</g>
<g>
</g>
<g>
</g>
<g>
</g>
<g>
</g>
<g>
</g>
<g>
</g>
<g>
</g>
</svg>
