<svg id="Capa_1" enable-background="new 0 0 512 512" height="512" viewBox="0 0 512 512" width="512" xmlns="http://www.w3.org/2000/svg"><g><path d="m131.572 210.38h41.125v30h-41.125z"/><path d="m216.018 210.38h41.125v30h-41.125z"/><path d="m167.573 323.483h53.569v30h-53.569z"/><path d="m367.927 275.088v-134.383c0-41.355-33.645-75-75-75h-68.569c-11.517 0-22.032 4.354-30 11.495-7.968-7.141-18.483-11.495-30-11.495h-68.427c-20.066 0-38.924 7.824-53.096 22.03-14.173 14.207-21.952 33.082-21.904 53.149l.321 134.113c-11.628 2.14-20.465 12.351-20.465 24.588v212.415h30v-107c0-19.299 15.701-35 35-35h9.658v142h30v-70.979c7.926-1.413 15.345-4.313 21.956-8.399v9.378h18.899c19.233 0 36.481-8.654 48.058-22.274 11.575 13.62 28.823 22.274 48.057 22.274h18.898v-9.378c6.611 4.086 14.03 6.986 21.956 8.399v70.979h30v-142h9.658c19.299 0 35 15.701 35 35v107h30v-212.414c0-12.073-8.603-22.175-20-24.498zm-84.658 10.6h-35.45l-20-22.205h-66.923l-20 22.205h-35.45v-99.025h177.823zm-21.956 93.254h-30v31.14c-12.783-4.571-21.955-16.805-21.955-31.14h-30c0 14.335-9.173 26.568-21.956 31.14v-31.14h-30c0 14.335-9.173 26.568-21.956 31.14v-94.394h48.804l20-22.205h40.216l20 22.205h48.804v94.394c-12.784-4.571-21.957-16.805-21.957-31.14zm61.614-38.942h-9.658v-183.337h-237.823v183.337h-9.658c-12.881 0-24.888 3.782-35 10.271v-46.091c4.966-.903 9.534-3.289 13.175-6.939 4.725-4.735 7.317-11.027 7.301-17.716l-.332-138.713c-.028-12.04 4.639-23.365 13.143-31.89 8.504-8.523 19.817-13.218 31.857-13.218h68.427c8.271 0 15 6.729 15 15h30c0-8.271 6.729-15 15-15h68.569c24.813 0 45 20.187 45 45v138.881c0 12.073 8.604 22.175 20 24.498v46.187c-10.112-6.488-22.12-10.27-35.001-10.27z"/><path d="m486.422 189.538-9.15-189.538h-27.791l-52.303 191.352 24.762 105.477 4.287 215.171h28.337l56.648-216.864zm-32.505 206.236-2.046-102.716-23.746-101.146 24.117-88.233 4.348 90.046 23.716 101.026z"/></g></svg>