<svg id="Capa_1" enable-background="new 0 0 511.725 511.725" height="512" viewBox="0 0 511.725 511.725" width="512" xmlns="http://www.w3.org/2000/svg"><g><path d="m38.022 350.391c-4.143 0-7.5 3.358-7.5 7.5v146.334c0 4.142 3.357 7.5 7.5 7.5s7.5-3.358 7.5-7.5v-146.334c0-4.142-3.358-7.5-7.5-7.5z"/><path d="m481.113 143.561c-.531-5.964-3.353-11.365-7.945-15.206l-37.699-31.535.239-.486c5.455-11.091.869-24.553-10.222-30.009l-52.97-26.055v-19.69c0-11.348-9.233-20.58-20.581-20.58h-221.2c-11.349 0-20.581 9.232-20.581 20.581v176.348l-64.798 64.798c-9.566 9.565-14.834 22.283-14.834 35.811v28.392c0 4.142 3.357 7.5 7.5 7.5s7.5-3.358 7.5-7.5v-28.392c0-9.521 3.708-18.472 10.44-25.204l54.191-54.191v64.371c0 5.769 3.444 10.923 8.773 13.131 1.77.732 3.621 1.089 5.455 1.089 3.69 0 7.31-1.444 10.036-4.17l16.237-16.238c2.929-2.929 2.929-7.678-.001-10.606-2.928-2.929-7.677-2.929-10.606 0l-14.895 14.896v-260.035c0-3.077 2.504-5.581 5.581-5.581h221.2c3.077 0 5.581 2.503 5.581 5.581v69.953c0 4.142 3.357 7.5 7.5 7.5s7.5-3.358 7.5-7.5v-33.547l46.35 22.798c3.67 1.805 5.188 6.259 3.383 9.929l-49.732 101.109v-68.327c0-4.142-3.357-7.5-7.5-7.5s-7.5 3.358-7.5 7.5v220.281c0 3.078-2.504 5.581-5.581 5.581h-154.056c-2.085-5.919-5.033-11.544-8.823-16.725l-6.765-9.25 46.752-46.752c13.633-13.634 13.633-35.818-.001-49.453-6.604-6.605-15.386-10.242-24.727-10.242s-18.122 3.638-24.727 10.242l-16.896 16.896c-2.929 2.929-2.929 7.677 0 10.606s7.677 2.929 10.607 0l16.896-16.896c3.771-3.771 8.785-5.849 14.119-5.849s10.349 2.077 14.12 5.849c7.786 7.786 7.786 20.454 0 28.24l-67.239 67.239c-2.929 2.929-2.929 7.678 0 10.606 1.465 1.464 3.385 2.197 5.304 2.197s3.839-.732 5.304-2.197l9.753-9.753 5.391 7.372c6.274 8.578 9.591 18.73 9.591 29.358v7.73c0 19.185-11.219 36.852-28.582 45.011-6.573 3.089-13.887 4.721-21.149 4.721h-20.433c-4.143 0-7.5 3.358-7.5 7.5s3.357 7.5 7.5 7.5h20.433c3.643 0 7.295-.323 10.899-.941v62.856c0 4.142 3.357 7.5 7.5 7.5s7.5-3.358 7.5-7.5v-67.35c.543-.237 1.093-.459 1.629-.71 22.6-10.62 37.203-33.616 37.203-58.587v-7.73c0-2.181-.12-4.344-.333-6.489h150.728c11.349 0 20.581-9.232 20.581-20.581v-59.161l103.463-123.684c3.845-4.592 5.668-10.406 5.137-16.37zm-16.64 6.747-91.957 109.93v-35.432l56.138-114.13 34.889 29.185c1.52 1.271 2.453 3.058 2.629 5.031s-.428 3.896-1.699 5.416z"/><path d="m241.334 133.77c-15.864-10.986-37.959-9.405-52.027 4.661-15.589 15.589-15.843 41.043-.646 56.946.114.131.234.259.358.384l7.643 7.643c2.93 2.929 7.678 2.929 10.607 0s2.929-7.678 0-10.606l-7.368-7.368c-.066-.074-.135-.146-.204-.218-9.794-10.033-9.696-26.261.218-36.174 9.915-9.917 26.146-10.012 36.18-.212 2.914 2.846 7.566 2.846 10.48 0 10.034-9.8 26.266-9.703 36.181.212 9.914 9.914 10.012 26.142.218 36.174-.069.071-.138.144-.204.217l-29.649 29.65c-2.929 2.929-2.929 7.678 0 10.606 1.465 1.464 3.385 2.197 5.304 2.197s3.839-.732 5.304-2.197l29.924-29.924c.124-.125.243-.252.357-.383 15.196-15.903 14.943-41.358-.646-56.948-14.069-14.065-36.163-15.647-52.03-4.66z"/><path d="m165.413 33.756c-13.899 0-25.207 11.308-25.207 25.207v23.416c0 4.142 3.357 7.5 7.5 7.5s7.5-3.358 7.5-7.5v-2.972h20.414v2.972c0 4.142 3.357 7.5 7.5 7.5s7.5-3.358 7.5-7.5v-23.416c0-13.9-11.307-25.207-25.207-25.207zm-10.207 30.65v-5.443c0-5.628 4.579-10.207 10.207-10.207s10.207 4.579 10.207 10.207v5.443z"/><path d="m331.205 334.515c4.143 0 7.5-3.358 7.5-7.5v-23.415c0-13.899-11.308-25.207-25.207-25.207s-25.207 11.307-25.207 25.207v23.416c0 4.142 3.357 7.5 7.5 7.5s7.5-3.358 7.5-7.5v-2.972h20.414v2.972c0 4.141 3.358 7.499 7.5 7.499zm-27.914-25.472v-5.443c0-5.628 4.579-10.207 10.207-10.207s10.207 4.579 10.207 10.207v5.443z"/></g></svg>