<svg id="Capa_1" enable-background="new 0 0 446.126 446.126" height="512" viewBox="0 0 446.126 446.126" width="512" xmlns="http://www.w3.org/2000/svg"><g><g id="solid_26_"><path d="m56 175.063c0-4.418 3.582-8 8-8h14.883c-.506-2.36-1.185-4.681-2.03-6.942l-18.397-49.058h-36.912l-18.4 49.057c-.844 2.262-1.522 4.582-2.028 6.943h14.884c4.418 0 8 3.582 8 8s-3.582 8-8 8h-16v112h80v-112h-16c-4.418 0-8-3.581-8-8zm8 96c0 4.418-3.582 8-8 8s-8-3.582-8-8v-8c0-4.418 3.582-8 8-8s8 3.582 8 8zm0-32c0 4.418-3.582 8-8 8s-8-3.582-8-8v-24c0-4.418 3.582-8 8-8s8 3.582 8 8z"/><path d="m49.495 55.063h-18.99l-1.667 8h22.324z"/><path d="m64 79.063h-2.97-.038-.045-44.947v16h48z"/><path d="m0 314.102c.008 7.155 5.806 12.953 12.961 12.961h54.078c7.155-.008 12.953-5.806 12.961-12.961v-3.039h-80z"/><path d="m132.18 373.244c-6.165-3.78-12.092-7.934-17.749-12.439-3.456-2.753-8.49-2.183-11.242 1.273s-2.183 8.49 1.273 11.242c6.17 4.913 12.635 9.443 19.359 13.565 3.789 2.272 8.703 1.043 10.975-2.746 2.242-3.737 1.079-8.582-2.616-10.895z"/><path d="m178.082 393.015c-7.824-2.11-15.492-4.761-22.949-7.933-4.067-1.726-8.764.172-10.489 4.24-1.723 4.061.166 8.75 4.223 10.482 8.14 3.462 16.511 6.356 25.051 8.66 4.266 1.15 8.657-1.376 9.807-5.642 1.149-4.266-1.377-8.657-5.643-9.807z"/><path d="m355.12 347.878c-2.958-1.254-6.379-.615-8.685 1.621-32.776 31.871-76.718 49.66-122.435 49.564-5.107 0-10.259-.221-15.313-.656-4.402-.379-8.278 2.882-8.658 7.284-.379 4.402 2.882 8.278 7.284 8.658 5.509.475 11.124.715 16.687.715 43.636.096 85.988-14.762 120-42.1v18.1c0 4.418 3.582 8 8 8s8-3.582 8-8v-35.818c0-3.213-1.922-6.115-4.88-7.368z"/><path d="m399.061 87.063h32v16h-32z"/><path d="m442.606 149.923-17.2-17.2c-1.502-1.501-2.345-3.537-2.345-5.66v-8h-16v8c0 2.121-.843 4.156-2.343 5.656l-17.2 17.2c-2.586 2.573-3.854 6.186-3.443 9.811l.815 7.33h60.346l.814-7.329c.41-3.623-.858-7.236-3.444-9.808z"/><path d="m442.477 271.169c-.193-2.7-.357-5.4-.509-8.106h-53.815c-.152 2.7-.316 5.407-.508 8.106l-3.075 43.04c-.422 5.948 3.584 11.304 9.409 12.58l-2.074-4.148c-1.976-3.952-.374-8.757 3.578-10.733s8.757-.374 10.733 3.577l4.423 8.845c1.221 2.442 4.191 3.432 6.633 2.211.957-.478 1.732-1.254 2.211-2.211l4.422-8.844c2.006-3.936 6.824-5.501 10.76-3.495 3.893 1.984 5.474 6.725 3.551 10.649l-2.074 4.149c5.825-1.275 9.832-6.632 9.409-12.58z"/><path d="m386.592 183.063c2.024 21.269 2.766 42.641 2.221 64h52.5c-.545-21.359.196-42.731 2.221-64z"/><path d="m280 223.063c0-4.915-.649-9.808-1.929-14.553l14.729-11.047c3.535-2.651 4.251-7.665 1.6-11.2s-7.665-4.251-11.2-1.6l-11.706 8.78c-16.38-26.209-50.905-34.176-77.114-17.796s-34.176 50.905-17.796 77.114 50.905 34.176 77.114 17.796c16.374-10.233 26.315-28.185 26.302-47.494zm-96 0c-.007-22.084 17.889-39.992 39.973-39.999 14.303-.005 27.52 7.631 34.66 20.024l-32.667 24.5-11.31-16.964c-2.431-3.689-7.393-4.709-11.082-2.277-3.689 2.431-4.709 7.393-2.277 11.082.016.024.031.047.047.071l16 24c2.451 3.676 7.418 4.67 11.094 2.219.123-.082.244-.167.362-.256l35.011-26.257c.122 1.27.189 2.555.189 3.857 0 22.091-17.909 40-40 40s-40-17.908-40-40z"/><path d="m381.01 135.063c-2.787.004-5.375-1.444-6.829-3.821-31.968-52.316-88.871-84.211-150.181-84.179-39.824-.153-78.496 13.35-109.569 38.258-3.456 2.753-8.489 2.183-11.242-1.273-1.265-1.588-1.879-3.598-1.717-5.622l2.553-32c.352-4.404 4.208-7.69 8.612-7.338s7.69 4.208 7.338 8.612l-1.173 14.7c31.213-20.581 67.811-31.482 105.198-31.337 66.877-.031 128.946 34.758 163.823 91.82 2.309 3.767 1.126 8.693-2.641 11.001-1.256.77-2.699 1.178-4.172 1.179z"/></g></g></svg>