<svg id="Capa_1" enable-background="new 0 0 512 512" height="512" viewBox="0 0 512 512" width="512" xmlns="http://www.w3.org/2000/svg"><g><path d="m471 404.096v-113.233c0-16.915-8.259-32.662-21.667-42.38v-36.483c8.284 0 15-6.716 15-15s-6.716-15-15-15h-80c-8.284 0-15 6.716-15 15s6.716 15 15 15v36.483c-13.407 9.718-21.667 25.464-21.667 42.38v111.137h-30v-111.137c0-16.915-8.259-32.662-21.667-42.38v-36.483c8.284 0 15-6.716 15-15s-6.716-15-15-15h-80c-8.284 0-15 6.716-15 15s6.716 15 15 15v36.483c-13.408 9.718-21.667 25.465-21.667 42.38v111.137h-29.999v-111.137c0-16.915-8.259-32.662-21.667-42.38v-36.483c8.284 0 15-6.716 15-15s-6.716-15-15-15h-25v-32h15c8.284 0 15-6.716 15-15v-45h25c8.284 0 15-6.716 15-15v-45h309.334c8.284 0 15-6.716 15-15s-6.716-15-15-15h-482c-8.284 0-15 6.716-15 15s6.716 15 15 15h2.667v45c0 8.284 6.716 15 15 15h25v45c0 8.284 6.716 15 15 15h15v32h-25c-8.284 0-15 6.716-15 15s6.716 15 15 15v36.483c-13.408 9.718-21.667 25.465-21.667 42.38v113.233c-23.057 6.548-40 27.777-40 52.904 0 30.327 24.673 55 55 55h400c30.327 0 55-24.673 55-55 0-25.127-16.943-46.356-40-52.904zm-423.333-374.096h110v30h-110zm70 60v30h-30v-30zm89.368 342c-3.849 7.507-6.035 16-6.035 25s2.187 17.493 6.035 25h-102.07c3.849-7.507 6.035-16 6.035-25s-2.187-17.493-6.035-25zm23.965 25c0-13.785 11.215-25 25-25s25 11.215 25 25-11.215 25-25 25-25-11.215-25-25zm73.965-25h102.07c-3.849 7.507-6.035 16-6.035 25s2.187 17.493 6.035 25h-102.07c3.849-7.507 6.035-16 6.035-25s-2.187-17.493-6.035-25zm72.702-141.137c0-8.666 5.084-16.612 12.952-20.244 5.313-2.451 8.715-7.769 8.715-13.619v-45h20v45c0 5.851 3.402 11.168 8.715 13.619 7.868 3.632 12.952 11.578 12.952 20.244v111.137h-63.333v-111.137zm-153.334 0c0-8.666 5.084-16.612 12.952-20.244 5.313-2.451 8.715-7.768 8.715-13.619v-45h20v45c0 5.851 3.402 11.168 8.715 13.619 7.868 3.632 12.952 11.578 12.952 20.244v111.137h-63.334zm-153.333 111.137v-60h63.334v60zm41.667-190v45c0 5.851 3.402 11.168 8.715 13.619 7.868 3.632 12.952 11.578 12.952 20.244v21.137h-63.334v-21.137c0-8.666 5.084-16.612 12.952-20.244 5.313-2.451 8.715-7.769 8.715-13.619v-45zm-81.667 245c0-13.785 11.215-25 25-25s25 11.215 25 25-11.215 25-25 25-25-11.215-25-25zm425 25c-13.785 0-25-11.215-25-25s11.215-25 25-25 25 11.215 25 25-11.215 25-25 25z"/></g></svg>