<svg id="Layer_1" enable-background="new 0 0 512.003 512.003" height="512" viewBox="0 0 512.003 512.003" width="512" xmlns="http://www.w3.org/2000/svg"><g><g><path d="m482.001 412.003h-10.001v-50c0-16.542-13.458-30-30-30h-10.002v-50c0-16.542-13.457-30-29.999-30h-8.104c7.73-35.053 5.278-72.41-7.232-108.664-10.279-29.791-23.641-48.357-24.204-49.134-2.356-3.241-6.421-4.767-10.323-3.868-3.906.895-6.9 4.034-7.609 7.978-2.635 14.662-9.28 25.589-16.042 33.301 5.19-51.128-11.718-82.768-28.221-100.982-20.978-23.157-45.647-30.008-46.686-30.289-3.87-1.044-7.991.324-10.468 3.479-2.477 3.152-2.83 7.479-.899 10.993 19.508 35.499 10.891 47.185-3.386 66.544-5.655 7.669-11.958 16.215-17.064 27.057-7.164-14.479-18.346-26.538-33.993-37.049-3.431-2.303-7.928-2.26-11.313.111s-4.963 6.582-3.97 10.594c8.627 34.838-7.786 54.208-26.79 76.636-19.736 23.292-41.905 49.465-27.359 93.293h-8.331c-16.542 0-30 13.458-30 30v50h-10.003c-16.542 0-29.999 13.458-29.999 30v50h-10.002c-16.542 0-30 13.458-30 30v60c0 5.522 4.478 10 10 10h492c5.522 0 10-4.478 10-10v-60c0-16.542-13.458-30-30-30zm-321.048-240.364c15.481-18.271 32.587-38.461 33.824-67.995 11.814 13.671 16.908 30.21 16.908 52.797 0 5.522 4.478 10 10 10s10-4.477 10-10c0-31.701 11.813-47.72 23.236-63.21 7.969-10.806 15.496-21.013 17.891-35.025 1.442-8.437.807-17.379-2.013-27.246 22.019 15.533 50.011 50.191 33.873 122.413-.837 3.748.546 7.645 3.559 10.025 3.012 2.383 7.122 2.826 10.576 1.147 1.233-.6 24.954-12.442 38.189-40.172 3.547 7.038 7.479 15.874 10.98 26.128 11.792 34.544 13.594 68.669 5.382 101.501h-55.465c5.669-59.871-26.043-97.047-40.436-110.611-3.063-2.885-7.602-3.547-11.361-1.65-3.757 1.895-5.926 5.938-5.427 10.117 2.25 18.799-2.523 36.87-14.187 53.712-4.397 6.35-9.017 11.354-12.603 14.821-5.485-7.795-7.548-18.308-7.891-22.534-.289-3.899-2.824-7.272-6.49-8.635-3.668-1.363-7.789-.463-10.554 2.303-18.745 18.746-26.865 38.777-25.196 62.478h-44.082c-15.273-37.184.905-56.311 21.287-80.364zm42.856 80.364c-1.148-12.561 1.185-23.347 7.465-33.664 3.152 7.672 8.16 15.898 16.087 21.786 3.506 2.604 8.295 2.632 11.83.07 1.627-1.179 33.445-24.719 40.604-65.066 11.171 16.862 21.706 42.533 17.988 76.874zm-143.806 110c0-5.514 4.485-10 9.999-10h140.996c5.522 0 10-4.478 10-10s-4.478-10-10-10h-110.994v-50c0-5.514 4.486-10 10-10h291.995c5.514 0 9.999 4.486 9.999 10v50h-111c-5.522 0-10 4.478-10 10s4.478 10 10 10h141.002c5.514 0 10 4.486 10 10v50h-391.997zm431.998 130h-472v-50c0-5.514 4.486-10 10-10h452c5.514 0 10 4.486 10 10z"/><path d="m256.001 332.003h-.007c-5.522 0-9.996 4.478-9.996 10s4.48 10 10.003 10c5.522 0 10-4.478 10-10s-4.477-10-10-10z"/></g></g></svg>