<svg height="512pt" viewBox="0 0 512 512.00036" width="512pt" xmlns="http://www.w3.org/2000/svg"><path d="m511 68.359375c-2.246094-6.449219-7.855469-10.945313-14.644531-11.730469l-36.746094-4.238281-4.242187-36.742187c-.78125-6.789063-5.273438-12.402344-11.726563-14.648438-6.449219-2.25-13.457031-.644531-18.289063 4.1875l-72.636718 72.636719c-3.832032 3.832031-5.675782 9.117187-5.054688 14.503906l5.253906 45.539063-16.179687 16.183593c-79.957031-69.058593-201.277344-65.652343-277.152344 10.222657-79.441406 79.441406-79.441406 208.703124 0 288.144531 79.441407 79.441406 208.703125 79.441406 288.144531 0 75.875-75.875 79.28125-197.195313 10.222657-277.148438l16.183593-16.183593 45.539063 5.253906c5.382813.621094 10.671875-1.21875 14.503906-5.054688l72.636719-72.636718c4.832031-4.832032 6.433594-11.839844 4.1875-18.289063zm-184.492188 362.84375c-67.742187 67.742187-177.96875 67.742187-245.710937 0-67.742187-67.746094-67.742187-177.96875 0-245.714844 64.171875-64.167969 166.460937-67.550781 234.652344-10.152343l-27.433594 27.433593c-53.011719-42.421875-130.8125-39.078125-179.914063 10.023438-52.6875 52.6875-52.6875 138.417969 0 191.105469s138.417969 52.6875 191.105469 0c49.101563-49.101563 52.445313-126.902344 10.023438-179.914063l27.433593-27.433594c57.398438 68.191407 54.015626 170.480469-10.15625 234.652344zm-130.777343-114.933594c5.859375 5.859375 15.359375 5.859375 21.21875 0l19.945312-19.949219c4.476563 12.464844 1.730469 26.960938-8.238281 36.929688-13.757812 13.761719-36.148438 13.761719-49.90625 0-13.761719-13.757812-13.761719-36.144531 0-49.90625 9.964844-9.96875 24.464844-12.714844 36.925781-8.238281l-19.945312 19.949219c-5.859375 5.855468-5.859375 15.355468 0 21.214843zm42.300781-63.519531c-25.167969-15.554688-58.691406-12.429688-80.5 9.378906-25.457031 25.457032-25.457031 66.882813 0 92.339844s66.882812 25.460938 92.339844 0c21.808594-21.808594 24.933594-55.332031 9.378906-80.5l28.59375-28.597656c30.816406 41.148437 27.535156 99.921875-9.855469 137.3125-40.988281 40.988281-107.683593 40.988281-148.671875 0-40.988281-40.988282-40.988281-107.683594 0-148.671875 37.386719-37.390625 96.164063-40.675781 137.308594-9.855469zm179.148438-118.902344-34.988282-4.039062-4.039062-34.988282 50.339844-50.339843 2.539062 21.980469c.882812 7.652343 6.84375 13.621093 14.507812 14.511718l21.980469 2.535156zm0 0"/></svg>