<svg id="Capa_1" enable-background="new 0 0 512 512" height="512" viewBox="0 0 512 512" width="512" xmlns="http://www.w3.org/2000/svg"><g><path d="m407.647 482-54.538-243.427c26.772-26.121 41.96-61.892 41.96-99.504 0-76.683-62.386-139.069-139.069-139.069s-139.069 62.386-139.069 139.069c0 37.612 15.187 73.383 41.959 99.504l-54.537 243.427h-36.04v30h375.375v-30zm-272.551 0 56.941-254.157-6.862-5.869c-24.305-20.786-38.245-51.003-38.245-82.905.001-60.141 48.929-109.069 109.07-109.069s109.069 48.928 109.069 109.069c0 31.902-13.939 62.12-38.245 82.905l-6.862 5.869 56.941 254.157z"/><path d="m256 60v30c27.057 0 49.069 22.012 49.069 49.069h30c0-43.599-35.47-79.069-79.069-79.069z"/></g></svg>