<svg height="512pt" viewBox="0 -110 512 512" width="512pt" xmlns="http://www.w3.org/2000/svg"><path d="m247.335938 62.089844c-11.992188 11.636718-25.582032 24.828125-32.476563 40.308594-2.066406 4.636718-1.644531 10.007812 1.125 14.269531 2.765625 4.261719 7.5 6.832031 12.578125 6.832031h52.132812c8.285157 0 15-6.71875 15-15 0-8.285156-6.714843-15-15-15h-22.441406c3.277344-3.382812 6.695313-6.703125 9.976563-9.882812 14.738281-14.304688 27.46875-26.660157 27.46875-42.125 0-22.878907-18.613281-41.492188-41.488281-41.492188-16.71875 0-31.714844 9.949219-38.207032 25.351562-3.21875 7.632813.359375 16.429688 7.992188 19.648438 7.636718 3.222656 16.433594-.359375 19.648437-7.992188 1.796875-4.257812 5.941407-7.007812 10.566407-7.007812 6.234374 0 11.328124 4.996094 11.484374 11.199219-1.152343 4.1875-11.492187 14.222656-18.359374 20.890625zm0 0"/><path d="m26.257812 57.996094 6.351563-6.355469v41.738281h-10.488281c-8.285156 0-15 6.714844-15 15s6.714844 15 15 15h50.96875c8.28125 0 15-6.714844 15-15s-6.71875-15-15-15h-10.480469v-77.976562c0-6.066406-3.65625-11.539063-9.261719-13.855469-5.605468-2.324219-12.058594-1.035156-16.347656 3.253906l-31.964844 31.992188c-5.855468 5.859375-5.851562 15.359375.011719 21.214843 5.859375 5.851563 15.355469 5.851563 21.210937-.011718zm0 0"/><path d="m466.519531 147.070312c-12.148437 0-23.570312 4.734376-32.160156 13.328126s-13.320313 20.019531-13.320313 32.167968c0 25.085938 20.402344 45.496094 45.480469 45.5 12.148438 0 23.570313-4.734375 32.160157-13.328125 8.589843-8.59375 13.320312-20.019531 13.320312-32.167969 0-25.089843-20.402344-45.5-45.480469-45.5zm10.945313 56.460938c-2.925782 2.921875-6.8125 4.535156-10.945313 4.535156-8.535156 0-15.480469-6.953125-15.480469-15.496094 0-4.140624 1.613282-8.035156 4.539063-10.960937 2.921875-2.925781 6.808594-4.535156 10.941406-4.535156 8.539063 0 15.480469 6.949219 15.480469 15.496093 0 4.140626-1.609375 8.03125-4.535156 10.960938zm0 0"/><path d="m254.851562 238.066406c12.148438 0 23.570313-4.734375 32.160157-13.328125 8.589843-8.59375 13.316406-20.015625 13.316406-32.167969 0-25.085937-20.402344-45.496093-45.476563-45.496093-.003906 0 0 0-.003906 0-12.148437 0-23.570312 4.730469-32.160156 13.328125-8.585938 8.589844-13.316406 20.015625-13.316406 32.167968 0 25.085938 20.402344 45.496094 45.480468 45.496094zm-10.945312-56.457031c2.921875-2.925781 6.8125-4.539063 10.945312-4.539063 8.535157 0 15.476563 6.953126 15.476563 15.5 0 4.140626-1.609375 8.03125-4.535156 10.957032-2.925781 2.925781-6.808594 4.539062-10.941407 4.539062-8.539062 0-15.480468-6.953125-15.480468-15.5 0-4.140625 1.609375-8.03125 4.535156-10.957031zm0 0"/><path d="m137.320312 193.898438c0-7.820313-6.335937-14.15625-14.148437-14.15625-7.816406 0-14.148437 6.335937-14.148437 14.15625 0 7.816406 6.332031 14.15625 14.148437 14.15625 7.8125 0 14.148437-6.339844 14.148437-14.15625zm0 0"/><path d="m191.820312 193.898438c0-7.820313-6.332031-14.15625-14.144531-14.15625-7.816406 0-14.148437 6.335937-14.148437 14.15625 0 7.816406 6.332031 14.15625 14.148437 14.15625 7.8125 0 14.144531-6.339844 14.144531-14.15625zm0 0"/><path d="m345.972656 193.898438c0-7.820313-6.332031-14.15625-14.148437-14.15625-7.8125 0-14.148438 6.335937-14.148438 14.15625 0 7.816406 6.335938 14.15625 14.148438 14.15625 7.816406 0 14.148437-6.339844 14.148437-14.15625zm0 0"/><path d="m400.476562 193.898438c0-7.820313-6.332031-14.15625-14.148437-14.15625-7.8125 0-14.148437 6.335937-14.148437 14.15625 0 7.816406 6.335937 14.15625 14.148437 14.15625 7.816406 0 14.148437-6.339844 14.148437-14.15625zm0 0"/><path d="m293.519531 261.601562h-74.589843c-8.285157 0-15 6.714844-15 15 0 8.285157 6.714843 15 15 15h74.589843c8.285157 0 15-6.714843 15-15 0-8.285156-6.714843-15-15-15zm0 0"/><path d="m77.269531 149.011719-41.566406 41.6875-10.09375-10.097657c-5.855469-5.863281-15.351563-5.863281-21.210937-.007812-5.863282 5.855469-5.863282 15.351562-.007813 21.210938l20.714844 20.726562c2.8125 2.816406 6.628906 4.398438 10.609375 4.398438h.007812c3.980469 0 7.800782-1.585938 10.613282-4.40625l52.175781-52.328126c5.851562-5.867187 5.835937-15.363281-.03125-21.210937-5.863281-5.851563-15.363281-5.835937-21.210938.027344zm0 0"/><path d="m466.082031 123.832031c22.613281 0 40.835938-18.039062 41.484375-41.070312.164063-5.882813-.660156-20.820313-11.878906-32.359375-1.839844-1.894532-4.195312-3.910156-7.144531-5.75l15.027343-20.242188c3.378907-4.550781 3.90625-10.621094 1.359376-15.683594-2.546876-5.0625-7.734376-8.257812-13.402344-8.257812h-44.972656c-8.285157 0-15 6.714844-15 15s6.714843 15 15 15h15.15625l-10.144532 13.660156c-3.378906 4.550782-3.90625 10.617188-1.355468 15.683594 2.546874 5.0625 7.730468 8.257812 13.398437 8.257812 4.917969 0 8.476563 1.09375 10.570313 3.246094 2.652343 2.730469 3.488281 7.417969 3.398437 10.605469-.1875 6.679687-5.238281 11.910156-11.496094 11.910156-4.621093 0-8.765625-2.75-10.5625-7.003906-3.214843-7.636719-12.015625-11.214844-19.648437-7.996094-7.632813 3.21875-11.210938 12.015625-7.992188 19.648438 6.492188 15.402343 21.488282 25.351562 38.203125 25.351562zm0 0"/></svg>