<?xml version="1.0"?>
<svg xmlns="http://www.w3.org/2000/svg" viewBox="0 0 64 64" width="512" height="512"><g id="work_time" data-name="work time"><path d="M36.535,4H45V2H36a1,1,0,0,0-.832.445l-2,3,1.664,1.11Z"/><path d="M27.465,60H19v2h9a1,1,0,0,0,.832-.445l2-3-1.664-1.11Z"/><path d="M43,24a18.779,18.779,0,0,0-9.857,2.78l-.519-.727a14.1,14.1,0,0,0,.581-1.407l3.96-.66A1,1,0,0,0,38,23V17a1,1,0,0,0-.835-.986l-3.96-.66a14.1,14.1,0,0,0-.581-1.407l2.332-3.265a1,1,0,0,0-.107-1.288L30.606,5.151a1,1,0,0,0-1.288-.107L26.053,7.376A14.1,14.1,0,0,0,24.646,6.8l-.66-3.96A1,1,0,0,0,23,2H17a1,1,0,0,0-.986.835l-.66,3.96a14.1,14.1,0,0,0-1.407.581L10.682,5.044a1,1,0,0,0-1.288.107L5.151,9.394a1,1,0,0,0-.107,1.288l2.343,3.28a13.254,13.254,0,0,0-.573,1.389l-3.979.663A1,1,0,0,0,2,17v6a1,1,0,0,0,.835.986l3.978.663a14.849,14.849,0,0,0,.563,1.4L5.044,29.318a1,1,0,0,0,.107,1.288l4.243,4.243a1,1,0,0,0,1.288.107l3.265-2.332a14.1,14.1,0,0,0,1.407.581l.66,3.96A1,1,0,0,0,17,38h6a1,1,0,0,0,.986-.835l.66-3.96a14.1,14.1,0,0,0,1.407-.581l.727.519A18.779,18.779,0,0,0,24,43,19,19,0,1,0,43,24ZM25.668,30.577a11.966,11.966,0,0,1-2.2.908,1,1,0,0,0-.7.793L22.153,36H17.847l-.62-3.722a1,1,0,0,0-.7-.793,11.966,11.966,0,0,1-2.2-.908,1,1,0,0,0-1.054.067l-3.07,2.192L7.164,29.792l2.192-3.07a1,1,0,0,0,.067-1.054A13.512,13.512,0,0,1,8.5,23.423a1,1,0,0,0-.777-.65L4,22.153V17.847l3.722-.62a1,1,0,0,0,.777-.65,16.4,16.4,0,0,1,.947-2.289,1,1,0,0,0-.09-1.01l-2.192-3.07,3.044-3.044,3.07,2.192a1,1,0,0,0,1.054.067,11.966,11.966,0,0,1,2.2-.908,1,1,0,0,0,.7-.793L17.847,4h4.306l.62,3.722a1,1,0,0,0,.7.793,11.966,11.966,0,0,1,2.2.908,1,1,0,0,0,1.054-.067l3.07-2.192,3.044,3.044-2.192,3.07a1,1,0,0,0-.067,1.054,11.966,11.966,0,0,1,.908,2.2,1,1,0,0,0,.793.7l3.722.62v4.306l-3.722.62a1,1,0,0,0-.793.7,11.966,11.966,0,0,1-.908,2.2,1,1,0,0,0,.067,1.054l2.192,3.07-3.044,3.044-3.07-2.192A1,1,0,0,0,25.668,30.577ZM44,59.949V57H42v2.949A16.994,16.994,0,0,1,26.051,44H29V42H26.037a16.748,16.748,0,0,1,2.372-7.693l.909.649a1,1,0,0,0,1.288-.107l4.243-4.243a1,1,0,0,0,.107-1.288l-.649-.909A16.748,16.748,0,0,1,42,26.037V29h2V26.051A16.994,16.994,0,0,1,59.949,42H57v2h2.949A16.994,16.994,0,0,1,44,59.949Z"/><path d="M44,31H42V43a1,1,0,0,0,1,1h8V42H44Z"/><path d="M25,17H21V11a1,1,0,0,0-1.91-.414l-5,11A1,1,0,0,0,15,23h4v6a1,1,0,0,0,.788.978A1.025,1.025,0,0,0,20,30a1,1,0,0,0,.91-.586l5-11A1,1,0,0,0,25,17Zm-4,7.383V22a1,1,0,0,0-1-1H16.553L19,15.617V18a1,1,0,0,0,1,1h3.447Z"/><rect x="19" y="6" width="2" height="2"/><rect x="9.808" y="9.808" width="2" height="2" transform="translate(-4.477 10.808) rotate(-45)"/><rect x="6" y="19" width="2" height="2"/><rect x="9.808" y="28.192" width="2" height="2" transform="translate(-17.477 16.192) rotate(-45)"/><rect x="19" y="32" width="2" height="2"/><rect x="28.192" y="28.192" width="2" height="2" transform="translate(-12.092 29.192) rotate(-45)"/><rect x="32" y="19" width="2" height="2"/><rect x="28.192" y="9.808" width="2" height="2" transform="translate(0.908 23.808) rotate(-45)"/><path d="M53,7a4,4,0,1,0,4,4A4,4,0,0,0,53,7Zm0,6a2,2,0,1,1,2-2A2,2,0,0,1,53,13Z"/><path d="M61.243,8.03l-.669-.167.355-.591a1,1,0,0,0-.151-1.222L57.95,3.222a1,1,0,0,0-1.222-.151l-.591.355-.167-.669A1,1,0,0,0,55,2H51a1,1,0,0,0-.97.757l-.167.669-.591-.355a1,1,0,0,0-1.222.151L45.222,6.05a1,1,0,0,0-.151,1.222l.355.591-.669.167A1,1,0,0,0,44,9v4a1,1,0,0,0,.757.97l.669.167-.355.591a1,1,0,0,0,.151,1.222l2.828,2.828a1,1,0,0,0,1.222.151l.591-.355.167.669A1,1,0,0,0,51,20h4a1,1,0,0,0,.97-.757l.167-.669.591.355a1,1,0,0,0,1.222-.151l2.828-2.828a1,1,0,0,0,.151-1.222l-.355-.591.669-.167A1,1,0,0,0,62,13V9A1,1,0,0,0,61.243,8.03ZM60,12.219l-1.221.3a1,1,0,0,0-.614,1.485l.647,1.079-1.724,1.724-1.079-.647a1,1,0,0,0-1.485.614L54.219,18H51.781l-.3-1.221a1,1,0,0,0-1.485-.614l-1.079.647-1.724-1.724.647-1.079a1,1,0,0,0-.614-1.485L46,12.219V9.781l1.221-.3a1,1,0,0,0,.614-1.485l-.647-1.079,1.724-1.724,1.079.647a1,1,0,0,0,1.485-.615l.3-1.22h2.438l.3,1.22a1,1,0,0,0,1.485.615l1.079-.647,1.724,1.724-.647,1.079a1,1,0,0,0,.614,1.485l1.221.3Z"/><path d="M11,49a4,4,0,1,0,4,4A4,4,0,0,0,11,49Zm0,6a2,2,0,1,1,2-2A2,2,0,0,1,11,55Z"/><path d="M18.929,56.728l-.355-.591.669-.167A1,1,0,0,0,20,55V51a1,1,0,0,0-.757-.97l-.669-.167.355-.591a1,1,0,0,0-.151-1.222L15.95,45.222a1,1,0,0,0-1.222-.151l-.591.355-.167-.669A1,1,0,0,0,13,44H9a1,1,0,0,0-.97.757l-.167.669-.591-.355a1,1,0,0,0-1.222.151L3.222,48.05a1,1,0,0,0-.151,1.222l.355.591-.669.167A1,1,0,0,0,2,51v4a1,1,0,0,0,.757.97l.669.167-.355.591a1,1,0,0,0,.151,1.222L6.05,60.778a1,1,0,0,0,1.222.151l.591-.355.167.669A1,1,0,0,0,9,62h4a1,1,0,0,0,.97-.757l.167-.669.591.355a1,1,0,0,0,1.222-.151l2.828-2.828A1,1,0,0,0,18.929,56.728ZM18,54.219l-1.221.3a1,1,0,0,0-.614,1.485l.647,1.079-1.724,1.724-1.079-.647a1,1,0,0,0-1.485.614L12.219,60H9.781l-.3-1.221a1,1,0,0,0-1.485-.614l-1.079.647L5.188,57.088l.647-1.079a1,1,0,0,0-.614-1.485L4,54.219V51.781l1.221-.3a1,1,0,0,0,.614-1.485l-.647-1.079,1.724-1.724,1.079.647a1,1,0,0,0,1.485-.615l.3-1.22h2.438l.3,1.22a1,1,0,0,0,1.485.615l1.079-.647,1.724,1.724-.647,1.079a1,1,0,0,0,.614,1.485l1.221.3Z"/></g></svg>
