<?xml version="1.0" encoding="iso-8859-1"?>
<!-- Generator: Adobe Illustrator 19.0.0, SVG Export Plug-In . SVG Version: 6.00 Build 0)  -->
<svg version="1.1" id="Capa_1" xmlns="http://www.w3.org/2000/svg" xmlns:xlink="http://www.w3.org/1999/xlink" x="0px" y="0px"
	 viewBox="0 0 512 512" style="enable-background:new 0 0 512 512;" xml:space="preserve">
<g>
	<g>
		<path d="M179.082,171.48h-33.414c-5.791,0-10.5,4.71-10.5,10.5v33.414c0,5.79,4.709,10.5,10.5,10.5h33.414
			c5.791,0,10.5-4.71,10.5-10.5V181.98C189.582,176.19,184.873,171.48,179.082,171.48z M174.582,210.894h-24.414V186.48h24.414
			V210.894z"/>
	</g>
</g>
<g>
	<g>
		<path d="M230.33,249.709L214,233.38c-1.98-1.98-4.617-3.071-7.424-3.071c-2.809,0-5.445,1.091-7.426,3.072l-26.125,26.126
			c-4.088,4.093-4.088,10.751,0.002,14.846l16.33,16.332c1.98,1.978,4.617,3.069,7.422,3.069c2.807,0,5.441-1.091,7.424-3.071
			l26.127-26.124c1.98-1.982,3.07-4.618,3.07-7.425S232.31,251.691,230.33,249.709z M196.779,276.894l-9.963-9.965l19.76-19.76
			l9.965,9.965L196.779,276.894z"/>
	</g>
</g>
<g>
	<g>
		<path d="M230.554,219.661c-1.4-1.4-3.33-2.2-5.309-2.2c-1.971,0-3.9,0.8-5.301,2.2c-1.391,1.399-2.199,3.33-2.199,5.3
			c0,1.979,0.809,3.91,2.199,5.309c1.4,1.391,3.33,2.191,5.301,2.191c1.979-0.001,3.909-0.801,5.309-2.191
			c1.391-1.399,2.201-3.33,2.201-5.309C232.755,222.991,231.944,221.061,230.554,219.661z"/>
	</g>
</g>
<g>
	<g>
		<path d="M152.666,256.26c-1.4-1.4-3.33-2.2-5.311-2.2c-1.971,0-3.9,0.799-5.301,2.2c-1.4,1.39-2.199,3.33-2.199,5.3
			c0,1.98,0.799,3.91,2.199,5.31c1.4,1.39,3.33,2.19,5.301,2.19c1.98,0,3.91-0.8,5.311-2.19c1.398-1.4,2.199-3.33,2.199-5.31
			C154.865,259.59,154.064,257.661,152.666,256.26z"/>
	</g>
</g>
<g>
	<g>
		<path d="M209.904,184c-1.389-1.4-3.318-2.2-5.299-2.2c-1.98,0-3.91,0.8-5.301,2.2c-1.4,1.39-2.199,3.33-2.199,5.3
			c0,1.97,0.799,3.91,2.199,5.31c1.391,1.39,3.321,2.19,5.301,2.19c1.971,0,3.91-0.8,5.299-2.19c1.4-1.399,2.201-3.34,2.201-5.31
			C212.105,187.33,211.304,185.4,209.904,184z"/>
	</g>
</g>
<g>
	<g>
		<path d="M290.601,473.413h-12.725v-78.41c0-4.142-3.358-7.5-7.5-7.5c-4.143,0-7.5,3.358-7.5,7.5V497H136.355V329.394h126.521
			v26.61c0,4.143,3.357,7.5,7.5,7.5c4.142,0,7.5-3.357,7.5-7.5v-29.11c0-6.893-5.608-12.5-12.5-12.5H133.855
			c-0.221,0-0.436,0.021-0.652,0.033c-0.115-0.229-0.223-0.462-0.354-0.687l-65.76-113.899c-2.223-3.853-6.377-6.246-10.838-6.246
			c-2.188,0-4.344,0.578-6.236,1.671l-11.766,6.793c-2.887,1.666-4.953,4.362-5.818,7.592c-0.865,3.229-0.424,6.597,1.242,9.483
			l65.758,113.899c2.225,3.853,6.379,6.246,10.84,6.246c2.186,0,4.342-0.578,6.236-1.671l4.848-2.798V499.5
			c0,6.893,5.607,12.5,12.5,12.5h156.746c6.892,0,12.5-5.607,12.5-12.5v-13.587C303.101,479.021,297.494,473.413,290.601,473.413z
			 M111.171,323.368L47.914,213.799l7.436-4.293l63.26,109.569L111.171,323.368z M288.101,497h-10.225v-8.587h10.225V497z"/>
	</g>
</g>
<g>
	<g>
		<path d="M380.691,67.17c-4.143,0-7.5,3.357-7.5,7.5v4.899c0,4.143,3.357,7.5,7.5,7.5s7.5-3.357,7.5-7.5V74.67
			C388.191,70.527,384.834,67.17,380.691,67.17z"/>
	</g>
</g>
<g>
	<g>
		<path d="M420.384,67.17c-4.143,0-7.5,3.357-7.5,7.5v4.899c0,4.143,3.357,7.5,7.5,7.5c4.142,0,7.5-3.357,7.5-7.5V74.67
			C427.884,70.527,424.527,67.17,420.384,67.17z"/>
	</g>
</g>
<g>
	<g>
		<path d="M413.919,97.652c-4.022-0.973-8.078,1.504-9.051,5.531c-0.482,2-2.264,3.396-4.33,3.396s-3.848-1.396-4.332-3.396
			c-0.973-4.026-5.025-6.508-9.051-5.528c-4.027,0.973-6.502,5.025-5.529,9.052c2.117,8.757,9.892,14.873,18.912,14.873
			c9.02,0,16.797-6.117,18.912-14.877C420.421,102.677,417.945,98.625,413.919,97.652z"/>
	</g>
</g>
<g>
	<g>
		<path d="M446.664,160.636c-4.143,0-7.5,3.357-7.5,7.5V189c0,4.143,3.357,7.5,7.5,7.5c4.142,0,7.5-3.357,7.5-7.5v-20.864
			C454.164,163.993,450.806,160.636,446.664,160.636z"/>
	</g>
</g>
<g>
	<g>
		<path d="M467.502,337.904c6.892,0,12.5-5.607,12.5-12.5V148.758c0-13.039-10.609-23.647-23.648-23.647h-6.752
			c3.611-5.997,5.697-13.015,5.697-20.515v-6.428c10.375-3.425,17.887-13.217,17.887-24.739c0-11.522-7.512-21.314-17.887-24.739
			v-8.824C455.298,17.884,437.441,0,415.494,0h-29.912c-21.947,0-39.803,17.884-39.803,39.865v8.966
			c-10.156,3.548-17.463,13.231-17.463,24.598s7.307,21.05,17.463,24.598v6.569c0,7.5,2.086,14.518,5.695,20.515h-42.389
			c-4.142,0-7.5,3.357-7.5,7.5c0,4.143,3.358,7.5,7.5,7.5h58.461c2.16,1.104,4.432,2.024,6.797,2.724
			c2.857,11.841,13.535,20.666,26.242,20.666c12.717,0,23.4-8.84,26.248-20.695c2.33-0.695,4.566-1.605,6.697-2.694h22.822
			c4.768,0,8.648,3.879,8.648,8.647v147.52h-10.838V226c0-4.143-3.358-7.5-7.5-7.5c-4.143,0-7.5,3.357-7.5,7.5v70.278h-85.117
			V161.285c0-4.143-3.357-7.5-7.5-7.5h-88.313V140.11h16.852c4.143,0,7.5-3.357,7.5-7.5s-3.357-7.5-7.5-7.5h-16.852v-10.488
			c0-5.711-4.646-10.357-10.357-10.357H232.64c-5.711,0-10.357,4.646-10.357,10.357v2.976h-15.355
			c-5.711,0-10.355,4.646-10.355,10.357v30.473c0,5.711,4.645,10.357,10.355,10.357h132.119v129.611
			c0,5.394,3.336,10.018,8.053,11.934v163.969h-12.613c-6.892,0-12.5,5.608-12.5,12.5V499.5c0,6.893,5.608,12.5,12.5,12.5h47.35
			c6.893,0,12.5-5.607,12.5-12.5l0.025-161.344h10.09V499.5c0,6.893,5.607,12.5,12.5,12.5h47.35c6.893,0,12.5-5.607,12.5-12.5
			v-12.701c0-6.892-5.607-12.5-12.5-12.5h-12.59V337.904H467.502z M455.298,65.998c1.789,1.961,2.887,4.566,2.887,7.431
			c0,2.864-1.098,5.47-2.887,7.431V65.998z M345.779,80.369c-1.535-1.898-2.463-4.311-2.463-6.94c0-2.63,0.928-5.042,2.463-6.94
			V80.369z M400.585,148.5c-3.56,0-6.754-1.565-8.949-4.037h17.898C407.339,146.935,404.146,148.5,400.585,148.5z M415.493,129.463
			h-29.912c-13.676,0-24.803-11.155-24.803-24.867V63.438H389.3c7.992,0,15.678-2.371,22.201-6.771
			c6.521,4.399,14.207,6.771,22.201,6.771h6.596v41.158h0C440.298,118.308,429.171,129.463,415.493,129.463z M440.299,48.438
			L440.299,48.438h-6.597c-6.363,0-12.416-2.414-17.043-6.799c-2.893-2.74-7.424-2.74-10.316,0
			c-4.627,4.385-10.68,6.799-17.043,6.799h-28.521v-8.573c0-13.711,11.127-24.865,24.803-24.865h29.912
			c13.678,0,24.805,11.154,24.805,24.865V48.438z M243.234,153.785h-31.662v-21.188h18.211c4.143,0,7.5-3.357,7.5-7.5v-5.833h5.951
			V153.785z M379.335,497h-42.35v-7.701h42.35V497z M411.951,323.156h-25.09c-4.142,0-7.5,3.357-7.5,7.5v143.642h-17.262v-163.02
			h74.227v14.126c0,1.045,0.143,2.055,0.385,3.025v145.869h-17.26V330.656C419.451,326.513,416.094,323.156,411.951,323.156z
			 M461.8,489.299V497h-42.35v-7.701H461.8z M451.326,322.904v-11.626h13.676v11.626H451.326z"/>
	</g>
</g>
<g>
</g>
<g>
</g>
<g>
</g>
<g>
</g>
<g>
</g>
<g>
</g>
<g>
</g>
<g>
</g>
<g>
</g>
<g>
</g>
<g>
</g>
<g>
</g>
<g>
</g>
<g>
</g>
<g>
</g>
</svg>
