<svg id="icons" enable-background="new 0 0 64 64" height="512" viewBox="0 0 64 64" width="512" xmlns="http://www.w3.org/2000/svg"><path d="m63 11.501h-36c-.553 0-1 .447-1 1v8.998h-8c-.045 0-.082.02-.125.025-.078.01-.155.018-.23.046-.068.026-.125.069-.187.109-.04.027-.085.039-.122.072l-7.375 6.555c-.092-.456-.477-.807-.961-.807h-2v-2c0-.553-.447-1-1-1h-5c-.553 0-1 .447-1 1s.447 1 1 1h4v24h-4c-.553 0-1 .447-1 1s.447 1 1 1h5c.553 0 1-.447 1-1v-2h2c.553 0 1-.447 1-1h16c.01 0 .018-.005.026-.005.121-.004.241-.025.355-.072.124-.051.235-.126.328-.22l4.686-4.703h8.623c1.35 0 2.143-.537 3.133-1.527.003-.003.003-.006.006-.009s.007-.004.01-.007l4.26-4.457h15.573c.553 0 1-.447 1-1v-23.998c0-.553-.447-1-1-1zm-35 2h34v4.523 17.475h-22.636l.344-.345c.001-.001.001-.002.002-.004.001-.001.003-.001.004-.002.829-.844 1.286-1.963 1.286-3.149 0-2.481-2.019-4.5-4.5-4.5-1.052 0-2.073.369-2.878 1.041-.001.001-.002.003-.004.005-.001.001-.003.001-.004.002l-5.614 4.786zm-21 15.998h1v18h-1zm3 1.448 8.38-7.448h7.62v12c0 .049.021.091.027.139.01.069.018.137.042.203.025.069.065.128.104.189.024.038.035.082.065.117.008.01.02.013.028.021.072.079.16.14.254.191.027.016.05.04.078.053.123.054.258.086.4.086.124 0 .247-.027.364-.073.048-.02.087-.051.131-.076.052-.03.106-.05.153-.09l7.254-6.185h.001c.452-.377 1.004-.576 1.597-.576 1.379 0 2.5 1.121 2.5 2.5 0 .659-.254 1.28-.714 1.749l-2.035 2.043c-.001.001-.001.001-.002.002l-5.974 5.997c-.002.001-.004.003-.005.005l-4.687 4.704h-15.581zm27.372 6.552h2.27l-2.933 3.067c-.811.809-1.109.933-1.709.933h-1.612zm4.357 3.067c-.812.809-1.109.933-1.71.933h-1.434l3.823-4h2.252z"/><path d="m59.207 14.817c-.391-.391-1.023-.391-1.414 0l-2.5 2.5c-.391.391-.391 1.023 0 1.414l2.5 2.5c.195.195.451.293.707.293s.512-.098.707-.293l2.5-2.5c.195-.195.293-.451.293-.707s-.098-.512-.293-.707zm-.707 4.293-1.086-1.086 1.086-1.086 1.086 1.086z"/><path d="m44.291 30.232c.195.195.451.293.707.293s.512-.098.707-.293l5-5c.391-.391.391-1.023 0-1.414l-5-5c-.391-.391-1.023-.391-1.414 0l-5 5c-.391.391-.391 1.023 0 1.414zm.707-9.293 3.586 3.586-3.586 3.586-3.586-3.586z"/></svg>