<svg id="Capa_1" enable-background="new 0 0 512 512" height="512" viewBox="0 0 512 512" width="512" xmlns="http://www.w3.org/2000/svg"><g id="XMLID_1373_"><g id="XMLID_1090_"><path id="XMLID_1116_" d="m244.835 308h-54.165v-123.333c0-5.523-4.477-10-10-10s-10 4.477-10 10v69h-24v-233.667h24v74.667c0 5.523 4.477 10 10 10s10-4.477 10-10v-84.667c0-5.523-4.477-10-10-10h-44c-5.523 0-10 4.477-10 10v298h-54.165c-19.759 0-35.835 16.076-35.835 35.835v26.356c0 44.896-12.178 88.68-35.217 126.618-1.875 3.088-1.939 6.946-.168 10.095 1.771 3.148 5.103 5.096 8.715 5.096h224c3.494 0 6.734-1.823 8.547-4.81 24.94-41.068 38.122-88.441 38.122-136.999v-26.356c.001-19.759-16.074-35.835-35.834-35.835zm-98.165-34.333h24v34.333h-24zm-74.165 54.333h172.33c8.731 0 15.835 7.103 15.835 15.835v16.29h-204v-16.29c0-8.732 7.103-15.835 15.835-15.835zm155.792 164h-51.892c8.543-16.496 15.367-34.014 20.344-52.283 1.452-5.329-1.691-10.825-7.02-12.277-5.332-1.454-10.825 1.692-12.277 7.02-5.543 20.349-13.556 39.676-23.833 57.54h-51.881c8.543-16.495 15.367-34.013 20.344-52.283 1.452-5.329-1.691-10.825-7.02-12.277-5.331-1.454-10.826 1.691-12.277 7.02-5.543 20.35-13.556 39.677-23.832 57.54h-51.864c17.881-34.446 27.93-72.623 29.394-111.809h203.984c-1.594 39.501-12.62 77.86-32.17 111.809z"/><path id="XMLID_1120_" d="m347.002 387.761c-9.806 0-19.025 3.818-25.958 10.753-3.905 3.905-3.905 10.237 0 14.142 3.906 3.905 10.238 3.905 14.143 0 3.156-3.156 7.353-4.894 11.815-4.894 4.464 0 8.66 1.738 11.816 4.895 3.156 3.156 4.895 7.353 4.895 11.816 0 4.464-1.738 8.66-4.895 11.816-3.905 3.905-3.905 10.237 0 14.142 1.953 1.953 4.512 2.929 7.071 2.929s5.118-.977 7.071-2.929c6.934-6.934 10.752-16.153 10.752-25.959s-3.818-19.025-10.752-25.958c-6.933-6.934-16.151-10.753-25.958-10.753z"/><path id="XMLID_1121_" d="m337.852 266c9.374 0 17 7.626 17 17 0 5.523 4.478 10 10 10s10-4.477 10-10c0-20.402-16.598-37-37-37s-37 16.598-37 37c0 5.523 4.478 10 10 10s10-4.477 10-10c0-9.374 7.625-17 17-17z"/><path id="XMLID_1122_" d="m472.286 385.035c4.692-8.582 7.19-18.247 7.19-28.235 0-32.526-26.462-58.988-58.988-58.988-15.291 0-29.789 5.827-40.822 16.408-3.986 3.823-4.119 10.153-.297 14.139 3.821 3.986 10.153 4.118 14.139.296 7.292-6.992 16.874-10.843 26.98-10.843 21.498 0 38.988 17.49 38.988 38.988 0 9.999-3.792 19.512-10.677 26.786-2.519 2.661-3.38 6.486-2.246 9.971 1.135 3.484 4.083 6.068 7.686 6.736 21.88 4.056 37.761 23.173 37.761 45.457 0 25.502-20.748 46.25-46.25 46.25-16.257 0-31.027-8.296-39.511-22.193-2.878-4.713-9.031-6.203-13.745-3.325-4.715 2.878-6.203 9.032-3.325 13.746 12.144 19.895 33.297 31.772 56.581 31.772 36.53 0 66.25-29.72 66.25-66.25 0-26.788-16.028-50.383-39.714-60.715z"/><path id="XMLID_1123_" d="m180.67 129.67c-2.63 0-5.21 1.06-7.07 2.93-1.86 1.86-2.93 4.43-2.93 7.07 0 2.63 1.07 5.21 2.93 7.07s4.44 2.93 7.07 2.93 5.21-1.07 7.07-2.93 2.93-4.44 2.93-7.07c0-2.64-1.07-5.21-2.93-7.07-1.86-1.87-4.44-2.93-7.07-2.93z"/></g></g></svg>