<?xml version="1.0" encoding="iso-8859-1"?>
<!-- Generator: Adobe Illustrator 19.0.0, SVG Export Plug-In . SVG Version: 6.00 Build 0)  -->
<svg version="1.1" id="Capa_1" xmlns="http://www.w3.org/2000/svg" xmlns:xlink="http://www.w3.org/1999/xlink" x="0px" y="0px"
	 viewBox="0 0 512 512" style="enable-background:new 0 0 512 512;" xml:space="preserve">
<g transform="translate(1 1)">
	<g>
		<g>
			<path d="M84.333,212.333h341.333C472.798,212.333,511,174.131,511,127s-38.202-85.333-85.333-85.333H84.333
				C37.202,41.667-1,79.869-1,127S37.202,212.333,84.333,212.333z M84.333,84.333h341.333c23.567,0,42.667,19.099,42.667,42.667
				s-19.099,42.667-42.667,42.667H84.333c-23.567,0-42.667-19.099-42.667-42.667S60.766,84.333,84.333,84.333z"/>
			<path d="M425.667,297.667H84.333C37.202,297.667-1,335.869-1,383s38.202,85.333,85.333,85.333h341.333
				C472.798,468.333,511,430.131,511,383S472.798,297.667,425.667,297.667z M425.667,425.667H84.333
				c-23.567,0-42.667-19.099-42.667-42.667s19.099-42.667,42.667-42.667h341.333c23.567,0,42.667,19.099,42.667,42.667
				S449.234,425.667,425.667,425.667z"/>
		</g>
	</g>
</g>
<g>
</g>
<g>
</g>
<g>
</g>
<g>
</g>
<g>
</g>
<g>
</g>
<g>
</g>
<g>
</g>
<g>
</g>
<g>
</g>
<g>
</g>
<g>
</g>
<g>
</g>
<g>
</g>
<g>
</g>
</svg>
