<svg id="Icons" height="512" viewBox="0 0 74 74" width="512" xmlns="http://www.w3.org/2000/svg"><path d="m60 71h-46a1 1 0 0 1 -1-1v-66a1 1 0 0 1 1-1h46a1 1 0 0 1 1 1v66a1 1 0 0 1 -1 1zm-45-2h44v-64h-44z"/><path d="m14 36h46v2h-46z"/><path d="m37 48a11 11 0 1 1 11-11 11.012 11.012 0 0 1 -11 11zm0-20a9 9 0 1 0 9 9 9.01 9.01 0 0 0 -9-9z"/><path d="m51 71h-28a1 1 0 0 1 -1-1v-8a1 1 0 0 1 1-1h28a1 1 0 0 1 1 1v8a1 1 0 0 1 -1 1zm-27-2h26v-6h-26z"/><path d="m45 62h-2a6 6 0 0 0 -12 0h-2a8 8 0 0 1 16 0z"/><path d="m51 13h-28a1 1 0 0 1 -1-1v-8a1 1 0 0 1 1-1h28a1 1 0 0 1 1 1v8a1 1 0 0 1 -1 1zm-27-2h26v-6h-26z"/><path d="m37 20a8.009 8.009 0 0 1 -8-8h2a6 6 0 0 0 12 0h2a8.009 8.009 0 0 1 -8 8z"/></svg>