<svg id="Capa_1" enable-background="new 0 0 512 512" height="512" viewBox="0 0 512 512" width="512" xmlns="http://www.w3.org/2000/svg"><g id="XMLID_2400_"><g id="XMLID_28_"><path id="XMLID_51_" d="m334 384.583h-156c-5.523 0-10 4.477-10 10s4.477 10 10 10h156c5.523 0 10-4.477 10-10s-4.477-10-10-10z"/><path id="XMLID_52_" d="m334 333.167h-156c-5.523 0-10 4.477-10 10s4.477 10 10 10h156c5.523 0 10-4.477 10-10s-4.477-10-10-10z"/><path id="XMLID_53_" d="m334 281.75h-156c-5.523 0-10 4.477-10 10s4.477 10 10 10h156c5.523 0 10-4.477 10-10s-4.477-10-10-10z"/><path id="XMLID_54_" d="m334 230.333h-156c-5.523 0-10 4.477-10 10s4.477 10 10 10h156c5.523 0 10-4.477 10-10s-4.477-10-10-10z"/><path id="XMLID_55_" d="m334 178.917h-156c-5.523 0-10 4.477-10 10s4.477 10 10 10h156c5.523 0 10-4.477 10-10s-4.477-10-10-10z"/><path id="XMLID_56_" d="m334 127.5h-156c-5.523 0-10 4.477-10 10s4.477 10 10 10h156c5.523 0 10-4.477 10-10s-4.477-10-10-10z"/><path id="XMLID_57_" d="m296 436h-80c-5.523 0-10 4.477-10 10s4.477 10 10 10h80c5.523 0 10-4.477 10-10s-4.477-10-10-10z"/><path id="XMLID_892_" d="m438 279.352c-10.677 0-20.823 2.291-30 6.378v-199.647c0-5.523-4.477-10-10-10h-16v-38c0-5.523-4.477-10-10-10h-106v-18.083c0-5.523-4.477-10-10-10s-10 4.477-10 10v18.083h-106c-5.523 0-10 4.477-10 10v38h-16c-5.523 0-10 4.477-10 10v307.004c-4.776-1.168-9.727-1.784-14.766-1.784-20.937 0-40.377 10.538-51.869 27.808-8.897 1.857-17.14 6.286-23.615 12.761-8.867 8.866-13.75 20.655-13.75 33.193 0 12.539 4.883 24.327 13.749 33.194 8.815 8.815 20.541 13.695 33.054 13.741h351.197c5.523 0 10-4.477 10-10v-50.378c6.261 2.789 12.973 4.73 20 5.684v44.694c0 5.523 4.477 10 10 10s10-4.477 10-10v-44.694c36.089-4.899 64-35.895 64-73.306v-30.648c0-40.804-33.196-74-74-74zm-391.16 212.648c-7.162-.026-13.891-2.826-18.948-7.883-5.09-5.089-7.892-11.855-7.892-19.052 0-7.196 2.802-13.962 7.892-19.051 4.429-4.429 10.295-7.189 16.519-7.771 3.289-.308 6.214-2.22 7.815-5.109 7.462-13.466 21.643-21.831 37.009-21.831s29.547 8.365 37.009 21.831c1.601 2.889 4.526 4.801 7.815 5.109 6.223.583 12.09 3.342 16.519 7.771 10.505 10.504 10.505 27.597 0 38.102-5.039 5.039-11.743 7.839-18.815 7.883h-84.923zm341.16 0h-218.04c12.838-18.302 11.1-43.787-5.241-60.128-6.476-6.475-14.719-10.903-23.616-12.761-4.576-6.877-10.415-12.681-17.104-17.183v-305.845h87c5.523 0 10-4.477 10-10s-4.477-10-10-10h-61v-28h212v28h-61c-5.523 0-10 4.477-10 10s4.477 10 10 10h87v202.773c-14.741 13.536-24 32.953-24 54.496v30.648c0 21.543 9.259 40.96 24 54.496v53.504zm104-108c0 26.358-18.988 48.352-44 53.057v-26.331l21.071-21.071c3.905-3.905 3.905-10.237 0-14.143-3.905-3.904-10.237-3.904-14.143 0l-6.928 6.928v-29.44c0-5.523-4.477-10-10-10s-10 4.477-10 10v10.815l-6.929-6.929c-3.905-3.904-10.237-3.904-14.143 0-3.905 3.905-3.905 10.237 0 14.143l21.072 21.072v44.956c-25.012-4.705-44-26.698-44-53.057v-30.648c0-29.776 24.224-54 54-54s54 24.224 54 54z"/><path id="XMLID_1046_" d="m256 96.08c2.63 0 5.21-1.06 7.07-2.93 1.86-1.86 2.93-4.44 2.93-7.07s-1.07-5.21-2.93-7.07-4.44-2.93-7.07-2.93-5.21 1.07-7.07 2.93-2.93 4.44-2.93 7.07c0 2.64 1.07 5.21 2.93 7.07 1.86 1.87 4.44 2.93 7.07 2.93z"/></g></g></svg>