<svg id="Capa_1" enable-background="new 0 0 512 512" height="512" viewBox="0 0 512 512" width="512" xmlns="http://www.w3.org/2000/svg"><g><path d="m292.67 123.958v-19.662c0-32.005-26.037-58.042-58.041-58.042-23.486 0-43.743 14.03-52.871 34.141-8.668-5.725-19.04-9.07-30.183-9.07-22.399 0-41.697 13.486-50.234 32.759-7.894-4.871-17.182-7.688-27.118-7.688-28.563 0-51.8 23.237-51.8 51.801v16.812c0 11.422 3.723 21.986 10.01 30.559l-32.433 11.852v146.413h12.129v111.912h292.58v-127.09h14.186v-163.313l-39.529-14.447c8.306-10.042 13.304-22.916 13.304-36.937zm-86.083-19.662c0-15.462 12.58-28.042 28.042-28.042s28.041 12.58 28.041 28.042v19.662c0 15.462-12.579 28.042-28.041 28.042s-28.042-12.58-28.042-28.042zm-104.257 108.062 35.443-12.953h12.589v116.84h-48.032zm24.324-86.111c0-13.741 11.18-24.921 24.921-24.921s24.921 11.18 24.921 24.921v18.237c0 13.741-11.18 24.921-24.921 24.921s-24.921-11.18-24.921-24.921zm-74.232 21.95c0-12.021 9.78-21.801 21.801-21.801s21.8 9.779 21.8 21.801v16.812c0 12.021-9.78 21.801-21.8 21.801-12.021 0-21.8-9.78-21.8-21.801v-16.812zm-22.422 80.2 31.708-11.588h10.622v107.024h-42.33zm12.129 207.349v-81.912h43.358v81.912zm73.358 0v-89.501h49.061v89.501zm159.222 0h-80.161v-97.09h80.161zm14.186-127.09h-108.532v-112.337l39.178-14.319h30.175l39.179 14.318z"/><path d="m512 232.819v-186.565h-164.027v186.564h67.014v202.927h-52.014v30h134.027v-30h-52.014v-202.926zm-134.027-156.565h104.027v126.564h-104.027z"/></g></svg>