<svg height="682pt" viewBox="-21 -97 682.66669 682" width="682pt" xmlns="http://www.w3.org/2000/svg"><path d="m560.210938 324.160156h-19.085938c17.390625-14.652344 28.460938-36.574218 28.460938-61.042968 0-43.996094-35.796876-79.789063-79.796876-79.789063h-277.078124v18.75h277.078124c33.664063 0 61.046876 27.382813 61.046876 61.039063 0 33.660156-27.382813 61.042968-61.046876 61.042968h-288.246093c17.386719-14.648437 28.457031-36.574218 28.457031-61.042968 0-43.996094-35.796875-79.789063-79.789062-79.789063-44 0-79.796876 35.792969-79.796876 79.789063 0 26.546874 13.039063 50.113281 33.039063 64.625-51.195313-15.929688-103.453125 22.503906-103.453125 76.210937 0 43.992187 35.796875 79.789063 79.789062 79.789063 30.453126 0 56.972657-17.144532 70.421876-42.289063 13.441406 25.144531 39.964843 42.289063 70.414062 42.289063 43.992188 0 79.789062-35.796876 79.789062-79.789063 0-24.464844-11.0625-46.394531-28.457031-61.042969h288.253907c33.65625 0 61.039062 27.382813 61.039062 61.042969 0 33.65625-27.382812 61.039063-61.039062 61.039063h-277.085938v18.75h277.085938c43.992187 0 79.789062-35.796876 79.789062-79.789063 0-44-35.796875-79.792969-79.789062-79.792969zm-471.046876-61.042968c0-33.65625 27.382813-61.039063 61.046876-61.039063 33.65625 0 61.039062 27.382813 61.039062 61.039063s-27.382812 61.042968-61.039062 61.042968c-33.664063 0-61.046876-27.382812-61.046876-61.042968zm80.128907 79.792968c-7.761719 6.535156-14.261719 14.523438-19.082031 23.542969-5.742188-10.738281-13.867188-20.015625-23.664063-27.125 13.925781 4.335937 22.84375 3.582031 42.746094 3.582031zm-89.503907 122.082032c-33.65625 0-61.039062-27.382813-61.039062-61.039063 0-33.660156 27.382812-61.042969 61.039062-61.042969 33.664063 0 61.046876 27.382813 61.046876 61.042969 0 33.65625-27.382813 61.039063-61.046876 61.039063zm201.875-61.039063c0 33.65625-27.382812 61.039063-61.039062 61.039063s-61.039062-27.382813-61.039062-61.039063c0-33.660156 27.382812-61.042969 61.039062-61.042969s61.039062 27.382813 61.039062 61.042969zm0 0"/><path d="m159.375 139.386719h94.585938v28.316406h18.75v-28.316406h94.578124v28.316406h18.75v-28.316406h94.585938v28.316406h18.75v-47.066406h-56.664062v-62.695313h-56.671876v-62.691406h-132.078124v62.691406h-56.671876v62.695313h-56.664062v47.066406h18.75zm264.585938-62.695313v43.945313h-94.585938v-43.945313zm-151.25-62.691406h94.578124v43.941406h-94.578124zm-56.671876 62.691406h94.585938v43.945313h-94.585938zm0 0"/><path d="m175 148.230469h63.75v18.75h-63.75zm0 0"/><path d="m344.789062 85.539062h63.75v18.75h-63.75zm0 0"/><path d="m288.121094 30.347656h63.75v18.75h-63.75zm0 0"/><path d="m79.789062 452.492188c-7.765624 0-15.496093-1.890626-22.367187-5.464844l8.664063-16.628906c4.261718 2.21875 8.875 3.34375 13.703124 3.34375zm-34.730468-14.652344c-5.425782-5.5625-9.476563-12.410156-11.722656-19.800782l17.9375-5.449218c1.378906 4.53125 3.867187 8.734375 7.207031 12.152344zm83.277344-33.886719h-18.75c0-16.433594-13.367188-29.792969-29.796876-29.792969-16.03125-.003906-29.390624 13.035156-29.78125 29.050782l-18.742187-.457032c.640625-26.105468 22.40625-47.34375 48.523437-47.34375 26.757813 0 48.546876 21.765625 48.546876 48.542969zm0 0"/><path d="m220.625 452.492188c-26.761719 0-48.539062-21.773438-48.539062-48.539063h18.75c0 16.425781 13.363281 29.789063 29.789062 29.789063 16.03125 0 29.394531-13.03125 29.78125-29.046876l18.742188.453126c-.632813 26.109374-22.398438 47.34375-48.523438 47.34375zm28.515625-57.179688c-1.375-4.53125-3.867187-8.730469-7.203125-12.152344l13.417969-13.09375c5.425781 5.558594 9.480469 12.40625 11.722656 19.796875zm-14.808594-17.804688c-4.261719-2.222656-8.871093-3.347656-13.707031-3.347656v-18.75c7.769531 0 15.503906 1.890625 22.367188 5.464844zm0 0"/><path d="m149.015625 311.648438c-26.117187-.640626-47.351563-22.410157-47.351563-48.527344 0-26.765625 21.777344-48.542969 48.546876-48.542969v18.75c-16.429688 0-29.796876 13.363281-29.796876 29.792969 0 16.03125 13.03125 29.390625 29.054688 29.78125zm15.28125-2.070313-5.449219-17.941406c4.53125-1.375 8.730469-3.871094 12.152344-7.207031l13.097656 13.417968c-5.566406 5.429688-12.410156 9.484375-19.800781 11.730469zm28.988281-24.09375-16.628906-8.660156c2.214844-4.265625 3.34375-8.875 3.34375-13.707031h18.75c0 7.769531-1.890625 15.503906-5.464844 22.367187zm0 0"/><path d="m608.75 403.953125h-18.75c0-16.433594-13.363281-29.792969-29.789062-29.792969h-183.265626v-18.75h183.265626c26.761718 0 48.539062 21.773438 48.539062 48.542969zm-244.304688-29.792969h-18.75v-18.75h18.75zm-31.25 0h-18.75v-18.75h18.75zm0 0"/><path d="m538.335938 263.117188h-18.75c0-16.425782-13.367188-29.789063-29.796876-29.789063h-183.261718v-18.75h183.261718c26.769532 0 48.546876 21.777344 48.546876 48.539063zm-244.308594-29.789063h-18.75v-18.75h18.75zm-31.25 0h-18.75v-18.75h18.75zm0 0"/></svg>