<?xml version="1.0" encoding="iso-8859-1"?>
<!-- Generator: Adobe Illustrator 19.0.0, SVG Export Plug-In . SVG Version: 6.00 Build 0)  -->
<svg version="1.1" id="Capa_1" xmlns="http://www.w3.org/2000/svg" xmlns:xlink="http://www.w3.org/1999/xlink" x="0px" y="0px"
	 viewBox="0 0 469.333 469.333" style="enable-background:new 0 0 469.333 469.333;" xml:space="preserve">
<g>
	<g>
		<g>
			<path d="M42.667,85.333H0v341.333c0,23.573,19.093,42.667,42.667,42.667H384v-42.667H42.667V85.333z"/>
			<polygon points="277.333,298.667 320,298.667 320,85.333 234.667,85.333 234.667,128 277.333,128 			"/>
			<path d="M426.667,0H128c-23.573,0-42.667,19.093-42.667,42.667v298.667C85.333,364.907,104.427,384,128,384h298.667
				c23.573,0,42.667-19.093,42.667-42.667V42.667C469.333,19.093,450.24,0,426.667,0z M426.667,341.333H128V42.667h298.667V341.333z
				"/>
		</g>
	</g>
</g>
<g>
</g>
<g>
</g>
<g>
</g>
<g>
</g>
<g>
</g>
<g>
</g>
<g>
</g>
<g>
</g>
<g>
</g>
<g>
</g>
<g>
</g>
<g>
</g>
<g>
</g>
<g>
</g>
<g>
</g>
</svg>
