<svg id="Layer_1_1_" enable-background="new 0 0 64 64" height="512" viewBox="0 0 64 64" width="512" xmlns="http://www.w3.org/2000/svg"><path d="m32 42c5.514 0 10-4.486 10-10s-4.486-10-10-10-10 4.486-10 10 4.486 10 10 10zm0-18c4.411 0 8 3.589 8 8s-3.589 8-8 8-8-3.589-8-8 3.589-8 8-8z"/><path d="m22.808 17.151c-.188-.188-.441-.293-.707-.293s-.52.105-.707.293l-4.243 4.243c-.188.188-.293.442-.293.707s.105.52.293.707l1.806 1.805c-.609 1.072-1.081 2.206-1.408 3.387h-2.549c-.553 0-1 .448-1 1v6c0 .552.447 1 1 1h2.548c.327 1.183.798 2.318 1.406 3.389l-1.804 1.804c-.188.188-.293.442-.293.707s.105.52.293.707l4.243 4.243c.391.391 1.023.391 1.414 0l1.804-1.803c1.071.609 2.206 1.08 3.389 1.406v2.547c0 .552.447 1 1 1h6c.553 0 1-.448 1-1v-2.548c1.181-.327 2.315-.798 3.388-1.408l1.805 1.805c.188.188.441.293.707.293s.52-.105.707-.293l4.243-4.243c.188-.188.293-.442.293-.707s-.105-.52-.293-.707l-1.806-1.805c.609-1.072 1.081-2.206 1.408-3.387h2.548c.553 0 1-.448 1-1v-6c0-.552-.447-1-1-1h-2.548c-.327-1.183-.798-2.318-1.406-3.389l1.804-1.804c.188-.188.293-.442.293-.707s-.105-.52-.293-.707l-4.243-4.243c-.391-.391-1.023-.391-1.414 0l-1.804 1.803c-1.071-.609-2.206-1.08-3.389-1.406v-2.547c0-.552-.447-1-1-1h-6c-.553 0-1 .448-1 1v2.548c-1.181.327-2.315.798-3.388 1.408zm6.406 2.156c.459-.1.786-.507.786-.977v-2.33h4v2.33c0 .47.327.876.786.977 1.498.328 2.916.916 4.216 1.75.395.253.913.198 1.247-.135l1.65-1.65 2.829 2.829-1.65 1.65c-.332.332-.389.851-.135 1.247.833 1.299 1.422 2.718 1.75 4.217.101.458.507.785.977.785h2.33v4h-2.33c-.47 0-.876.327-.977.786-.328 1.495-.917 2.913-1.752 4.214-.254.396-.197.915.135 1.247l1.652 1.652-2.829 2.829-1.651-1.652c-.333-.333-.852-.388-1.247-.135-1.302.835-2.72 1.425-4.215 1.751-.459.101-.786.508-.786.978v2.33h-4v-2.33c0-.47-.327-.876-.786-.977-1.498-.328-2.916-.916-4.216-1.75-.396-.254-.914-.199-1.247.135l-1.65 1.65-2.829-2.829 1.65-1.65c.332-.332.389-.851.135-1.247-.833-1.299-1.422-2.718-1.75-4.217-.101-.458-.507-.785-.977-.785h-2.33v-4h2.33c.47 0 .876-.327.977-.786.328-1.495.917-2.913 1.752-4.214.254-.396.197-.915-.135-1.247l-1.652-1.652 2.829-2.829 1.651 1.652c.334.334.853.388 1.247.135 1.302-.836 2.72-1.425 4.215-1.752z"/><path d="m32 8c1.654 0 3-1.346 3-3s-1.346-3-3-3-3 1.346-3 3 1.346 3 3 3zm0-4c.552 0 1 .449 1 1s-.448 1-1 1-1-.449-1-1 .448-1 1-1z"/><path d="m32 56c-1.654 0-3 1.346-3 3s1.346 3 3 3 3-1.346 3-3-1.346-3-3-3zm0 4c-.552 0-1-.449-1-1s.448-1 1-1 1 .449 1 1-.448 1-1 1z"/><path d="m59 29c-1.654 0-3 1.346-3 3s1.346 3 3 3 3-1.346 3-3-1.346-3-3-3zm0 4c-.552 0-1-.449-1-1s.448-1 1-1 1 .449 1 1-.448 1-1 1z"/><path d="m5 35c1.654 0 3-1.346 3-3s-1.346-3-3-3-3 1.346-3 3 1.346 3 3 3zm0-4c.552 0 1 .449 1 1s-.448 1-1 1-1-.449-1-1 .448-1 1-1z"/><path d="m19.374 9.284.677 2.032c.109.329.381.577.719.657.077.018.154.027.23.027.262 0 .518-.103.707-.293l5-5c.268-.268.361-.664.241-1.023-.119-.359-.432-.62-.807-.673l-7-1c-.348-.05-.688.083-.909.349-.223.266-.291.628-.181.957l.681 2.043c-7.401 3.998-12.706 11.203-14.252 19.456l1.965.368c1.415-7.548 6.215-14.155 12.929-17.9zm4.505-2.577-2.441 2.442-.978-2.93z"/><path d="m59.522 37.185-1.965-.369c-1.418 7.554-6.219 14.162-12.932 17.901l-.678-2.033c-.109-.329-.381-.577-.719-.657-.337-.081-.691.021-.937.266l-5 5c-.268.268-.361.664-.241 1.023.119.359.432.62.807.673l7 1c.049.008.096.011.143.011.294 0 .576-.13.768-.359.223-.266.291-.628.181-.957l-.681-2.043c7.399-3.993 12.705-11.198 14.254-19.456zm-19.401 20.108 2.441-2.442.978 2.93z"/><path d="m54.717 19.373-2.034.678c-.329.11-.577.382-.657.719-.079.337.021.692.267.937l5 5c.19.191.446.293.707.293.105 0 .213-.017.316-.051.359-.12.62-.432.674-.807l1-7c.049-.343-.083-.688-.35-.909-.267-.222-.629-.288-.957-.181l-2.042.681c-3.982-7.397-11.187-12.702-19.456-14.256l-.369 1.966c7.564 1.421 14.171 6.222 17.901 12.93zm2.576 4.506-2.441-2.442 2.93-.977z"/><path d="m11.974 43.23c.079-.337-.021-.692-.267-.937l-5-5c-.268-.269-.663-.362-1.023-.242-.359.12-.62.432-.674.807l-1 7c-.049.343.083.688.35.909.182.153.41.233.64.233.106 0 .213-.017.316-.051l2.042-.681c3.988 7.407 11.194 12.712 19.458 14.255l.367-1.966c-7.56-1.411-14.167-6.212-17.901-12.931l2.034-.678c.33-.109.578-.381.658-.718zm-5.267-3.109 2.441 2.442-2.93.977z"/></svg>