<svg id="Capa_1" enable-background="new 0 0 512 512" height="512" viewBox="0 0 512 512" width="512" xmlns="http://www.w3.org/2000/svg"><path d="m501.12 253.376-54.879-54.88v-83.006c0-35.588-28.953-64.541-64.541-64.541-23.398 0-43.925 12.517-55.244 31.204-.564-.611-1.137-1.214-1.723-1.799-11.729-11.745-27.34-18.213-43.956-18.213-23.161 0-44.247 12.75-55.03 33.275-1.127 2.146-3.354 3.479-5.894 3.479-1.739 0-3.431-.724-4.766-2.039-11.702-11.526-27.191-17.874-43.617-17.874-21.587 0-41.308 10.95-52.752 29.291-1.32 2.115-3.781 3.448-6.424 3.479-1.922.061-3.927-.873-5.46-2.459-11.819-12.226-27.686-18.959-44.677-18.959-34.273 0-62.157 27.884-62.157 62.157v40.175c0 4.143 3.358 7.5 7.5 7.5s7.5-3.357 7.5-7.5v-40.175c0-26.003 21.155-47.157 47.157-47.157 12.888 0 24.925 5.108 33.892 14.385 4.389 4.539 10.35 7.119 16.419 7.032 7.822-.09 14.916-4.029 18.976-10.536 8.687-13.921 23.65-22.232 40.027-22.232 12.461 0 24.213 4.815 33.089 13.559 4.158 4.098 9.589 6.354 15.377 6.354 8.047 0 15.362-4.407 19.089-11.502 8.183-15.576 24.181-25.252 41.751-25.252 12.606 0 24.447 4.905 33.351 13.82 1.973 1.97 3.784 4.132 5.381 6.428.058.083.124.158.185.239-1.638 5.677-2.534 11.665-2.534 17.862 0 4.143 3.358 7.5 7.5 7.5s7.5-3.357 7.5-7.5c0-27.317 22.224-49.541 49.541-49.541s49.541 22.224 49.541 49.541v97.624c0 27.317-22.224 49.541-49.541 49.541s-49.541-22.224-49.541-49.541v-41.448c0-4.143-3.358-7.5-7.5-7.5-4.132 0-7.483 3.342-7.499 7.471h-8.501c-4.142 0-7.5 3.357-7.5 7.5s3.358 7.5 7.5 7.5h8.5v26.478c0 13.163 3.969 25.412 10.761 35.63-.004 44.868-.009 71.432-.015 73.285-.929 25.667-22.586 46.044-48.298 45.405-7.412-.179-14.479-2.078-21.006-5.644-3.634-1.984-8.191-.647-10.178 2.986-1.986 3.635-.649 8.191 2.986 10.178 3.512 1.919 7.149 3.453 10.881 4.639-2.919 23.802 5.168 47.631 22.268 64.771l.843.843c10.193 10.21 23.75 15.837 38.174 15.844h.027c14.409 0 27.964-5.609 38.173-15.8l72.132-72.132c2.929-2.93 2.929-7.678 0-10.607-2.929-2.928-7.678-2.928-10.606 0l-72.128 72.128c-7.372 7.359-17.163 11.411-27.571 11.411-.006 0-.013 0-.02 0-10.416-.005-20.206-4.068-27.572-11.447l-.841-.841c-13.599-13.631-20.151-32.508-18.103-51.448.725.043 1.448.099 2.178.116.503.012 1.005.018 1.506.018 33.28 0 61.013-26.617 62.149-60.016.004-.123.008-.244.012-17.753 7.559-3.422 37.104-15.038 65.182-2.078 3.761 1.735 8.217.094 9.953-3.667s.094-8.217-3.667-9.952c-11.425-5.273-22.862-7.254-33.386-7.411l-1.784-3.979c.827.031 1.654.063 2.489.063 33.467 0 61.059-25.607 64.23-58.256l44.584 44.584c4.183 4.183 6.486 9.743 6.486 15.658 0 5.916-2.304 11.477-6.486 15.659l-43.168 43.169c-2.929 2.93-2.929 7.678 0 10.607 1.464 1.464 3.384 2.196 5.303 2.196s3.839-.732 5.303-2.196l43.168-43.169c7.016-7.016 10.88-16.344 10.88-26.267.001-9.923-3.863-19.251-10.879-26.267zm-138.291 24.342 2.221 4.953c-9.01 1.358-16.669 3.714-22.133 5.767.001-6.565.002-14.411.003-23.771 5.75 4.337 12.246 7.732 19.258 9.962-.004 1.034.2 2.084.651 3.089z"/><path d="m238.129 171.637h-24.007c-4.142 0-7.5 3.357-7.5 7.5s3.358 7.5 7.5 7.5h4.503v118.469c-.057 25.953-21.19 47.052-47.155 47.052-25.989 0-47.143-21.144-47.157-47.132 0-.006-.001-.013-.001-.019v-118.37h6.278c4.142 0 7.5-3.357 7.5-7.5s-3.358-7.5-7.5-7.5h-24.006c-4.142 0-7.5 3.357-7.5 7.5s3.358 7.5 7.5 7.5h2.728v118.426c-.034 25.971-21.18 47.094-47.156 47.094-26.001 0-47.156-21.154-47.156-47.157v-78.334c0-4.143-3.358-7.5-7.5-7.5s-7.5 3.357-7.5 7.5v78.334c0 34.273 27.884 62.157 62.157 62.157 23.569 0 44.122-13.192 54.657-32.581 10.535 19.389 31.087 32.581 54.657 32.581 20.979 0 39.567-10.45 50.829-26.418.746 2.086 1.605 4.143 2.577 6.166 1.792 3.734 6.271 5.307 10.007 3.517 3.734-1.793 5.308-6.273 3.516-10.007-3.166-6.596-4.771-13.646-4.771-20.953l-.002-132.825h4.503c4.142 0 7.5-3.357 7.5-7.5s-3.359-7.5-7.501-7.5z"/></svg>