<?xml version="1.0" encoding="UTF-8" standalone="no"?>
<svg
   xmlns:dc="http://purl.org/dc/elements/1.1/"
   xmlns:cc="http://creativecommons.org/ns#"
   xmlns:rdf="http://www.w3.org/1999/02/22-rdf-syntax-ns#"
   xmlns:svg="http://www.w3.org/2000/svg"
   xmlns="http://www.w3.org/2000/svg"
   xmlns:sodipodi="http://sodipodi.sourceforge.net/DTD/sodipodi-0.dtd"
   xmlns:inkscape="http://www.inkscape.org/namespaces/inkscape"
   width="1920"
   height="7060"
   viewBox="0 0 1920 4796.968"
   version="1.1"
   id="svg48"
   sodipodi:docname="background.svg"
   inkscape:version="1.0 (4035a4fb49, 2020-05-01)">
  <metadata
     id="metadata52">
    <rdf:RDF>
      <cc:Work
         rdf:about="">
        <dc:format>image/svg+xml</dc:format>
        <dc:type
           rdf:resource="http://purl.org/dc/dcmitype/StillImage" />
      </cc:Work>
    </rdf:RDF>
  </metadata>
  <sodipodi:namedview
     inkscape:document-rotation="0"
     pagecolor="#ffffff"
     bordercolor="#666666"
     borderopacity="1"
     objecttolerance="10"
     gridtolerance="10"
     guidetolerance="10"
     inkscape:pageopacity="0"
     inkscape:pageshadow="2"
     inkscape:window-width="1386"
     inkscape:window-height="850"
     id="namedview50"
     showgrid="false"
     inkscape:zoom="0.1049082"
     inkscape:cx="1060"
     inkscape:cy="5168.3916"
     inkscape:window-x="158"
     inkscape:window-y="59"
     inkscape:window-maximized="0"
     inkscape:current-layer="Gruppe_213" />
  <defs
     id="defs35">
    <filter
       id="Pfad_294"
       x="0"
       y="4594"
       width="2217"
       height="2764.8149"
       filterUnits="userSpaceOnUse">
      <feOffset
         dx="100"
         dy="100"
         input="SourceAlpha"
         id="feOffset2" />
      <feGaussianBlur
         stdDeviation="49.5"
         result="blur"
         id="feGaussianBlur4" />
      <feFlood
         flood-opacity="0.161"
         id="feFlood6" />
      <feComposite
         operator="in"
         in2="blur"
         id="feComposite8"
         result="result1" />
      <feComposite
         in="SourceGraphic"
         in2="result1"
         id="feComposite10" />
    </filter>
    <filter
       id="Pfad_251"
       x="929.20898"
       y="2618.0471"
       width="1087.791"
       height="3853.7639"
       filterUnits="userSpaceOnUse">
      <feOffset
         dx="-100"
         input="SourceAlpha"
         id="feOffset13" />
      <feGaussianBlur
         stdDeviation="49.5"
         result="blur-2"
         id="feGaussianBlur15" />
      <feFlood
         flood-opacity="0.161"
         id="feFlood17" />
      <feComposite
         operator="in"
         in2="blur-2"
         id="feComposite19"
         result="result1" />
      <feComposite
         in="SourceGraphic"
         in2="result1"
         id="feComposite21" />
    </filter>
    <filter
       id="Pfad_249"
       x="0"
       y="0"
       width="2217"
       height="2764.8149"
       filterUnits="userSpaceOnUse">
      <feOffset
         dx="100"
         dy="100"
         input="SourceAlpha"
         id="feOffset24" />
      <feGaussianBlur
         stdDeviation="49.5"
         result="blur-3"
         id="feGaussianBlur26" />
      <feFlood
         flood-opacity="0.161"
         id="feFlood28" />
      <feComposite
         operator="in"
         in2="blur-3"
         id="feComposite30"
         result="result1" />
      <feComposite
         in="SourceGraphic"
         in2="result1"
         id="feComposite32" />
    </filter>
  </defs>
  <g
     id="Gruppe_213"
     data-name="Gruppe 213"
     transform="translate(0,-1131.516)">
    <path
       id="Pfad_1"
       data-name="Pfad 1"
       d="m -3018.77,-3237.727 h 1920 v 7060 h -1920"
       transform="translate(3018.77,3237.727)"
       fill="#560541" />
    <g
       transform="translate(-48.5,-48.5)"
       filter="url(#Pfad_294)"
       id="g39">
      <path
         id="Pfad_294-2"
         data-name="Pfad 294"
         d="m 1799.406,2261.78 c -70.018,-123.7 -57.635,-88.039 -194.479,-253.764 -224.079,-73.679 -407.876,-197.718 -576.793,-357.244 C 859.217,1491.246 764.308,1374.224 656.613,1224.136 507.27,972.115 603.831,906.05 517.729,721.709 393.012,445.519 339.121,480.409 246.167,366.07 59.137,136.02 -35,35 -35,35 v 2467.815 h 1920 c 0,0 -15.575,-117.336 -85.594,-241.035 z"
         transform="translate(83.5,4607.5)"
         fill="#1b0650" />
    </g>
    <g
       transform="translate(-48.5,-48.5)"
       filter="url(#Pfad_251)"
       id="g42">
      <path
         id="Pfad_251-2"
         data-name="Pfad 251"
         d="m 1920,2718.047 c -166.6,15.33 -764.254,235.481 -789.088,813.068 -24.834,577.587 228.935,949.185 307.509,1175.257 78.574,226.072 115.729,589.971 90.535,669.924 -25.194,79.953 -183.786,711.719 391.044,898.515 z"
         transform="translate(48.5,48.5)"
         fill="#1b0650" />
    </g>
    <g
       transform="translate(-48.5,-48.5)"
       filter="url(#Pfad_249)"
       id="g45">
      <path
         id="Pfad_249-2"
         data-name="Pfad 249"
         d="m 1799.406,276.035 c -70.018,123.7 -57.635,88.039 -194.479,253.764 -224.079,73.679 -407.876,197.718 -576.793,357.244 -168.917,159.526 -263.826,276.548 -371.522,426.637 -149.342,252.02 -52.781,318.085 -138.883,502.426 -124.717,276.19 -178.608,241.3 -271.562,355.639 C 59.137,2401.795 -35,2502.815 -35,2502.815 V 35 h 1920 c 0,0 -15.575,117.335 -85.594,241.035 z"
         transform="translate(83.5,13.5)"
         fill="#1b0650" />
    </g>
  </g>
</svg>
