<?xml version="1.0" encoding="utf-8"?>
<!-- Generator: Adobe Illustrator 21.1.0, SVG Export Plug-In . SVG Version: 6.00 Build 0)  -->
<svg version="1.1" id="Layer_1" xmlns="http://www.w3.org/2000/svg" xmlns:xlink="http://www.w3.org/1999/xlink" x="0px" y="0px"
	 viewBox="0 0 2000 10000" style="enable-background:new 0 0 2000 10000;" xml:space="preserve">
<style type="text/css">
	.st0{fill:url(#SVGID_1_);}
	.st1{fill:url(#SVGID_2_);}
	.st2{fill:url(#SVGID_3_);}
	.st3{fill:url(#SVGID_4_);}
	.st4{fill:url(#SVGID_5_);}
	.st5{fill:url(#SVGID_6_);}
	.st6{fill:url(#SVGID_7_);}
	.st7{fill:url(#SVGID_8_);}
</style>
<linearGradient id="SVGID_1_" gradientUnits="userSpaceOnUse" x1="1207.6394" y1="1202.8739" x2="-93.6155" y2="110.9914">
	<stop  offset="0" style="stop-color:#442F8D"/>
	<stop  offset="0.5595" style="stop-color:#392B70"/>
	<stop  offset="0.6897" style="stop-color:#382B65"/>
	<stop  offset="0.9147" style="stop-color:#342949"/>
	<stop  offset="1" style="stop-color:#32293D"/>
</linearGradient>
<path class="st0" d="M470,1392.6l574.4-574.4L2003,255l4-252l-536.4-1.5L869,3C869,3-3.2,3-3,3s4,2058,4,2058L470,1392.6z"/>
<linearGradient id="SVGID_2_" gradientUnits="userSpaceOnUse" x1="1207.1161" y1="1850.7765" x2="360.1158" y2="1140.0588">
	<stop  offset="0" style="stop-color:#561041"/>
	<stop  offset="0.1054" style="stop-color:#54103F"/>
	<stop  offset="0.3962" style="stop-color:#4B1139"/>
	<stop  offset="0.7881" style="stop-color:#481137"/>
	<stop  offset="1" style="stop-color:#3F1429"/>
</linearGradient>
<path class="st1" d="M667.4,2370.9l498.1-511.6l547.5-659.6L2003,859l-2-796L833.4,576c0,0-816.7,1090.4-825.7,1117.3
	c-9,26.9-9,1597.5-9,1597.5L667.4,2370.9z"/>
<linearGradient id="SVGID_3_" gradientUnits="userSpaceOnUse" x1="1485.0885" y1="3305.2261" x2="370.416" y2="2369.9048">
	<stop  offset="0.1838" style="stop-color:#442F8D"/>
	<stop  offset="0.8008" style="stop-color:#382B6F"/>
	<stop  offset="1" style="stop-color:#32293D"/>
</linearGradient>
<path class="st2" d="M793,3986.3l538.5-498.1l394.9-682.1L2003,2333l2-1498L828.9,1823.5c0,0-816.7,1090.4-825.7,1117.3
	s-4.5,2023.8-4.5,2023.8L793,3986.3z"/>
<linearGradient id="SVGID_4_" gradientUnits="userSpaceOnUse" x1="1354.3375" y1="4495.0693" x2="507.3372" y2="3784.3516">
	<stop  offset="0" style="stop-color:#561041"/>
	<stop  offset="0.1054" style="stop-color:#54103F"/>
	<stop  offset="0.3962" style="stop-color:#4B1139"/>
	<stop  offset="0.7881" style="stop-color:#481137"/>
	<stop  offset="1" style="stop-color:#3F1429"/>
</linearGradient>
<path class="st3" d="M676.4,5180l498.1-511.6l547.5-659.6L2003,3643l-2-1340L842.4,3385c0,0-816.7,1090.4-825.7,1117.3
	s-9,1597.5-9,1597.5L676.4,5180z"/>
<linearGradient id="SVGID_5_" gradientUnits="userSpaceOnUse" x1="1499.3431" y1="6216.7588" x2="368.3387" y2="5267.7334">
	<stop  offset="0.2703" style="stop-color:#442F8D"/>
	<stop  offset="0.8711" style="stop-color:#382B6F"/>
	<stop  offset="1" style="stop-color:#32293D"/>
</linearGradient>
<path class="st4" d="M775.1,6903.1l744.9-736l188.5-444.1L2003,5177l2-1556L811,4740.2c0,0-816.7,1090.4-825.7,1117.3
	S12.3,7989,12.3,7989L775.1,6903.1z"/>
<linearGradient id="SVGID_6_" gradientUnits="userSpaceOnUse" x1="1344.7563" y1="7317.7041" x2="499.6046" y2="6608.5371">
	<stop  offset="0" style="stop-color:#561041"/>
	<stop  offset="0.1054" style="stop-color:#54103F"/>
	<stop  offset="0.3962" style="stop-color:#4B1139"/>
	<stop  offset="0.7881" style="stop-color:#481137"/>
	<stop  offset="1" style="stop-color:#3F1429"/>
</linearGradient>
<path class="st5" d="M664.8,8005l498.1-511.6l547.5-659.6L2007,6487l-2-1354L589,6502c0,0-574.8,798.4-583.8,825.4
	s-9,1597.5-9,1597.5L664.8,8005z"/>
<linearGradient id="SVGID_7_" gradientUnits="userSpaceOnUse" x1="1681.4457" y1="8797.4385" x2="632.2219" y2="7917.0352">
	<stop  offset="0.1838" style="stop-color:#442F8D"/>
	<stop  offset="0.8008" style="stop-color:#382B6F"/>
	<stop  offset="1" style="stop-color:#32293D"/>
</linearGradient>
<path class="st6" d="M503,9993l814.4-761.8l394.9-682.1L2004,8069V6449.1L1489,6909c0,0-1479,1739.1-1488,1766s-4,1328-4,1328
	L503,9993z"/>
<linearGradient id="SVGID_8_" gradientUnits="userSpaceOnUse" x1="2086.4626" y1="9899.1494" x2="940.6791" y2="8937.7236">
	<stop  offset="0" style="stop-color:#561041"/>
	<stop  offset="0.1054" style="stop-color:#54103F"/>
	<stop  offset="0.3962" style="stop-color:#4B1139"/>
	<stop  offset="0.7881" style="stop-color:#481137"/>
	<stop  offset="1" style="stop-color:#3F1429"/>
</linearGradient>
<path class="st7" d="M523,10002h379l1099-1l2-640l-0.5-1339.4L576,9395c0,0-290,311.1-299,338s-218,272-218,272L523,10002z"/>
</svg>
