<?xml version="1.0" encoding="utf-8"?>
<!-- Generator: Adobe Illustrator 21.1.0, SVG Export Plug-In . SVG Version: 6.00 Build 0)  -->
<svg version="1.1" id="Layer_1" xmlns="http://www.w3.org/2000/svg" xmlns:xlink="http://www.w3.org/1999/xlink" x="0px" y="0px"
	 viewBox="0 0 500 500" style="enable-background:new 0 0 500 500;" xml:space="preserve">
<path d="M247.3,314l-48.6-52l-2.3-69c30.5-65.6,80.3-67.8,108.5,0l-6.8,65.6L247.3,314z"/>
<polygon points="208,360 213,314 248,343 285,310 289,369 389,406 422,470 243,486 95,441 124,398 "/>
<polygon points="314,361 337,343 346,296 404,334 404,348 453,412 449,444 398,386 "/>
<path d="M360,283l42,25l34,6l8-68l-7.4-25.3c-6.6-22.4-26.2-38.4-49.5-40.2c-31.8-2.5-53.1,8.6-55,55.8L333,249L360,283z"/>
<polygon points="76,434 105,380 180,348 179,325 171,296 104,340 71,374 "/>
<path d="M165,267c-1-3,0-74,0-74l8-25l-51,11l-31,32l-3,50l13,49L165,267z"/>
<polygon points="256.1,129.9 235.5,33.9 250.9,11.1 273.7,33.6 "/>
<polygon points="186.2,129.3 147.5,58.6 154.2,36.7 177.3,48.6 "/>
<polygon points="320.6,130 334,48.8 353.6,34.8 365,58.5 "/>
<polygon points="380.5,143.8 409.1,84.7 432.1,77.9 435.2,104 "/>
<polygon points="120.8,145.1 70.7,102.6 69.8,78.6 95.9,82.2 "/>
</svg>
