<?xml version="1.0" encoding="utf-8"?>
<!-- Generator: Adobe Illustrator 21.1.0, SVG Export Plug-In . SVG Version: 6.00 Build 0)  -->
<svg version="1.1" id="Layer_1" xmlns="http://www.w3.org/2000/svg" xmlns:xlink="http://www.w3.org/1999/xlink" x="0px" y="0px"
	 viewBox="0 0 500 500" style="enable-background:new 0 0 500 500;" xml:space="preserve">
<polygon points="300.1,454 363.4,382.6 467,348.1 397.9,432.1 "/>
<polygon points="199.9,454 132,378 33,348.1 99.8,437.9 "/>
<path d="M440.7,105.1l-13.6-46.3l-170.3-6.6L80,59l-27.3,45l63.8,0.2C119,137.3,130,314,130,314c0.5-0.3,119.9,117.2,120.6,117
	c2.4-0.8,113.7-118.1,115.4-112c0.2,0.6,8.9-176.9,10-214.1L440.7,105.1z M249,359l-83-73l-12-180l8.6-1.7l87.9,0.3L249,359z"/>
</svg>
