<?xml version="1.0" encoding="utf-8"?>
<!-- Generator: Adobe Illustrator 21.1.0, SVG Export Plug-In . SVG Version: 6.00 Build 0)  -->
<svg version="1.1" id="Layer_1" xmlns="http://www.w3.org/2000/svg" xmlns:xlink="http://www.w3.org/1999/xlink" x="0px" y="0px"
	 viewBox="0 0 500 500" style="enable-background:new 0 0 500 500;" xml:space="preserve">
<polygon points="135,247.5 169.6,175.1 107,102.7 133.3,54.9 204.1,119.1 258.5,25.3 317.7,68.1 270,158.6 349,213 286.4,303.5 
	214,231.1 166.3,308.4 136.6,254.1 "/>
<path d="M407,216.2l-52.8,164.9l-87.8-66.7l-104.2,29.7c-6,16.5-15.5,47.8-15.5,47.8L125,331.3l-33-20l-8,62l82.9,78.4l201.8,4.5
	l79.5-136.8L407,216.2z"/>
<path d="M400,62.3l-49,29l-53,57l30,27l59-3l47-101L400,62.3z M386.9,108.1c-1.4,5.5-11,41.2-11,41.2l-44-6.9l30.2-34.3
	C362.2,108.1,388.3,102.6,386.9,108.1z"/>
<path d="M112,150.3l-40-13l-20,24l3,39l57,9l34-37L112,150.3z M85,188.3l-11-21l20-7l21,18L85,188.3z"/>
</svg>
