<?xml version="1.0" encoding="utf-8"?>
<!-- Generator: Adobe Illustrator 21.1.0, SVG Export Plug-In . SVG Version: 6.00 Build 0)  -->
<svg version="1.1" id="Layer_1" xmlns="http://www.w3.org/2000/svg" xmlns:xlink="http://www.w3.org/1999/xlink" x="0px" y="0px"
	 viewBox="0 0 500 500" style="enable-background:new 0 0 500 500;" xml:space="preserve">
<path d="M149.3,164.2c0-31.3-56.7-128.3-56.7-128.3S36,132.9,36,164.2s25.4,56.7,56.7,56.7S149.3,195.5,149.3,164.2z"/>
<polygon points="438.4,67.8 463.9,66.9 461.9,10.7 405.7,12.7 406.5,35.7 322.7,127.3 237.5,49.4 205.6,84.4 268.1,141.6 
	84.3,342.1 41.4,468.8 159.9,411.4 343.8,210.8 409.8,271.2 441.8,236.3 356.1,157.9 "/>
<path d="M416.3,422.2c0-31.3-56.7-128.3-56.7-128.3s-56.7,97-56.7,128.3s25.4,56.7,56.7,56.7S416.3,453.5,416.3,422.2z"/>
</svg>
