<?xml version="1.0" encoding="utf-8"?>
<!-- Generator: Adobe Illustrator 21.1.0, SVG Export Plug-In . SVG Version: 6.00 Build 0)  -->
<svg version="1.1" id="Layer_1" xmlns="http://www.w3.org/2000/svg" xmlns:xlink="http://www.w3.org/1999/xlink" x="0px" y="0px"
	 viewBox="0 0 500 500" style="enable-background:new 0 0 500 500;" xml:space="preserve">
<style type="text/css">
	.st0{fill:#FFFFFF;}
</style>
<polygon class="st0" points="234,324.3 251,276.3 296,277.3 287,301.3 "/>
<polygon points="270,361.3 245,428.3 153.3,442.4 155.7,438.2 125.7,393.2 115.5,446.3 83.9,384.3 63.1,448 105.4,480.1 263,476.3 
	343,387.3 "/>
<path d="M493.4,55.1L354.2,98.3l-22.5,62.1l-41.9-29.6c0,0-16.6,5.5-38.2,12.8l5.8-29.6l-13.6-99.8l-60.8,90.9l-6.8,34.5
	c0,0,2,12.2,4.9,28.1c-15,5.3-25.5,9.3-26,10.1L36.9,328.4l136,56.9c0,0,88.6-44.8,91.7-44.2s77.8,21.1,77.8,21.1l70.7-52.7
	l10.9-83.8l-34.7-24.5l53.5-12.7L493.4,55.1z M136.4,267l-4.9-37.7l32.1-13.2L136.4,267z M279,282.3l-70,20c1-3,30-46,30-46l45-4
	L279,282.3z"/>
</svg>
