<?xml version="1.0" encoding="utf-8"?>
<!-- Generator: Adobe Illustrator 21.1.0, SVG Export Plug-In . SVG Version: 6.00 Build 0)  -->
<svg version="1.1" id="Layer_1" xmlns="http://www.w3.org/2000/svg" xmlns:xlink="http://www.w3.org/1999/xlink" x="0px" y="0px"
	 viewBox="0 0 500 500" style="enable-background:new 0 0 500 500;" xml:space="preserve">
<polygon points="144.4,170.9 160.7,214.2 194.2,223.9 244,164.4 300.3,161.1 325,103.3 137.9,104.9 96.8,157.9 "/>
<path d="M160.7,254.5c3.2-1.1,34.6,3.2,34.6,3.2l23.8,83.3L362,313l-9.7,79l-224,82.2L46,364.9l23.8-47.6l64.9,23.8L160.7,254.5z"/>
<polyline points="397,285.3 383,361.3 435,367.3 479,229.3 427,45.3 281,11.3 199,77.3 363,79.3 327,177.3 "/>
<path d="M270.6,184.2c-31.4,0-56.8,29.1-56.8,64.9s25.4,64.9,56.8,64.9s56.8-29.1,56.8-64.9S301.9,184.2,270.6,184.2z M263,282.3
	c-14.6,0-26.4-14.8-26.4-33c0-18.2,11.8-33,26.4-33s26.4,14.8,26.4,33C289.4,267.5,277.6,282.3,263,282.3z"/>
<path d="M116,186.2c-16.1-2.1-32.6,23.4-36.9,56.9c-4.3,33.5,5.3,62.3,21.4,64.4s32.6-23.4,36.9-56.9
	C141.7,217.1,132.1,188.3,116,186.2z M105.9,244.6c-2.5,17-8.5,30.2-13.4,29.5c-4.9-0.7-6.9-15.1-4.4-32.1s8.5-30.2,13.4-29.5
	C106.4,213.2,108.4,227.5,105.9,244.6z"/>
</svg>
