<svg id="Layer_1" data-name="Layer 1" xmlns="http://www.w3.org/2000/svg" viewBox="0 0 445.12 457.35"><title>94 choose 2</title><path d="M211,256l44,137,199,57,15-52,10-126-51-78-24-31-36-1-16,29-23-27-33,10-12,25-35-28-22,15-12,32-30-53-27-59L119,38l-12.67,4.22a27,27,0,0,0-18.43,24L87,81l22,80,44,92,32,63s12,70,16,72,67,65,71,66,65-10,65-10-10-80-15-79S211,256,211,256Z" transform="translate(-33.88 -38)"/><path d="M103.21,413.88l49,18.63a7,7,0,0,1,1.72,1L188,459.22a7,7,0,0,0,1.66.93l88.86,34.72a7,7,0,0,0,5.69-.28L454,450,243.47,361.61a7,7,0,0,0-2-.06l-60.83,6.62a7,7,0,0,1-1.77,0l-60.63-8.91A7,7,0,0,1,115.2,358l-6.43-4.68a77.57,77.57,0,0,0-65.67-12.23h0a12.42,12.42,0,0,0-6,20.32l22.53,25a7,7,0,0,0,1.47,1.23L102,413.27A7,7,0,0,0,103.21,413.88Z" transform="translate(-33.88 -38)"/></svg>