<?xml version="1.0" encoding="utf-8"?>
<!-- Generator: Adobe Illustrator 21.1.0, SVG Export Plug-In . SVG Version: 6.00 Build 0)  -->
<svg version="1.1" id="Layer_1" xmlns="http://www.w3.org/2000/svg" xmlns:xlink="http://www.w3.org/1999/xlink" x="0px" y="0px"
	 viewBox="0 0 500 500" style="enable-background:new 0 0 500 500;" xml:space="preserve">
<polygon points="297.3,182.3 240.9,182.3 293.4,278 182.2,278 239.4,182.3 183.1,182.3 126.1,281.1 193,380 193.2,380 193.2,492 
	287.2,492 287.2,379.7 354.4,281.1 "/>
<polygon points="256,158 226,158 226,61 240,10 256,61 "/>
<polygon points="320,166.7 291.6,157 316.8,83.2 343.2,48.9 345.2,92.8 "/>
<polygon points="189.4,157.6 161.4,168.4 133.3,95.6 131.7,52.3 161.3,84.8 "/>
<polygon points="373.4,265.7 357.4,240.3 400.1,214.4 442.3,204.4 416.1,239.8 "/>
<polygon points="348.8,212.4 327.5,191.3 382.3,135.8 421.1,116.5 403.7,156.9 "/>
<polygon points="149.7,195.3 130,217.9 71.2,166.6 49.5,129.1 90.9,144 "/>
<polygon points="121.2,240.4 107.2,266.9 63.4,242.9 33.6,211.5 77.3,216.4 "/>
</svg>
