<?xml version="1.0" encoding="utf-8"?>
<!-- Generator: Adobe Illustrator 21.1.0, SVG Export Plug-In . SVG Version: 6.00 Build 0)  -->
<svg version="1.1" id="Layer_1" xmlns="http://www.w3.org/2000/svg" xmlns:xlink="http://www.w3.org/1999/xlink" x="0px" y="0px"
	 viewBox="0 0 500 500" style="enable-background:new 0 0 500 500;" xml:space="preserve">
<path d="M4.4,363.7l31.6,7.7l44.8-1.5l8.1,77.7l19.5,37.1l9-39.6l-0.1-79.3l43.7-1l46-22l-36.9-10.5c-3.4-1-6.9-1.4-10.4-1.4
	l-35.2,0.6L113,98.9L89,36.4L69.6,95.1c-1.7,5.2-2.5,10.6-2.4,16l6,227.2l-31.5,0.4L4.4,363.7z"/>
<polygon points="487,376.9 459.6,374.8 414.8,373.1 407,462.9 391,478.9 377,464.9 378.3,368.8 346.3,366.9 307,364.9 345,333 
	365,334.9 375,128.9 408.1,39.4 437,132.9 427,342.9 453.9,342 "/>
<polygon points="297,69.1 215.4,464.9 245.4,478.1 323.6,73.3 "/>
<polygon points="264.7,466.2 236.5,492.5 210.8,484.4 197.2,448.3 234,432.3 "/>
<polygon points="274.9,92.7 341.2,104.1 327,168.9 263,152.9 169,230.9 153,144.9 207,18.9 "/>
<polygon points="369,479.3 423,481.2 417,455 365,453.1 "/>
<circle cx="105" cy="466.9" r="24"/>
</svg>
