<?xml version="1.0" encoding="utf-8"?>
<!-- Generator: Adobe Illustrator 21.1.0, SVG Export Plug-In . SVG Version: 6.00 Build 0)  -->
<svg version="1.1" id="Layer_1" xmlns="http://www.w3.org/2000/svg" xmlns:xlink="http://www.w3.org/1999/xlink" x="0px" y="0px"
	 viewBox="0 0 500 500" style="enable-background:new 0 0 500 500;" xml:space="preserve">
<polygon points="36.9,105.3 102.1,105.3 106,31.2 153.3,29.9 149.4,110.4 218.5,110.4 219.8,164.1 149.4,156.5 148.2,230.6 
	98.3,223 97,160.3 31.8,153.9 "/>
<polygon points="391.7,44.7 394.8,109.8 469,110.1 472.6,157.3 391.9,157.3 395.2,226.3 341.6,230.1 345.9,159.5 271.8,161.8 
	277.1,111.6 339.6,107.4 342.9,41.9 "/>
<polygon points="146.9,275.5 150,340.7 224.3,341 227.8,388.1 147.2,388.2 150.4,457.1 96.9,461 101.2,390.4 27,392.6 32.3,342.4 
	94.8,338.2 98.1,272.7 "/>
<polygon points="462,388.9 396.8,391.4 395.7,465.6 348.5,468.6 349.3,388 280.3,390.5 277.1,336.9 347.6,342 346.2,267.8 
	396.3,273.7 399.9,336.2 465.3,340.2 "/>
</svg>
