<?xml version="1.0" encoding="utf-8"?>
<!-- Generator: Adobe Illustrator 21.1.0, SVG Export Plug-In . SVG Version: 6.00 Build 0)  -->
<svg version="1.1" id="Layer_1" xmlns="http://www.w3.org/2000/svg" xmlns:xlink="http://www.w3.org/1999/xlink" x="0px" y="0px"
	 viewBox="0 0 500 500" style="enable-background:new 0 0 500 500;" xml:space="preserve">
<polygon points="286.6,326.8 285.4,302.3 285,293.6 284.2,293.6 236.2,295.1 219,295.6 219,323.1 219,343.3 219,399.8 65,352.7 
	76,417.8 255,471.9 417,417.8 427,343.7 290,397.8 "/>
<g>
	<path d="M427.8,93.8C414.6,13.3,303.6,14.4,247,22.9C115.4,42.6,84,130.4,83.4,208.1c46.3-26.4,127-71.7,148.9-84
		c-16-13.1-37-18.7-57.6-14.8c4.8-4.2,10.1-7.8,16-10.7c36.1-17.7,79.1-1.7,96,35.6s1.4,81.8-34.8,99.5c-6,2.8-12,4.8-18.1,6
		c17.7-15.6,27.1-39,25.4-62.7L87.8,264.5c6.6,41.8,18.2,72.1,18.2,72.1l80,28.1l10-99.2l106.7,1.9c0,0,0,0.1,0,0.1h7.3l13,85.2
		c14-4.6,36.3-13.3,54.3-20.5c19.9-7.9,38.3-31.3,42.7-52.3C433.3,215.2,438,155.9,427.8,93.8z M338.8,200.6l-32.7,48.1
		c0,0,30.8-83.2,3.2-130c-28-46.9-104.8-61-104.8-61c4-0.9,91.7,0,91.7,0l102.3,18.2L338.8,200.6z"/>
</g>
</svg>
