<?xml version="1.0" encoding="utf-8"?>
<!-- Generator: Adobe Illustrator 21.1.0, SVG Export Plug-In . SVG Version: 6.00 Build 0)  -->
<svg version="1.1" id="Layer_1" xmlns="http://www.w3.org/2000/svg" xmlns:xlink="http://www.w3.org/1999/xlink" x="0px" y="0px"
	 viewBox="0 0 500 500" style="enable-background:new 0 0 500 500;" xml:space="preserve">
<path d="M387.9,200l-74.2,38.8l3.2-176.3l-73.2-30.2l-57,43l8.8,171.5l-77.4-42.2L9.9,253.5l78.8,47l53.7,53.4l48.5,56.1l61.5,74.7
	L310,398l43.9-49.5l51.1-33.6l83.2-61.1L387.9,200z M393.6,240.6l35.2,19.8L321.3,332l-68.5,87.6l-59-72.3L75.6,258l34.4-14.5
	L228,313l-6.1-223.3l23.4-11l28.7,4.8l2.5,227.4L393.6,240.6z"/>
</svg>
