<?xml version="1.0" encoding="utf-8"?>
<!-- Generator: Adobe Illustrator 21.1.0, SVG Export Plug-In . SVG Version: 6.00 Build 0)  -->
<svg version="1.1" id="Layer_1" xmlns="http://www.w3.org/2000/svg" xmlns:xlink="http://www.w3.org/1999/xlink" x="0px" y="0px"
	 viewBox="0 0 500 500" style="enable-background:new 0 0 500 500;" xml:space="preserve">
<style type="text/css">
	.st0{fill:#FFFFFF;stroke:#000000;stroke-width:30;stroke-miterlimit:10;}
</style>
<rect x="88.9" y="88.8" transform="matrix(0.7071 -0.7071 0.7071 0.7071 -103.5259 250.0519)" class="st0" width="322.4" height="322.4"/>
<g>
	<path d="M154.9,379.7l30.8,36.3l2.3-3.9l-32.9-32.9C155,379.3,154.9,379.6,154.9,379.7z"/>
	<path d="M474.1,248.1L248.1,28l-223,221l130,130c3.6-9.7,42.7-92.9,56.2-121.3c-20.3-1.7-40.5,5.6-55,20.2c1.5-6.1,3.8-12,7-17.6
		c19.3-34.5,63-45.6,97.5-25s46.9,65.3,27.5,99.8c-3.2,5.6-7,10.6-11.3,14.9c5.6-22.8-0.1-47.2-14.9-65.4L188,412l62.1,62.1
		L474.1,248.1z M270.4,210.5c-48.8-22.3-118.8,9.3-118.8,9.3c2.8-2.9,74.1-51.3,74.1-51.3l92.8-42.4l21.4,134l0.5,57.2
		C340.5,317.3,318.8,232.8,270.4,210.5z"/>
</g>
</svg>
