<?xml version="1.0" encoding="utf-8"?>
<!-- Generator: Adobe Illustrator 21.1.0, SVG Export Plug-In . SVG Version: 6.00 Build 0)  -->
<svg version="1.1" id="Layer_1" xmlns="http://www.w3.org/2000/svg" xmlns:xlink="http://www.w3.org/1999/xlink" x="0px" y="0px"
	 viewBox="0 0 500 500" style="enable-background:new 0 0 500 500;" xml:space="preserve">
<image style="overflow:visible;" width="188" height="300" xlink:href="F205D4A9.jpg"  transform="matrix(0.24 0 0 0.24 -7894 -7770.1099)">
</image>
<path d="M349,476.9c5-2,104,3,104,3l4-316l-3-139l-102-2l51,77l-1,291L349,476.9z"/>
<path d="M347.1,223.9c-1.5-20.7-7.2-35.8-16.4-53.6l28.1-22.3l-34.2-43.5l-30.2,20.2c-15-12.7-32.5-22.5-49.1-27.3l8.9-37.2l-65.4-8
	l-4.3,37.5c-19.5,1.7-38,7.1-54.8,15.6l-18.3-28.3l-51,41.5l20.9,25.6c-11.5,14-20.6,30.2-26.4,47.9l-31.2-3.6L20.9,251l25.6,4.9
	c2.1,22.3,10.4,41.2,21.3,59.8L37,339.4l39.6,43.9l30.2-20.8c13.9,10.5,29.6,15.6,46.9,20.8l-4.3,37.5l56,12.4l6.3-44.1
	c14.9-1.4,24.7-4.7,38.2-10.2l29.8,29.6l45.4-40.9l-19.2-24.2c14.4-15,25.8-33.1,33-53.3l30.5,3.5l7.1-61.7L347.1,223.9z M192.6,316
	l-74.3-81l92.2-66.9l66.4,79.1L192.6,316z"/>
</svg>
