<?xml version="1.0" encoding="utf-8"?>
<!-- Generator: Adobe Illustrator 21.1.0, SVG Export Plug-In . SVG Version: 6.00 Build 0)  -->
<svg version="1.1" id="Layer_1" xmlns="http://www.w3.org/2000/svg" xmlns:xlink="http://www.w3.org/1999/xlink" x="0px" y="0px"
	 viewBox="0 0 500 500" style="enable-background:new 0 0 500 500;" xml:space="preserve">
<path d="M255.4,12C171,12,102.6,80.4,102.6,164.8S171,317.5,255.4,317.5s152.8-68.4,152.8-152.8S339.7,12,255.4,12z M255.4,227.4
	c-55.2,0-99.9-44.7-99.9-99.9c0-55.2,44.7-99.9,99.9-99.9c55.2,0,99.9,44.7,99.9,99.9C355.2,182.7,310.5,227.4,255.4,227.4z"/>
<path d="M255.4,401c-111.5,0-204.4-79.8-224.6-185.5c-2.7,14-4.1,28.5-4.1,43.3c0,126.3,102.4,228.8,228.8,228.8
	s228.8-102.4,228.8-228.8c0-14.8-1.4-29.3-4.1-43.3C459.8,321.1,366.9,401,255.4,401z"/>
<path d="M255.4,379.5c-76.9,0-139.5-62.6-139.5-139.5c0-76.9,62.6-139.5,139.5-139.5S394.9,163.1,394.9,240
	C394.9,316.9,332.3,379.5,255.4,379.5z M255.4,121.5c-65.3,0-118.5,53.2-118.5,118.5c0,65.3,53.2,118.5,118.5,118.5
	c65.3,0,118.5-53.2,118.5-118.5C373.9,174.7,320.7,121.5,255.4,121.5z"/>
</svg>
