<?xml version="1.0" encoding="utf-8"?>
<!-- Generator: Adobe Illustrator 21.1.0, SVG Export Plug-In . SVG Version: 6.00 Build 0)  -->
<svg version="1.1" id="Layer_1" xmlns="http://www.w3.org/2000/svg" xmlns:xlink="http://www.w3.org/1999/xlink" x="0px" y="0px"
	 viewBox="0 0 500 500" style="enable-background:new 0 0 500 500;" xml:space="preserve">
<path d="M203.1,216.9l36.2-114L163,115l-33,96c0,0,0,0.1-0.1,0.1l0,0c-2.2,2.9-1.6,7,1.3,9.2l90.7,68.7l27.5-36.9L203.1,216.9z"/>
<polygon points="322.8,446.8 277.9,481.1 220.9,459.7 268.7,426.4 "/>
<polygon points="187,438.1 121.1,433.4 76.3,348.2 43.3,383.3 89.1,465.9 89,466 89.2,466 89.5,466.6 90,466.1 144.1,469 "/>
<polygon points="59.1,319.4 39.6,283.3 61.4,244.8 79.9,282.9 "/>
<polygon points="423.2,253.5 396.8,230.6 490.9,106.8 376.3,7.7 274,124 275,125.2 273.9,124.2 243.6,213.8 290.5,241.3 
	261.1,271.6 261.8,272 259.6,273.8 257,279.7 308.8,297.5 303,317 245.6,305.3 225.9,326.7 182.4,296.5 126.6,251.7 101,301.7 
	143.9,338.6 136.5,353.6 196.9,399.8 214,377.1 254.5,402 274.9,368.3 320.4,388.7 355.2,305.2 307,296.2 315,280 338.7,283.8 
	338.7,283.8 375.7,289.6 367,340 385,343 423.7,256 425,255 424.4,254.4 425,253 "/>
</svg>
