<?xml version="1.0" encoding="utf-8"?>
<!-- Generator: Adobe Illustrator 21.1.0, SVG Export Plug-In . SVG Version: 6.00 Build 0)  -->
<svg version="1.1" id="Layer_1" xmlns="http://www.w3.org/2000/svg" xmlns:xlink="http://www.w3.org/1999/xlink" x="0px" y="0px"
	 viewBox="0 0 500 500" style="enable-background:new 0 0 500 500;" xml:space="preserve">
<polygon points="197.1,182.1 246.3,25 301.1,182.9 "/>
<polygon points="341.8,184.2 368.8,112.9 433.8,72.7 413.3,147.4 "/>
<polygon points="47.1,79.4 117.3,113.3 152.5,183.3 82.4,149.1 "/>
<path d="M297.1,205.3l-47.7,133.9l-51-132.7c-84.3,14.4-150.9,62.5-171.9,123.7C51.7,403.8,141.9,462,250.5,462
	s191.3-63,225.9-131.8C454.9,267.1,385,218.1,297.1,205.3z M251.5,430.9c-85.3,0-162.8-42.5-182.6-100.3
	c16.3-36.3,56.9-70.9,108.7-88.7c-16.4,17.9-26.4,41.7-26.4,67.9c0,55.5,45,100.4,100.4,100.4c55.5,0,100.4-45,100.4-100.4
	c0-26.8-10.5-51.2-27.6-69.2c51.1,16.3,90,49.3,103.8,89.6C408.4,388,336.8,430.9,251.5,430.9z"/>
<polygon points="400.9,208.7 459.3,163.2 439.1,235.6 "/>
<polygon points="57.3,244.6 21,180 89.6,210.8 "/>
</svg>
