<?xml version="1.0" encoding="utf-8"?>
<!-- Generator: Adobe Illustrator 21.1.0, SVG Export Plug-In . SVG Version: 6.00 Build 0)  -->
<svg version="1.1" id="Layer_1" xmlns="http://www.w3.org/2000/svg" xmlns:xlink="http://www.w3.org/1999/xlink" x="0px" y="0px"
	 viewBox="0 0 500 500" style="enable-background:new 0 0 500 500;" xml:space="preserve">
<path d="M416.7,266.8l-28.4-32.8c-0.7-0.8-1.1-1.8-1.3-2.8c-5.7-46.8-10.7-83.3-18.5-112c-13.1-48.3-57.2-81.6-107.3-81.6h-10.9
	h-15.4h-10.8c-50.1,0-94.3,33.4-107.4,81.7c-7.8,28.7-12.8,65.1-18.5,111.9c-0.1,1-0.6,2-1.3,2.8l-28.4,32.8
	c-1.6,1.8-1.7,4.4-0.4,6.4l35.4,52.5c0.4,0.7,1,1.2,1.7,1.6l30.6,18.2c1.1,0.6,1.9,1.7,2.3,2.9l13.9,41.7c0.2,0.6,0.3,1.2,0.3,1.9
	l-2.2,60.3c-0.1,3,2.3,5.5,5.3,5.5h22.1c2.6,0,4.8-1.9,5.2-4.5l3-18.4c0.9-5.6,8.7-6.1,10.3-0.7l5.9,19.7c0.7,2.2,2.7,3.8,5.1,3.8
	h20.7c2.8,0,5.1-2.2,5.3-5l1.9-34.7h15.4l1.9,34.7c0.2,2.8,2.5,5,5.3,5h20.7c2.3,0,4.4-1.5,5.1-3.8l5.9-19.7
	c1.6-5.4,9.4-4.9,10.3,0.7l3,18.4c0.4,2.6,2.6,4.5,5.2,4.5h22.1c3,0,5.4-2.5,5.3-5.5l-2.2-60.3c0-0.6,0.1-1.3,0.3-1.9l13.9-41.7
	c0.4-1.2,1.2-2.2,2.3-2.9l30.6-18.2c0.7-0.4,1.3-0.9,1.7-1.6l35.4-52.5C418.4,271.3,418.3,268.6,416.7,266.8z M154.8,276.7
	c-2,0.3-4-0.6-5.2-2.2l-25.7-37.3c-1-1.4-1.2-3.2-0.6-4.8l12-32.8c0.9-2.5,3.5-3.9,6-3.4l50.7,10.4c1.9,0.4,3.4,1.8,4,3.6l15.3,48.2
	c0.8,2.5-0.3,5.2-2.7,6.4C197.5,269.9,165.2,275.2,154.8,276.7z M207.6,332.2l34.3-61.1c0.4-0.8,0.7-1.7,0.7-2.6v-97.2
	c0-0.2,0-0.4,0-0.5l0-0.2l0,0.2c0,0.2,0,0.4,0,0.5v97.2c0,0.9,0.2,1.8,0.7,2.6l34.3,61.1c1.5,2.7,0.4,5.7-1.9,7.1L243,322
	l-34.3,16.7C207,337.1,206.3,334.5,207.6,332.2z M361.3,237.2l-25.7,37.3c-1.2,1.7-3.2,2.5-5.2,2.2c-10.4-1.6-42.8-6.8-53.9-12
	c-2.4-1.1-3.5-3.8-2.7-6.3c3.1-9.8,12.3-38.9,15.3-48.2c0.6-1.8,2.1-3.2,4-3.6l50.7-10.4c2.6-0.5,5.1,0.9,6,3.4l12,32.8
	C362.5,234,362.3,235.8,361.3,237.2z"/>
</svg>
