<?xml version="1.0" encoding="utf-8"?>
<!-- Generator: Adobe Illustrator 21.1.0, SVG Export Plug-In . SVG Version: 6.00 Build 0)  -->
<svg version="1.1" id="Layer_1" xmlns="http://www.w3.org/2000/svg" xmlns:xlink="http://www.w3.org/1999/xlink" x="0px" y="0px"
	 viewBox="0 0 440 460" style="enable-background:new 0 0 440 460;" xml:space="preserve">
<title>95 - lane swap 2</title>
<path d="M211.7,251.2c20.2,0.4,40.1,3.7,59.3,10L260.2,317l119.1-39.9l-83.6-145.1L284.8,189c-21.7-8.1-44.5-12.5-67.7-12.9
	c-14.7-0.3-29.5,0.9-44,3.7l-8.8-49.6L68.4,248.8l127.3,57.3l-9.6-53.9C194.6,251.3,203.1,251,211.7,251.2z"/>
<path d="M411.3,289.9l-84.5,30.5l1.2,62.2c27.4-1.7,75.8-4.2,105-5.6c-4.3-109.8-10.1-260.4-10.1-262.8l-99.9-11l1.1,36.2
	L411.3,289.9z"/>
<polygon points="117.5,378.3 115,292.3 36.4,254 118.6,148.4 118.3,100.4 8.7,100.4 19.2,378.3 "/>
</svg>
