<?xml version="1.0" encoding="utf-8"?>
<!-- Generator: Adobe Illustrator 21.1.0, SVG Export Plug-In . SVG Version: 6.00 Build 0)  -->
<svg version="1.1" id="Layer_1" xmlns="http://www.w3.org/2000/svg" xmlns:xlink="http://www.w3.org/1999/xlink" x="0px" y="0px"
	 viewBox="0 0 500 500" style="enable-background:new 0 0 500 500;" xml:space="preserve">
<path d="M58,206c0,0,14-141.9,150-104c158,44,208,62,208,62s-110-10-110,112L58,206z"/>
<path d="M342,262c0,0-0.4-4.6,1.2-11.3C360,180,422,174,444,222L342,262z"/>
<g>
	<polygon points="452,254 342,294 346,444 456,396 	"/>
	<path d="M305.8,308.4L182,274.5V348l-38-10l3.3-73L56,240l-2,140l254,66C308.3,419.3,305.4,336.8,305.8,308.4z"/>
</g>
</svg>
