<?xml version="1.0" encoding="utf-8"?>
<!-- Generator: Adobe Illustrator 21.1.0, SVG Export Plug-In . SVG Version: 6.00 Build 0)  -->
<svg version="1.1" id="Layer_1" xmlns="http://www.w3.org/2000/svg" xmlns:xlink="http://www.w3.org/1999/xlink" x="0px" y="0px"
	 viewBox="0 0 500 500" style="enable-background:new 0 0 500 500;" xml:space="preserve">
<path d="M126,164c55.8-116.8,250-184.5,285.5,13c0.3,1.8,1.6,16.9,4.5,20.5c1.8,2.1,3.8-3.6,7.5-8.5c17.8-23.2,48.7-54.3,54.5-53
	c6.5,1.5-63.4,217.2-79,259.4c-0.7,1.9-3.6,1.5-3.7-0.5L391,342c0,0-10-134.5-45-197.2c-21.7-39-74.7-85-175.7,33.8
	c-0.5,0.6-1.3,0.8-2,0.6C168.3,179.2,125.5,165.1,126,164z"/>
<g>
	<polygon points="135.9,401 319.7,354.7 319.2,333.7 136.1,374 	"/>
	<polygon points="136.2,360.5 318.8,316.1 318.3,293.5 136.4,332.9 	"/>
	<polygon points="136.5,316.8 317.9,280.2 317.4,257 136.7,291.3 	"/>
	<polygon points="120.4,291 25,243.4 26,377.6 119,445 119.5,444.9 	"/>
	<polygon points="129.6,279.3 134.1,278.5 317,240.8 317,239.5 228,202 45.7,237.6 	"/>
	<polygon points="135.7,418.2 135.6,440.5 320.5,390.5 320,368.2 	"/>
</g>
</svg>
