<?xml version="1.0" encoding="utf-8"?>
<!-- Generator: Adobe Illustrator 21.1.0, SVG Export Plug-In . SVG Version: 6.00 Build 0)  -->
<svg version="1.1" id="Layer_1" xmlns="http://www.w3.org/2000/svg" xmlns:xlink="http://www.w3.org/1999/xlink" x="0px" y="0px"
	 viewBox="0 0 500 500" style="enable-background:new 0 0 500 500;" xml:space="preserve">
<path d="M312.1,378.2l-29.3-39.4l3.3-5.6l-40-47.8L215,334l-13-96l-48.7-63.6L85.6,74.3l-57.2,47.8C9.7,172.6,33.5,215,89.1,300.6
	l-0.8,44.2l59.3,17.1l34.5-5.6l35.9,22.2l36.8,47.5l3.1-26l-5.9-47l39.5,42.3L312.1,378.2z M151.8,300.4L107.2,288l-12.9-35.8
	l47.1-25.4l43.4,27.7C187.9,260.3,151.8,300.4,151.8,300.4z"/>
<path d="M472,371l-17.1-37.8l-15.5-39.3L451,261l-6.4-61.4l-43.6-7.1c-27.1-25.5-49.2-46.8-69-62.8c-39.1-31.6-95.8-28.7-131.6,6.8
	L194,143l71.5,90.3L320,296l99,33l-57,20l36.2,43.1l6.1-2.3l33.5,35.8L441,411l-15-46l46.8,31.4L472,371z M338.7,278.5l-19.5-47.7
	l33.3-41.8l33,19l4.3,46C389.8,254.1,343.9,282.5,338.7,278.5z"/>
<polygon points="134.4,35.9 124.8,79.6 155.6,112.1 167.2,67.8 "/>
<polygon points="220,19.6 203.1,61.1 228,98.4 246.9,56.7 "/>
<polygon points="310,27.8 288.2,57.6 300.6,92.4 324.1,62.8 "/>
<polygon points="378.4,473 388.1,429.2 357.3,396.7 345.7,441 "/>
<polygon points="292.8,489.2 309.7,447.7 284.9,410.4 266,452.1 "/>
<polygon points="202.9,480.9 224.7,451.1 212.2,416.3 188.8,445.9 "/>
</svg>
