<?xml version="1.0" encoding="utf-8"?>
<!-- Generator: Adobe Illustrator 21.1.0, SVG Export Plug-In . SVG Version: 6.00 Build 0)  -->
<svg version="1.1" id="Layer_1" xmlns="http://www.w3.org/2000/svg" xmlns:xlink="http://www.w3.org/1999/xlink" x="0px" y="0px"
	 viewBox="0 0 500 500" style="enable-background:new 0 0 500 500;" xml:space="preserve">
<polygon points="15,182.7 50.5,211.8 94.5,198.7 59.4,167.5 "/>
<polygon points="63.5,81.8 78.1,125.4 122.5,137.8 109.3,92.7 "/>
<polygon points="146.2,26.4 146.2,64.3 177.6,85.5 179.1,46.8 "/>
<polygon points="489.7,306.3 455.4,275.8 410.9,286.9 444.7,319.6 "/>
<polygon points="439.7,407.9 423.1,365 378.3,354.7 393.5,399.1 "/>
<polygon points="345,465.1 349.9,427.5 321.5,402.4 315,440.6 "/>
<path d="M378.2,221.4c-9.2-51.4-49.4-92-100.6-101.8l-25.8-75.5l-22.4,75.5c-51.7,10-92.2,51.4-100.8,103.5l-74.9,22.6l74.8,18
	c8.4,53.8,50.7,96.4,104.4,105.2l22.5,74.9l24.7-76c50.8-10.8,90.3-52,98.6-103.6l74.8-22L378.2,221.4z M287.4,270.5l-32.8,100.8
	l-30.8-102.5l-97.4-23.5l96.6-29.1l29.4-99.1l34.2,100l94.1,26L287.4,270.5z"/>
</svg>
