<?xml version="1.0" encoding="utf-8"?>
<!-- Generator: Adobe Illustrator 21.1.0, SVG Export Plug-In . SVG Version: 6.00 Build 0)  -->
<svg version="1.1" id="Layer_1" xmlns="http://www.w3.org/2000/svg" xmlns:xlink="http://www.w3.org/1999/xlink" x="0px" y="0px"
	 viewBox="0 0 500 500" style="enable-background:new 0 0 500 500;" xml:space="preserve">
<path d="M127,219.4c24.1-25.2,46.4-38.1,65.6-44.1l-15.2,65.2l13.1,8.4L303,95L157.8,28.2l-6.6,15.5l19,32
	c-70.9,22.9-138,77.4-157.2,136C-18.7,308.6,62.8,423.2,197,463C111.3,348,67.5,281.6,127,219.4z"/>
<path d="M302.2,26c85.7,115,129.5,181.4,70,243.6c-24.1,25.2-46.4,38.1-65.6,44.1l15.2-65.2l-13.1-8.4L196.2,394l145.2,66.8
	l6.6-15.5l-19-32c70.9-22.9,138-77.4,157.2-136C517.9,180.4,436.3,65.8,302.2,26z"/>
</svg>
