<?xml version="1.0" encoding="utf-8"?>
<!-- Generator: Adobe Illustrator 21.1.0, SVG Export Plug-In . SVG Version: 6.00 Build 0)  -->
<svg version="1.1" id="Layer_1" xmlns="http://www.w3.org/2000/svg" xmlns:xlink="http://www.w3.org/1999/xlink" x="0px" y="0px"
	 viewBox="0 0 500 500" style="enable-background:new 0 0 500 500;" xml:space="preserve">
<g>
	<path d="M255.8,182.3c64.5,0,121.1-33.5,153.5-83.9C370.6,58.1,316.1,33,255.8,33S141,58.1,102.3,98.4
		C134.7,148.8,191.3,182.3,255.8,182.3z"/>
	<path d="M466,211.5c-4.8-29.4-15.6-56.8-31.1-80.8c-40.3,55.2-105.5,91-179.1,91s-138.8-35.9-179.1-91
		c-15.5,24-26.3,51.4-31.1,80.8c53.9,53.6,128.2,86.7,210.2,86.7S412.1,265.1,466,211.5z"/>
	<path d="M43.9,267.8C54.8,375.2,145.5,459,255.8,459s201-83.8,211.9-191.2c-58.2,46.1-131.8,73.7-211.9,73.7
		S102.1,313.9,43.9,267.8z"/>
</g>
</svg>
