<?xml version="1.0" encoding="utf-8"?>
<!-- Generator: Adobe Illustrator 21.1.0, SVG Export Plug-In . SVG Version: 6.00 Build 0)  -->
<svg version="1.1" id="Layer_1" xmlns="http://www.w3.org/2000/svg" xmlns:xlink="http://www.w3.org/1999/xlink" x="0px" y="0px"
	 viewBox="0 0 500 500" style="enable-background:new 0 0 500 500;" xml:space="preserve">
<path d="M456,230l12-92l-37-51.7l-85.1,59.1L264.3,26L160.2,228.2l-57.9-60.3c0,0-77.9,84.6-80.3,88.1l14.4,40.3l-0.4,0.1l5,12.9
	L52,340l1.1,0.1l29,74.3l28-10.9l-23.2-59.5l27.4,3.2L154,449.4l28-10.9l-34-87.3l30.9,3.6L218,455.4l28-10.9l-34.6-88.8l24.9-10.6
	L280,457.4l28-10.9l-44.1-113.3l32.5-13.9l51.7,134l28-10.8l-52-135l32.2-13.7L408,429.4l28-10.7l-52.3-136.6l28-12l24.2,63.3
	l28-10.7l-28.4-74.1L456,230z"/>
</svg>
