<?xml version="1.0" encoding="utf-8"?>
<!-- Generator: Adobe Illustrator 21.1.0, SVG Export Plug-In . SVG Version: 6.00 Build 0)  -->
<svg version="1.1" id="Layer_1" xmlns="http://www.w3.org/2000/svg" xmlns:xlink="http://www.w3.org/1999/xlink" x="0px" y="0px"
	 viewBox="0 0 500 500" style="enable-background:new 0 0 500 500;" xml:space="preserve">
<path d="M372,246.9c-3.5,1.2-23.4,42.1-23.4,42.1l31.6,52.7l42.1-55L372,246.9z"/>
<path d="M319.2,290l36.3-64.4l-230.5-49l-16.4,44.5l30.4,21.1l-55,93.6l48,14l-14,39.8l8.2,44.5l26.9,35.1
	c0,0,129.9-25.8,133.4-25.8s78.4-76.1,78.4-76.1L319.2,290z M216.3,279.6l-23.4-26.9l32.7-9.3l34,23.4L216.3,279.6z"/>
<path d="M425.8,47.9L195.2,23.3L84,84.2l37.5,63.2l25.5,7c-3-24.6-8-76.1-8-76.1l53.8,9.4l2.1,79.7L387.2,220c0,0,71.4-27,74.9-29.3
	C465.6,188.4,425.8,47.9,425.8,47.9z"/>
</svg>
