<svg id="Layer_1" data-name="Layer 1" xmlns="http://www.w3.org/2000/svg" viewBox="0 0 803.79 933"><title>regenerate v2</title><path d="M709.58,407.45c28,31.95,44.48,70.63,44.48,112.33,0,109.67-113.57,198.57-253.66,198.57s-253.66-88.9-253.66-198.57c0-41.69,16.43-80.38,44.48-112.33C175.65,452.3,98.5,533.19,98.5,625.53c0,141,179.94,255.35,401.9,255.35s401.9-114.32,401.9-255.35C902.29,533.19,825.15,452.3,709.58,407.45Z" transform="translate(-98.5 -22)"/><ellipse cx="401.9" cy="912.6" rx="359.06" ry="20.4"/><path d="M500.67,22s-161,324.92-161,430.46,72,191.09,160.76,191.09S661.15,558,661.15,452.46,500.67,22,500.67,22Zm-.27,508.66a56.44,56.44,0,1,1,56.44-56.44A56.44,56.44,0,0,1,500.4,530.66Z" transform="translate(-98.5 -22)"/></svg>