<?xml version="1.0" encoding="utf-8"?>
<!-- Generator: Adobe Illustrator 21.1.0, SVG Export Plug-In . SVG Version: 6.00 Build 0)  -->
<svg version="1.1" id="Layer_1" xmlns="http://www.w3.org/2000/svg" xmlns:xlink="http://www.w3.org/1999/xlink" x="0px" y="0px"
	 viewBox="0 0 500 500" style="enable-background:new 0 0 500 500;" xml:space="preserve">
<image style="overflow:visible;" width="188" height="300" xlink:href="87A3D4AB.jpg"  transform="matrix(0.24 0 0 0.24 -7894 -7770.1099)">
</image>
<path d="M340,251.9c1-3,58-51,58-51l59,49l-60,54L340,251.9z"/>
<polyline points="327,346.9 245,434.9 160,353.9 226.4,296.3 194.2,268.8 96,355.9 252,492.9 392,346.9 247,221.9 210,245.9 
	245,279.9 "/>
<g>
	<path d="M391,149.9L244.5,10.8L98.2,154.7l-4.2,2.2l258,211l3-10l-91.6-84.1L391,149.9z M241,70.9l85,79l-79,72l-83-70L241,70.9z"
		/>
	<polygon points="42,254.9 99,304.9 149,255.9 99,204.9 	"/>
</g>
</svg>
