<?xml version="1.0" encoding="utf-8"?>
<!-- Generator: Adobe Illustrator 21.1.0, SVG Export Plug-In . SVG Version: 6.00 Build 0)  -->
<svg version="1.1" id="Layer_1" xmlns="http://www.w3.org/2000/svg" xmlns:xlink="http://www.w3.org/1999/xlink" x="0px" y="0px"
	 viewBox="0 0 500 500" style="enable-background:new 0 0 500 500;" xml:space="preserve">
<image style="overflow:visible;" width="188" height="300" xlink:href="2641F535.jpg"  transform="matrix(0.24 0 0 0.24 -7894 -7770.1099)">
</image>
<path d="M431.1,232.9l12.6-50.7L426.3,105L270.2,25.9L146.9,68.7L68,177.3l19.2,41.8l-36.4,62.4l41.5,6.2l12.4,38.4l30.1,8.5
	c0,0-5.6,44.6-6.3,49.6s64,74.3,64,74.3l110.9,20.6l-0.4-2.3l0.6,0.2l4.5-41.7c-0.6-3.4,16.1-29.4,27.6-46.6l61.4,6.8l-9.9-104.8
	l25.9-66.3L431.1,232.9z M358.6,266.6l-13.3-46.7l-29.6,1.7l10.9,47.1l-50.6-3.1l-6.7,29.6l84.7-1.6l9.4,66l-83.7-7l-59.4,34.7
	l19.8,20.4c4.4-6.6,49-27,49-27l18.8,4.7l-24.1,42.7l-2.5,16.9l-66.6-12.1l-52.7-55.1l5.2-67.4l-21.6-3.2l-12.6-40.9l19.4-39.5
	l60.5,3.9l59.9-72.5l106.3,49.9L358.6,266.6z"/>
</svg>
