<?xml version="1.0" encoding="utf-8"?>
<!-- Generator: Adobe Illustrator 21.1.0, SVG Export Plug-In . SVG Version: 6.00 Build 0)  -->
<svg version="1.1" id="Layer_1" xmlns="http://www.w3.org/2000/svg" xmlns:xlink="http://www.w3.org/1999/xlink" x="0px" y="0px"
	 viewBox="0 0 500 500" style="enable-background:new 0 0 500 500;" xml:space="preserve">
<image style="overflow:visible;" width="188" height="300" xlink:href="5D073494.jpg"  transform="matrix(0.24 0 0 0.24 -7894 -7770.1099)">
</image>
<polygon points="119.9,357 126.1,257.5 204.8,242 238.3,324.5 315.1,318 299.8,399 221.1,493.8 161.2,415.7 "/>
<polygon points="294.5,262.9 384,222.8 369.2,285.9 "/>
<polygon points="337.2,302.9 378.1,380.6 401,348.7 "/>
<path d="M252.9,18.4L62,91.9l48.2,156l68.2-55.8l62,62l68.2-37.2L252.9,18.4z M192,68.9l28-11l56,153l-24,11L192,68.9z"/>
</svg>
