<?xml version="1.0" encoding="utf-8"?>
<!-- Generator: Adobe Illustrator 21.1.0, SVG Export Plug-In . SVG Version: 6.00 Build 0)  -->
<svg version="1.1" id="Layer_1" xmlns="http://www.w3.org/2000/svg" xmlns:xlink="http://www.w3.org/1999/xlink" x="0px" y="0px"
	 viewBox="0 0 500 500" style="enable-background:new 0 0 500 500;" xml:space="preserve">
<path d="M403.7,350.1c-31.4,11-57.6-32.3-76.5-64.4c4.9-2.1,9.6-4.1,13.8-5.7c54.9-21.4,112.4-67.3,110.5-126.2
	c-1.8-54-61.9-89.9-65.6-88.2c-18.9,8.7,66,88.5-24.9,134.7c-13.1,6.6-25.2,9.4-36.4,10.3c-3.8-45.8-5.1-96.5-27.6-122.1
	c-36.9-42.1-276.1-65.8-74.6,9c27.2,10.1,27.1,50.1,23.9,84.7c-52.5-26.7-140.5-42.7-183.2-3C23.6,216,36.2,285,39.8,286.6
	c19,8.5,23.2-107.9,117.9-69.8c18.5,7.4,28,18.3,34.1,29.2c-16.5,21.5-30.3,46.7-42.4,75c-8.3,19.4-9.4,49.1-1.6,68.6
	c20.5,51.6,107.3,107.5,121.4,87.8c7-9.8-72.1-58.9-59.4-109.5c6.5-25.8,21.1-42.6,35.4-54.8c36.3,34.9,67.9,85.3,106.7,91.5
	C407.2,413.4,606.5,279.1,403.7,350.1z"/>
</svg>
