<svg width="19" height="19" viewBox="0 0 19 19" fill="none" xmlns="http://www.w3.org/2000/svg">
<g id="Decklist_v002" clip-path="url(#clip0_1101_637)">
<g id="Decks Button">
<path id="Vector" d="M18.4548 0H0.545194C0.244092 0 0 0.234277 0 0.523272V4.87166C0 5.16066 0.244092 5.39493 0.545194 5.39493H18.4548C18.7559 5.39493 19 5.16066 19 4.87166V0.523272C19 0.234277 18.7559 0 18.4548 0Z" fill="#D82026"/>
<path id="Vector_2" d="M18.4548 6.80252H0.545194C0.244092 6.80252 0 7.0368 0 7.32579V11.6742C0 11.9632 0.244092 12.1975 0.545194 12.1975H18.4548C18.7559 12.1975 19 11.9632 19 11.6742V7.32579C19 7.0368 18.7559 6.80252 18.4548 6.80252Z" fill="#D82026"/>
<path id="Vector_3" d="M18.4548 13.6051H0.545194C0.244092 13.6051 0 13.8393 0 14.1283V18.4767C0 18.7657 0.244092 19 0.545194 19H18.4548C18.7559 19 19 18.7657 19 18.4767V14.1283C19 13.8393 18.7559 13.6051 18.4548 13.6051Z" fill="#D82026"/>
</g>
</g>
<defs>
<clipPath id="clip0_1101_637">
<rect width="19" height="19" fill="white"/>
</clipPath>
</defs>
</svg>
