<?xml version="1.0" encoding="utf-8"?>
<!-- Generator: Adobe Illustrator 21.1.0, SVG Export Plug-In . SVG Version: 6.00 Build 0)  -->
<svg version="1.1" id="Layer_1" xmlns="http://www.w3.org/2000/svg" xmlns:xlink="http://www.w3.org/1999/xlink" x="0px" y="0px"
	 viewBox="0 0 1000 1000" style="enable-background:new 0 0 1000 1000;" xml:space="preserve">
<style type="text/css">
	.st0{fill:url(#SVGID_1_);}
	.st1{fill:url(#SVGID_2_);}
</style>
<g>
	
		<linearGradient id="SVGID_1_" gradientUnits="userSpaceOnUse" x1="585.8523" y1="11.4717" x2="413.1477" y2="990.9283" gradientTransform="matrix(1 0 0 -1 0 1002)">
		<stop  offset="0" style="stop-color:#D36BE3"/>
		<stop  offset="4.867221e-02" style="stop-color:#C25CDE"/>
		<stop  offset="0.1388" style="stop-color:#A745D5"/>
		<stop  offset="0.1919" style="stop-color:#9D3CD2"/>
		<stop  offset="0.4022" style="stop-color:#A543D5"/>
		<stop  offset="0.7338" style="stop-color:#BC57DC"/>
		<stop  offset="1" style="stop-color:#D36BE3"/>
	</linearGradient>
	<circle class="st0" cx="499.5" cy="500.8" r="497.2"/>
</g>
<linearGradient id="SVGID_2_" gradientUnits="userSpaceOnUse" x1="519.1183" y1="850.8357" x2="519.1183" y2="186.1716" gradientTransform="matrix(1 0 0 -1 0 1002)">
	<stop  offset="0" style="stop-color:#5D226C"/>
	<stop  offset="0.5085" style="stop-color:#511E5E"/>
	<stop  offset="1" style="stop-color:#4A1C56"/>
</linearGradient>
<path class="st1" d="M229.4,454.8c-4.5,1.1-7.7,2.7-10.9,2.6c-14.9-0.9-27.5,5.2-39.5,12.8c-0.5,0.2-0.9,0.6-1.2,1
	c-7.6,4.8-18.7,4.4-24.2-0.7c-3.6-3.3-4.2-15.2-1.5-21.7c13.7-32.5,38.3-53.3,70.7-65.6c8.6-3.2,16.8-7.5,25.5-9.8
	c20.5-5.6,34.4-20.6,50-33.4c15.1-12.4,30.4-24.6,45.3-37.1c20.1-16.9,43.2-28,67.9-36.3c3.9-1.4,8.1-2.1,12-3.3
	c1.6-0.5,3.1-1.4,4.7-2.1c-1.1-1.4-2-2.8-3.3-3.8c-11.5-8.8-23.7-17.1-34.7-26.5c-16.2-14-27-31.7-26.9-53.5
	c0.1-19.4,10.4-27.6,28.2-21.1c7.4,2.7,13.7,8.2,20.3,12.9c11.3,8,21.5,18.3,33.9,23.8c16.9,7.5,35.2,12.8,53.5,16.3
	c35.8,7,71.9,11.9,107.9,18.3c31.8,5.5,59.8,17.7,82.1,42.8c26.3,29.7,51.7,59.5,66.3,96.9c9.8,25,17.9,50.7,13.4,78.4
	c22.2-5,40.9-14.7,55.9-31.7c9.2-10.4,19.6-19.9,30.6-28.4c12.3-9.5,27-1.6,30.7,10.4c2.6,8.5,2.2,16.9,0.6,25.9
	c-3.4,20.3-12.8,37.7-25.7,52.5c-8.7,9.9-21,16.9-32.2,24.6c-30.4,20.4-48.4,48.9-57.1,83.8c-5,19.9-12.6,38.8-27,53.9
	c-6,6.3-13.7,11.2-21.2,15.7c-9.6,5.9-9.9,6.5-3.2,15.8c3.4,4.5,5.6,11.5,10.1,13.5c9.2,4.2,19.4,7,29.3,8.1c9.8,1.1,20.3-2,29,4.9
	c9.1,7,7.1,19.2-2.1,25.7c-13.3,9.3-28.6,12.6-43.7,15.5c-18,3.3-36-0.6-52.1-9.9c-24.1-14-49.4-23.4-77.6-23.7
	c-38.7-0.4-76.2-7.9-112.8-20c-12.5-4.2-26.5-7.9-36.2-16.1c-18.2-15.2-35.2-31.8-38.1-58.6c-2.2-21.4-3.6-41.9,4.4-62.2
	c6-15.3,21.2-26.9,37.9-26.5c9,0.2,18.3,1.2,26.6,4.3c19.2,7.1,24.4,19.5,18.4,39.2c-1.1,3.4-2.7,7-2.9,10.4
	c-1.1,15.8,6.3,23.8,22.2,24.7c30.7,1.7,48.7-10.3,64-36.7c28.6-49.5-3.3-107.1-41.9-125.6c-14.5-7-29-11.5-45.2-10.3
	c-20.5,1.6-41.1,2.6-61.6,5.2c-20.9,2.6-36.5,15.6-52.2,28.2c-26.6,21.4-41.4,50.5-52.2,81.3c-12.9,37-5.8,72.4,12.4,106.9
	c13.4,25.3,34.6,40.3,58.1,53.9c17.8,10.3,36.6,18.8,50.6,35c14.6,16.9,25.4,34.1,23,58.2c-2,19.4-17.4,30.7-34.9,22.2
	c-2.7-1.2-5.6-3.6-6.6-6.1c-5.2-13-14.9-22-25.3-30.3c-19.5-15.7-42.6-23.8-66.7-29.5c-3.4-0.9-6.9-2.3-10.1-4.1
	c-11-6.3-22-12.9-33-19.4c-10.8,17.7-12.3,37.3-10.6,57.5c1,11-3.6,20.9-13,25.9c-5.2,2.7-13.7,0-17.9-5.6
	c-13.1-17.4-18.8-37.3-21.9-58.7c-4.9-34.3-10.3-68.6-16.9-102.6c-3.4-17.8-10.3-35-15.1-52.5c-9-32.4-7.2-64.6,2.9-96.5
	C223.3,481,226,468,229.4,454.8z"/>
</svg>
