<?xml version="1.0" encoding="utf-8"?>
<!-- Generator: Adobe Illustrator 21.1.0, SVG Export Plug-In . SVG Version: 6.00 Build 0)  -->
<svg version="1.1" id="Layer_1" xmlns="http://www.w3.org/2000/svg" xmlns:xlink="http://www.w3.org/1999/xlink" x="0px" y="0px"
	 viewBox="0 0 1000 1000" style="enable-background:new 0 0 1000 1000;" xml:space="preserve">
<style type="text/css">
	.st0{fill:url(#SVGID_1_);}
	.st1{fill:url(#SVGID_2_);}
	.st2{fill:url(#SVGID_3_);}
</style>
<g>
	
		<linearGradient id="SVGID_1_" gradientUnits="userSpaceOnUse" x1="585.9871" y1="10.3947" x2="413.213" y2="990.2452" gradientTransform="matrix(1 0 0 -1 0 1000.72)">
		<stop  offset="0" style="stop-color:#51DADF"/>
		<stop  offset="8.120804e-02" style="stop-color:#4BB3D4"/>
		<stop  offset="0.1509" style="stop-color:#4798CC"/>
		<stop  offset="0.1919" style="stop-color:#458EC9"/>
		<stop  offset="0.3563" style="stop-color:#4696CB"/>
		<stop  offset="0.6164" style="stop-color:#4AADD2"/>
		<stop  offset="0.938" style="stop-color:#50D2DD"/>
		<stop  offset="1" style="stop-color:#51DADF"/>
	</linearGradient>
	<circle class="st0" cx="499.6" cy="500.4" r="497.4"/>
</g>
<g>
	
		<linearGradient id="SVGID_2_" gradientUnits="userSpaceOnUse" x1="499.5385" y1="121.9275" x2="499.5385" y2="878.5896" gradientTransform="matrix(1 0 0 -1 0 1000.72)">
		<stop  offset="0" style="stop-color:#2E2152"/>
		<stop  offset="0.2448" style="stop-color:#262461"/>
		<stop  offset="0.7053" style="stop-color:#1A2877"/>
		<stop  offset="1" style="stop-color:#16297F"/>
	</linearGradient>
	<path class="st1" d="M739.3,310.3c-60.7,0-110,49.4-110,110c0,51.2,35.1,94.3,82.7,106.6l-1.1,200.9l-180.5,79.3V338.9
		c47.8-12,83.1-55.3,83.1-106.7c0-60.7-49.4-110-110-110s-110,49.4-110,110c0,51.2,35.1,94.3,82.5,106.6v468.5L292,726.7l-3.9-199.9
		c47-12.5,81.7-55.5,81.7-106.4c0-60.7-49.4-110-110-110s-110,49.4-110,110c0,51.7,35.9,95.2,84,107l4.5,235.2l264.9,116.2
		L765,763.7l1.4-236.5c47.7-12,83-55.4,83-106.7C849.4,359.7,800,310.3,739.3,310.3z M204.2,420.3c0-30.7,24.9-55.6,55.6-55.6
		s55.6,24.9,55.6,55.6S290.6,476,259.9,476S204.2,451,204.2,420.3z M447.8,232.2c0-30.7,24.9-55.6,55.6-55.6s55.6,24.9,55.6,55.6
		s-24.9,55.6-55.6,55.6S447.8,262.9,447.8,232.2z M739.3,476c-30.7,0-55.6-24.9-55.6-55.6s24.9-55.6,55.6-55.6
		c30.7,0,55.6,24.9,55.6,55.6S770,476,739.3,476z"/>
	
		<linearGradient id="SVGID_3_" gradientUnits="userSpaceOnUse" x1="499.5385" y1="108.5147" x2="499.5385" y2="890.8714" gradientTransform="matrix(1 0 0 -1 0 1000.72)">
		<stop  offset="0" style="stop-color:#2E2152"/>
		<stop  offset="0.2448" style="stop-color:#262461"/>
		<stop  offset="0.7053" style="stop-color:#1A2877"/>
		<stop  offset="1" style="stop-color:#16297F"/>
	</linearGradient>
	<path class="st2" d="M503.2,892.2l-277-121.5l-4.5-234c-22.5-7.4-42.7-21.5-57.6-40.2c-17.2-21.6-26.6-48.6-26.6-76.1
		c0-67.4,54.9-122.3,122.3-122.3S382.1,353,382.1,420.4c0,52.1-33.1,98.2-81.5,115.3l3.6,182.9l159.4,69.9V347.9
		c-49-16.9-82.5-63.2-82.5-115.7c0-67.4,54.9-122.3,122.3-122.3c67.4,0,122.3,54.9,122.3,122.3c0,52.9-33.7,99.3-83.1,115.9v440.3
		l156-68.6l1-183.8c-49.1-16.9-82.6-63.2-82.6-115.7c0-67.4,54.9-122.3,122.3-122.3c67.4,0,122.3,54.9,122.3,122.4
		c0,52.9-33.7,99.3-83.1,115.9l-1.3,235.4L503.2,892.2z M250.4,754.5l252.8,110.9l249.6-109.7l1.4-238.1l9.2-2.3
		c43.4-11,73.7-50,73.7-94.8c0-54-43.9-97.9-97.8-97.9c-53.9,0-97.8,43.9-97.8,97.8c0,44.6,30.2,83.5,73.4,94.7l9.3,2.4l-1.2,218.5
		L518,826V329.3l9.3-2.3c43.5-11,73.9-49.9,73.9-94.8c0-53.9-43.9-97.8-97.8-97.8c-53.9,0-97.8,43.9-97.8,97.8
		c0,44.6,30.2,83.5,73.3,94.7l9.2,2.4v496.8l-208.3-91.3l-4.3-217.4l9.3-2.5c42.7-11.4,72.6-50.2,72.6-94.5
		c0-53.9-43.9-97.8-97.8-97.8S162,366.5,162,420.4c0,45.2,30.7,84.3,74.6,95l9.2,2.2L250.4,754.5z M739.3,488.2
		c-37.5,0-67.9-30.5-67.9-67.9s30.5-67.9,67.9-67.9c37.4,0,67.9,30.5,67.9,67.9S776.8,488.2,739.3,488.2z M739.3,377
		c-23.9,0-43.4,19.4-43.4,43.4c0,23.9,19.4,43.4,43.4,43.4c23.9,0,43.4-19.4,43.4-43.4C782.7,396.4,763.2,377,739.3,377z
		 M259.9,488.2c-37.4,0-67.9-30.5-67.9-67.9s30.5-67.9,67.9-67.9s67.9,30.5,67.9,67.9S297.3,488.2,259.9,488.2z M259.9,377
		c-23.9,0-43.4,19.4-43.4,43.4c0,23.9,19.4,43.4,43.4,43.4c23.9,0,43.4-19.4,43.4-43.4C303.2,396.4,283.8,377,259.9,377z
		 M503.4,300.1c-37.4,0-67.9-30.5-67.9-67.9c0-37.4,30.5-67.9,67.9-67.9s67.9,30.5,67.9,67.9C571.3,269.6,540.9,300.1,503.4,300.1z
		 M503.4,188.8c-23.9,0-43.4,19.4-43.4,43.4c0,23.9,19.4,43.4,43.4,43.4c23.9,0,43.4-19.4,43.4-43.4
		C546.8,208.3,527.3,188.8,503.4,188.8z"/>
</g>
</svg>
