<?xml version="1.0" encoding="utf-8"?>
<!-- Generator: Adobe Illustrator 21.1.0, SVG Export Plug-In . SVG Version: 6.00 Build 0)  -->
<svg version="1.1" id="Layer_1" xmlns="http://www.w3.org/2000/svg" xmlns:xlink="http://www.w3.org/1999/xlink" x="0px" y="0px"
	 viewBox="0 0 500 500" style="enable-background:new 0 0 500 500;" xml:space="preserve">
<path d="M81,459c62-98,176-260,176-260l174,257L81,459z"/>
<path d="M418.5,156.4L443,97.8l-64.7,16.9c-23.4-18.7-50.1-32.5-77.6-39.8L262.7,5.5L227,71.7c-29.3,5.3-58,17.9-83.2,36.2L91,80
	l10.3,68.2C74.2,181.8,57,223.6,57,269c0,13.1,1.3,26,3.7,38.4C78.6,215.4,167,132.7,250,130c124-4,191,105,203.3,177.4
	c2.4-12.4,3.7-25.3,3.7-38.4C457,227.3,442.1,188.5,418.5,156.4z"/>
</svg>
