<svg xmlns="http://www.w3.org/2000/svg" width="2560" height="4000"><defs><clipPath clipPathUnits="userSpaceOnUse" id="E"><path d="M0 520h1920v4480H0z"/></clipPath><clipPath clipPathUnits="userSpaceOnUse" id="F"><path d="M-1189.65 6136.78h6613.36V86.58h-6613.36z"/></clipPath><clipPath clipPathUnits="userSpaceOnUse" id="a"><path d="M397.06 4644.85h1074.72v-171.84H397.06z"/></clipPath><clipPath clipPathUnits="userSpaceOnUse" id="b"><path d="M244.84 3848.14H994.6V3525.1H244.84z"/></clipPath><clipPath clipPathUnits="userSpaceOnUse" id="c"><path d="M974.28 2868.6h921.6v-114.24h-921.6z"/></clipPath><clipPath clipPathUnits="userSpaceOnUse" id="d"><path d="M1134.62 1986.47h640.32v-287.04h-640.32z"/></clipPath><clipPath clipPathUnits="userSpaceOnUse" id="e"><path d="M257.3 2123.47h489.13v-229.44H257.3z"/></clipPath><clipPath clipPathUnits="userSpaceOnUse" id="f"><path d="M823.67 4886.92h179.04v-29.28H823.67z"/></clipPath><clipPath clipPathUnits="userSpaceOnUse" id="g"><path d="M1023.85 4885.42h113.28v-29.28h-113.28z"/></clipPath><clipPath clipPathUnits="userSpaceOnUse" id="h"><path d="M1162.81 4885.42h168.48v-29.28h-168.48z"/></clipPath><clipPath clipPathUnits="userSpaceOnUse" id="i"><path d="M655.85 4886.92h149.28v-29.28H655.85z"/></clipPath><clipPath clipPathUnits="userSpaceOnUse" id="j"><path d="M1363.65 4885.42h136.8v-29.28h-136.8z"/></clipPath><clipPath clipPathUnits="userSpaceOnUse" id="k"><path d="M248.66 1258.06h437.76v-34.08H248.66z"/></clipPath><clipPath clipPathUnits="userSpaceOnUse" id="l"><path d="M1189.47 1258.06h481.44v-24.96h-481.44z"/></clipPath><clipPath clipPathUnits="userSpaceOnUse" id="m"><path d="M1234.75 4079.37h728.9V3072.39h-728.9z"/></clipPath><clipPath clipPathUnits="userSpaceOnUse" id="n"><path d="M266.89 3167.78H804v-767.52H266.89z"/></clipPath><clipPath clipPathUnits="userSpaceOnUse" id="o"><path d="M249.3 1092.47h699.84v-64.32H249.28z"/></clipPath><clipPath clipPathUnits="userSpaceOnUse" id="p"><path d="M974.28 1092.47h706.08V863.03H974.29z"/></clipPath><clipPath clipPathUnits="userSpaceOnUse" id="q"><path d="M249.3 358.14h1424.63v-64.32H249.3z"/></clipPath><clipPath clipPathUnits="userSpaceOnUse" id="r"><path d="M249.3 950.6h699.84v-64.32H249.28z"/></clipPath><clipPath clipPathUnits="userSpaceOnUse" id="s"><path d="M249.3 809.6h699.84v-64.32H249.28z"/></clipPath><clipPath clipPathUnits="userSpaceOnUse" id="t"><path d="M249.3 669.6h699.84v-64.32H249.28z"/></clipPath><clipPath clipPathUnits="userSpaceOnUse" id="u"><path d="M249.3 528.6h699.83v-64.32H249.3z"/></clipPath><clipPath clipPathUnits="userSpaceOnUse" id="v"><path d="M249.15 1037.69h698.4v-60.48h-698.4z"/></clipPath><clipPath clipPathUnits="userSpaceOnUse" id="w"><path d="M249.15 303.37h1449.6V43.68H249.15z"/></clipPath><clipPath clipPathUnits="userSpaceOnUse" id="x"><path d="M249.15 895.83h698.4v-60.48h-698.4z"/></clipPath><clipPath clipPathUnits="userSpaceOnUse" id="y"><path d="M249.15 754.83h698.4v-60.48h-698.4z"/></clipPath><clipPath clipPathUnits="userSpaceOnUse" id="z"><path d="M249.15 614.83h698.4v-60.48h-698.4z"/></clipPath><clipPath clipPathUnits="userSpaceOnUse" id="A"><path d="M249.15 473.83h318.72v-29.28H249.15z"/></clipPath><clipPath clipPathUnits="userSpaceOnUse" id="B"><path d="M976.83 824h374.88V695.36H976.83z"/></clipPath><clipPath clipPathUnits="userSpaceOnUse" id="C"><path d="M1420.16 820.91h265.91v-110.4h-265.91z"/></clipPath><clipPath clipPathUnits="userSpaceOnUse" id="D"><path d="M199.05 4989.99h987.36v-24.96H199.05z"/></clipPath></defs><path d="M0 1.33v4126.83h2560V1.33H0z" fill="#ff5959"/><g clip-path="url(#E)" transform="matrix(1.33333 0 0 -1.33333 0 6668)"><g clip-path="url(#F)"><path d="M5254.67 6135.78l-1830-432.32-633.65-467.3c-177.13-77.66-363.53-150.77-547.08-246.76-30.6-15.73-60.8-33.52-91.2-50.25-30.24-17.37-59.9-36.67-89.83-55-29.55-19.35-58.46-40.3-87.65-60.49a3386.96 3386.96 0 01-83.9-65.76c-106.87-89.42-201.51-188.33-289.08-288.9-61.9-20.16-120.83-44.96-176.5-72.69-74.74-36.86-143.66-80.2-205.63-125.01-124.53-89.89-223.96-186.93-304.15-272.49-79.97-85.97-141.31-160.84-186.07-215.64a1875.06 1875.06 0 01-32.53-42.53c-25.06-33.08-51.48-70.96-74.19-116.29a496.86 496.86 0 01-29.67-73.03c-8.05-25.47-13.42-50.22-17.61-73.79-8.25-47.22-11.57-89.3-16.4-125.35-4.75-35.08-11.35-68.37-20.61-101.7-18.3-66.27-45.87-128.96-78.8-184.23-33.17-55.74-70.2-102.18-110.44-144.58-71.37-79.55-165.36-158.3-248.73-257.31 45.19 39.86 88.69 70.7 126.02 96.43-46.78-39.67-94.03-82.42-130.77-123.5-36.9-40.84-62.31-77.52-74.39-99-36.7-57.29-53.97-94.29-61.84-114.8-7.92-20.5-5.57-25 2.03-19.56 15.54 10.8 55.15 60.14 93 94.76 24.53 26.72 25.9 17.65 29.75 13.31 1.98-2.25 4.75-3.48 11.64.94 6.91 4.4 17.68 14.68 37.03 34.13-42-51-64.43-82.6-94.82-131.67a827.84 827.84 0 01-63.26-37.37c-73.48-47.63-138.1-103.1-200.9-159.2-52.16-49.55-104.14-103.04-147.24-164.88-21.44-30.9-40.7-63.82-55.56-98.84-14.99-34.86-25.45-72.18-31.68-107.24-10.34-52.05-15.23-105.44-27.08-155.46-5.33-25.04-15.73-48.17-24.55-72.31-11.9-22.8-22.99-46.2-38.73-67.22-29.67-42.88-65.97-81.83-105.86-115.55-39.38-34.15-80.3-64.7-119.68-92.36 10.4-1.92-4.52-21.56-32.93-48.78-28.13-27.32-69.34-62.6-108.03-97.39-38.43-35.23-74.22-70.05-92.85-95.03-18.9-24.76-22.85-37.22-.24-28.02-12.29-9.97-23.9-21.76-36.25-33.61-12.68-11.64-24.33-24.56-36.01-37.5a645.84 645.84 0 01-59.89-81.93c-32.45-54.33-48.73-100.92-46.27-106.9 3.44-9.11 5.37-21.88 6.23-40.75.17-9.33.12-20.19-.01-32.88l-1.52-43.48c-.96-32.94-2.42-74.18-.1-125.82 2.57-51.51 9.06-113.79 27.87-185.6 7.05-28.12 15.6-59.7 26.52-91.2a679.38 679.38 0 0139.24-90.46c28.78-56.24 64-96.99 79.05-109.85 14.34-12.28 14.9-9.62 8.55.52l-11.16 17.67a338.97 338.97 0 00-13.87 21.91c-18.85 30.67-33.15 63.18-13.2 40.38-25.55 38.07-46.04 79.7-61.95 123.33 84.76 11.14 410.29 46.73 870.74 95.94v1509.36h2452.78V654.12C3828.54 822.44 5412.94 987.07 5421.53 988.9c17.56 3.74-166.86 5146.88-166.86 5146.88zM136.15 2542.84c1.5.19 1.14-2.36-1.68-8.34-29.1-32.01-54.92-70.37-78.84-110.23-4-2.03-7.96-4.13-11.92-6.21 10.93 17.5 24.6 39.4 38.8 59.6 23.95 34.83 48.73 64.59 53.64 65.18zm17.85-6.76l-8.2-15.83c-17.1-19.96-42.3-48.65-64.07-78.67-1.77-2.4-3.44-4.78-5.16-7.18-1.76-.83-3.53-1.64-5.28-2.48 4.96 7.36 10 14.72 15.12 21.9 26.55 38.08 54.59 71.04 67.59 82.26zm-62.2-92.73c-.55-.85-1.05-1.68-1.59-2.53l-.26-.12c.61.87 1.25 1.82 1.84 2.65z" fill="#ffacac"/></g><g><path d="M5299.5 6126.41L3469.47 5694.1l-633.64-467.3c-177.13-77.65-363.53-150.76-547.07-246.75-30.62-15.73-60.82-33.52-91.21-50.26-30.24-17.37-59.9-36.66-89.83-55-29.55-19.34-58.46-40.29-87.64-60.48a3386.94 3386.94 0 01-83.9-65.77c-106.88-89.41-201.52-188.32-289.09-288.89-61.9-20.16-120.83-44.96-176.5-72.69-74.74-36.86-143.65-80.2-205.63-125.01-124.53-89.89-223.96-186.94-304.15-272.49-79.97-85.97-141.31-160.84-186.07-215.64a1874.74 1874.74 0 01-32.53-42.54c-25.06-33.07-51.48-70.95-74.19-116.28a496.88 496.88 0 01-29.67-73.04c-8.05-25.46-13.42-50.22-17.61-73.78-8.25-47.22-11.57-89.31-16.4-125.35-4.75-35.08-11.35-68.38-20.6-101.7-18.3-66.27-45.88-128.97-78.81-184.23-33.17-55.74-70.2-102.18-110.43-144.58-71.37-79.55-165.37-158.3-248.74-257.31 45.19 39.85 88.69 70.7 126.03 96.43-46.8-39.67-94.04-82.43-130.78-123.51-36.9-40.84-62.31-77.5-74.38-99-36.71-57.28-53.98-94.28-61.85-114.79-7.92-20.51-5.57-25 2.03-19.56 15.54 10.8 55.15 60.14 93 94.75 24.54 26.73 25.9 17.65 29.75 13.32 1.98-2.25 4.75-3.48 11.64.94 6.92 4.4 17.68 14.68 37.03 34.12-42-51-64.43-82.6-94.82-131.67a827.87 827.87 0 01-63.26-37.36c-73.48-47.64-138.1-103.1-200.9-159.21-52.16-49.54-104.14-103.04-147.24-164.87-21.44-30.9-40.69-63.82-55.56-98.84-14.99-34.86-25.45-72.18-31.68-107.24-10.34-52.05-15.23-105.44-27.07-155.46-5.34-25.04-15.74-48.17-24.55-72.31-11.92-22.8-23-46.21-38.74-67.22-29.67-42.88-65.97-81.83-105.86-115.55-39.38-34.15-80.3-64.7-119.68-92.36 10.4-1.92-4.52-21.56-32.93-48.79-28.13-27.31-69.34-62.6-108.03-97.38-38.43-35.23-74.22-70.05-92.85-95.03-18.9-24.76-22.85-37.22-.23-28.02-12.3-9.97-23.91-21.76-36.26-33.62-12.68-11.64-24.32-24.56-36.01-37.5a645.84 645.84 0 01-59.88-81.92c-32.46-54.33-48.73-100.93-46.28-106.9 3.44-9.12 5.37-21.88 6.23-40.75.17-9.33.12-20.2 0-32.89l-1.52-43.47c-.97-32.95-2.43-74.18-.1-125.82 2.56-51.51 9.06-113.8 27.86-185.6 7.06-28.12 15.6-59.7 26.52-91.2a679.38 679.38 0 0139.24-90.46c28.78-56.24 64-96.99 79.05-109.85 14.35-12.28 14.9-9.62 8.55.51l-11.16 17.68a338.98 338.98 0 00-13.87 21.91c-18.85 30.67-33.15 63.17-13.2 40.38-25.55 38.07 556.5 691.85 540.58 735.49 38.53 5.06 115.5.1 223.4-13.04v1015.54h2452.77V423.55C3524.5 148.55 4811.33-141.85 4820-140c17.57 3.74 479.5 6266.41 479.5 6266.41zM180.96 2533.48c1.5.18 1.14-2.37-1.68-8.34-29.1-32.01-54.92-70.37-78.83-110.24-4.01-2.02-7.97-4.12-11.93-6.2 10.93 17.5 24.6 39.4 38.8 59.6 23.96 34.83 48.73 64.59 53.64 65.18zm17.85-6.77a4811.1 4811.1 0 01-8.2-15.82c-17.1-19.96-42.3-48.65-64.07-78.67-1.77-2.4-3.44-4.79-5.16-7.18-1.76-.83-3.53-1.64-5.28-2.48 4.96 7.36 10 14.71 15.12 21.9 26.55 38.08 54.6 71.04 67.6 82.25zm-62.2-92.72c-.55-.86-1.05-1.69-1.59-2.53l-.26-.13c.61.88 1.26 1.83 1.85 2.66z" fill="#f29121"/></g></g></svg>