<?xml version="1.0" encoding="utf-8"?>
<!-- Generator: Adobe Illustrator 25.0.0, SVG Export Plug-In . SVG Version: 6.00 Build 0)  -->
<svg version="1.1" id="Layer_1" xmlns="http://www.w3.org/2000/svg" xmlns:xlink="http://www.w3.org/1999/xlink" x="0px" y="0px"
	 viewBox="0 0 288 288" style="enable-background:new 0 0 288 288;" xml:space="preserve">
<style type="text/css">
	.st0{fill:#12D1D1;}
	.st1{fill:#550542;}
	.st2{fill:#CA3E0D;}
	.st3{fill:none;stroke:#D61224;stroke-width:1.662;stroke-miterlimit:10;}
	.st4{fill:#C83E0F;}
	.st5{clip-path:url(#SVGID_2_);fill:#CA3E0D;}
	.st6{clip-path:url(#SVGID_2_);fill:none;stroke:#D61224;stroke-width:1.662;stroke-miterlimit:10;}
	.st7{clip-path:url(#SVGID_4_);fill:#CA3E0D;}
	.st8{clip-path:url(#SVGID_4_);fill:none;stroke:#D61224;stroke-width:1.662;stroke-miterlimit:10;}
	.st9{fill:#FEC460;}
	.st10{fill:#FFC662;}
	.st11{clip-path:url(#SVGID_6_);fill:#FFC662;}
	.st12{clip-path:url(#SVGID_8_);fill:#FFC662;}
	.st13{clip-path:url(#SVGID_8_);fill:#FEC460;}
</style>
<polygon class="st0" points="107.2,105.1 104.7,110.2 100.8,105.4 80.2,106.2 72.2,117.6 72.2,134.9 55.2,134.9 46.8,145 
	47.5,167.3 56.5,173.5 78.9,172.7 84,170 88.6,172.9 104.1,172.7 106.6,170.8 108.9,173.5 114.8,172.9 117.7,168.1 123.3,173.5 
	133.3,172.1 134.8,156 137.7,157.3 138.7,172.7 148.8,168.4 151.9,152 155.8,152.8 156,171.8 166,172.9 168.6,162.3 170.6,163.6 
	177,174 185.8,171.6 208.1,173.5 213.8,171.1 241.2,167.3 240.5,154 225.8,154.3 225.1,136.5 215.3,135.2 212.7,112.9 204.2,106.7 
	173.8,106.5 171,118.7 167.5,117.6 164.5,107.3 155.7,110.2 150.8,106.2 134.4,108.1 130,112 126.7,106.2 "/>
<polygon class="st1" points="210.3,113.8 202.8,108.6 175.2,108.3 172.4,119.9 166.9,118.9 163.9,109.1 155.4,111.9 150.7,108.1 
	134.6,109.9 130.4,113.6 127.1,108.1 108.1,107.1 104.8,111.9 101.1,107.3 81.8,108.1 74,118.9 74,135.2 57.5,135.2 49.2,144.7 
	50,165.7 58.7,171.5 80.6,170.7 85.6,168.2 90.1,171 105.1,170.7 107.6,169 109.9,171.5 115.6,171 118.4,166.5 123.9,171.5 
	133.7,170.2 135.2,153.9 137.9,155.4 138.9,170.7 148.7,166.7 152.2,149.9 156,150.9 155.7,170 165.5,171 168,160.9 171,162.2 
	177.2,172 184.8,169.7 206.5,171.5 209.3,169.2 238.9,165.7 238.2,153.2 223.9,153.4 223.1,136.7 213.6,135.4 "/>
<polygon class="st2" points="100.2,112 102.8,120.4 98,120.5 96.8,117.7 85.1,118.6 85.9,131.5 97.6,130 98.8,126.4 102.8,126.4 
	101.2,135.4 82.1,136.6 78.5,132.4 79.6,114.8 83.3,111.6 "/>
<polygon class="st3" points="100.2,112 102.8,120.4 98,120.5 96.8,117.7 85.1,118.6 85.9,131.5 97.6,130 98.8,126.4 102.8,126.4 
	101.2,135.4 82.1,136.6 78.5,132.4 79.6,114.8 83.3,111.6 "/>
<polygon class="st2" points="157.4,115.1 159.8,134.4 162.5,136.8 166.1,136.4 170.7,131.1 174,136.3 177.4,136.3 180.3,133.9 
	184.6,112.1 178.9,112.1 176,129.8 173.3,124 168.1,123.4 164.7,131.5 163.5,113.2 "/>
<polygon class="st3" points="157.4,115.1 159.8,134.4 162.5,136.8 166.1,136.4 170.7,131.1 174,136.3 177.4,136.3 180.3,133.9 
	184.6,112.1 178.9,112.1 176,129.8 173.3,124 168.1,123.4 164.7,131.5 163.5,113.2 "/>
<polygon class="st4" points="79.5,149.8 75.9,150.6 74.8,147.3 61.4,145.8 59.9,159.2 74.7,160.9 74.9,156.4 79.7,156.9 78.8,165.7 
	59.7,166.1 54.7,161.9 54.7,144.3 58.2,140.1 78.5,141.6 "/>
<polygon class="st3" points="79.5,149.8 75.9,150.6 74.8,147.3 61.4,145.8 59.9,159.2 74.7,160.9 74.9,156.4 79.7,156.9 78.8,165.7 
	59.7,166.1 54.7,161.9 54.7,144.3 58.2,140.1 78.5,141.6 "/>
<polygon class="st2" points="109,165.4 109.9,144.2 114.4,142.1 124.3,157.7 125.9,141 130.7,139.5 130.1,165.9 123.5,166.8 
	114.8,153 114.5,165.4 "/>
<polygon class="st3" points="109,165.4 109.9,144.2 114.4,142.1 124.3,157.7 125.9,141 130.7,139.5 130.1,165.9 123.5,166.8 
	114.8,153 114.5,165.4 "/>
<g>
	<defs>
		<rect id="SVGID_1_" x="46.8" y="105.1" width="194.5" height="68.9"/>
	</defs>
	<clipPath id="SVGID_2_">
		<use xlink:href="#SVGID_1_"  style="overflow:visible;"/>
	</clipPath>
	<path class="st5" d="M134,140.6l-0.8,5.9l9.6,0.1l-0.9,20.3l4.5-1.4l1.4-18.8c0,0,9.6-0.3,9.6-0.6s-0.1-5.1-0.1-5.1L134,140.6z"/>
	<path class="st6" d="M134,140.6l-0.8,5.9l9.6,0.1l-0.9,20.3l4.5-1.4l1.4-18.8c0,0,9.6-0.3,9.6-0.6s-0.1-5.1-0.1-5.1L134,140.6z"/>
	<path class="st5" d="M214.1,140.3l0.5,25l19.3-2.7v-5.2c0,0-13.4,2.2-13.4,1.8c0-0.4-0.3-18.3-0.3-18.3L214.1,140.3z"/>
	<path class="st6" d="M214.1,140.3l0.5,25l19.3-2.7v-5.2c0,0-13.4,2.2-13.4,1.8c0-0.4-0.3-18.3-0.3-18.3L214.1,140.3z"/>
	<path class="st5" d="M121.5,123.5c0,0.6-9.2-0.2-9.2-0.2l-0.4-6.6h10.5l0.9,4.3C123.3,121.1,121.5,123,121.5,123.5 M124,127.1
		l4.6-1.8l0.8-6.4l-3.8-6.8l-17.1-0.8l-2.3,3.7c0,0-0.3,21.3-0.4,21.9l6,0l1.2-8.5l5,0.3l6.4,8.7l5.8-1.7L124,127.1z"/>
	<path class="st6" d="M121.5,123.5c0,0.6-9.2-0.2-9.2-0.2l-0.4-6.6h10.5l0.9,4.3C123.3,121.1,121.5,123,121.5,123.5z M124,127.1
		l4.6-1.8l0.8-6.4l-3.8-6.8l-17.1-0.8l-2.3,3.7c0,0-0.3,21.3-0.4,21.9l6,0l1.2-8.5l5,0.3l6.4,8.7l5.8-1.7L124,127.1z"/>
</g>
<path class="st2" d="M145.8,132.6l-7-1.3l-1.1-8.3l1.7-3.4l9.2-2.3l2.3,12L145.8,132.6z M155,115.9l-3.8-3.5l-15.7,1.7l-3.6,5.7
	l0.2,12.5l3.9,4.3l15.7,0.2l4-3.5L155,115.9z"/>
<path class="st3" d="M145.8,132.6l-7-1.3l-1.1-8.3l1.7-3.4l9.2-2.3l2.3,12L145.8,132.6z M155,115.9l-3.8-3.5l-15.7,1.7l-3.6,5.7
	l0.2,12.5l3.9,4.3l15.7,0.2l4-3.5L155,115.9z"/>
<g>
	<defs>
		<rect id="SVGID_3_" x="46.8" y="105.1" width="194.5" height="68.9"/>
	</defs>
	<clipPath id="SVGID_4_">
		<use xlink:href="#SVGID_3_"  style="overflow:visible;"/>
	</clipPath>
	<path class="st7" d="M197.5,130.8h-7l1.7-12.4l7.7,0.2l0.6,8.5L197.5,130.8z M204.9,114.4l-5.6-2.6H188c-0.2,0.4-4,22.1-4,22.1
		s1.7,3.9,2,3.4c0.3-0.4,12.8-0.6,12.8-0.6l9.2-7.3L204.9,114.4z"/>
	<path class="st8" d="M197.5,130.8h-7l1.7-12.4l7.7,0.2l0.6,8.5L197.5,130.8z M204.9,114.4l-5.6-2.6H188c-0.2,0.4-4,22.1-4,22.1
		s1.7,3.9,2,3.4c0.3-0.4,12.8-0.6,12.8-0.6l9.2-7.3L204.9,114.4z"/>
	<path class="st7" d="M96.3,160.9c-0.4,0.6-7.9-1.5-7.9-1.5l-0.6-8.8l2.1-4.3l9.2-0.2l1.7,9.6C100.9,155.6,96.7,160.3,96.3,160.9
		 M105.4,140.8H85.6l-3.1,2.9l0.3,18.7l2.6,2.3l17.7,0.6l2.6-3.6l1.4-17.5L105.4,140.8z"/>
	<path class="st8" d="M96.3,160.9c-0.4,0.6-7.9-1.5-7.9-1.5l-0.6-8.8l2.1-4.3l9.2-0.2l1.7,9.6C100.9,155.6,96.7,160.3,96.3,160.9z
		 M105.4,140.8H85.6l-3.1,2.9l0.3,18.7l2.6,2.3l17.7,0.6l2.6-3.6l1.4-17.5L105.4,140.8z"/>
	<path class="st7" d="M171.9,151l-5.8-0.9l0.8-5.3l9.8-0.9l2.4,4.1L171.9,151z M179.7,154.2l4.1-2.5l-0.3-7.6l-4.9-4.1l-15.5-0.1
		l-2.6,3.8c0,0-0.3,20.9-0.3,21.3l4.6,0.5l1.4-9.8l6.6-0.3l6.8,10.6l4.9-1.5L179.7,154.2z"/>
	<path class="st8" d="M171.9,151l-5.8-0.9l0.8-5.3l9.8-0.9l2.4,4.1L171.9,151z M179.7,154.2l4.1-2.5l-0.3-7.6l-4.9-4.1l-15.5-0.1
		l-2.6,3.8c0,0-0.3,20.9-0.3,21.3l4.6,0.5l1.4-9.8l6.6-0.3l6.8,10.6l4.9-1.5L179.7,154.2z"/>
</g>
<path class="st2" d="M202.8,160.7l-9.3-0.2l-1.8-10.4l2.7-3.5l9.5-0.5l2.2,11.6L202.8,160.7z M207.2,140.7l-18.4,0.6l-2.3,4
	l0.6,16.5l2.6,3.6l18.4,0.6l2.6-3.4l0.1-18.2L207.2,140.7z"/>
<path class="st3" d="M202.8,160.7l-9.3-0.2l-1.8-10.4l2.7-3.5l9.5-0.5l2.2,11.6L202.8,160.7z M207.2,140.7l-18.4,0.6l-2.3,4
	l0.6,16.5l2.6,3.6l18.4,0.6l2.6-3.4l0.1-18.2L207.2,140.7z"/>
<polygon class="st9" points="99.9,110.2 102.5,118.6 97.6,118.6 96.5,115.8 84.7,116.8 85.6,129.6 97.2,128.1 98.5,124.5 
	102.5,124.5 100.9,133.5 81.7,134.7 78.1,130.6 79.2,113 83,109.7 "/>
<polygon class="st10" points="157,113.3 159.5,132.6 162.1,134.9 165.8,134.5 170.4,129.3 173.7,134.4 177,134.4 180,132 
	184.3,110.2 178.6,110.2 175.6,128 172.9,122.1 167.7,121.6 164.4,129.6 163.1,111.3 "/>
<polygon class="st9" points="79.2,148 75.5,148.7 74.4,145.5 61,144 59.5,157.4 74.3,159 74.5,154.5 79.3,155 78.4,163.9 
	59.4,164.3 54.4,160 54.4,142.5 57.9,138.2 78.2,139.7 "/>
<polygon class="st10" points="108.7,163.5 109.5,142.4 114,140.2 123.9,155.9 125.6,139.1 130.6,138.2 129.7,164 123.2,164.9 
	114.4,151.1 114.2,163.5 "/>
<g>
	<defs>
		<rect id="SVGID_5_" x="46.8" y="105.1" width="194.5" height="68.9"/>
	</defs>
	<clipPath id="SVGID_6_">
		<use xlink:href="#SVGID_5_"  style="overflow:visible;"/>
	</clipPath>
	<path class="st11" d="M133.6,138.7l-0.8,5.9l9.6,0.1l-0.9,20.3l4.5-1.4l1.4-18.8c0,0,9.6-0.3,9.6-0.6s-0.1-5.1-0.1-5.1L133.6,138.7
		z"/>
	<path class="st11" d="M213.7,138.4l0.5,25l19.3-2.7v-5.2c0,0-13.4,2.2-13.4,1.8c0-0.4-0.3-18.3-0.3-18.3L213.7,138.4z"/>
	<path class="st11" d="M121.1,121.7c0,0.6-9.2-0.2-9.2-0.2l-0.4-6.6H122l0.9,4.3C123,119.2,121.1,121.1,121.1,121.7 M123.6,125.2
		l4.6-1.8l0.8-6.4l-3.8-6.8l-17.1-0.8l-2.3,3.7c0,0-0.3,21.3-0.4,21.9l6,0l1.2-8.5l5,0.3l6.4,8.7l5.8-1.7L123.6,125.2z"/>
</g>
<path class="st10" d="M145.5,130.7l-7-1.3l-1.1-8.3l1.7-3.4l9.2-2.3l2.3,12L145.5,130.7z M154.7,114l-3.8-3.5l-15.7,1.7l-3.6,5.7
	l0.2,12.5l3.9,4.3l15.7,0.2l4-3.5L154.7,114z"/>
<g>
	<defs>
		<rect id="SVGID_7_" x="46.8" y="105.1" width="194.5" height="68.9"/>
	</defs>
	<clipPath id="SVGID_8_">
		<use xlink:href="#SVGID_7_"  style="overflow:visible;"/>
	</clipPath>
	<path class="st12" d="M193.3,131l-3.1-2l1.7-12.4l6,0.1l3.1,8.9L193.3,131z M203,112.3l-4.1-2.4h-11.3c-0.2,0.4-4,22.1-4,22.1
		s1.7,3.9,2,3.4c0.3-0.4,11,0.4,11,0.4l10.1-8.5L203,112.3z"/>
	<path class="st13" d="M98.3,158.5c-0.4,0.6-10.2-1-10.2-1l-0.6-8.8l2.1-4.3l9.2-0.2l1.7,9.6C100.5,153.7,98.7,157.9,98.3,158.5
		 M105,139H85.2l-3.1,2.9l0.3,18.7l2.6,2.3l17.7,0.6l2.6-3.6l1.4-17.5L105,139z"/>
	<path class="st12" d="M171.5,149.2l-5.8-0.9l0.8-5.3l9.8-0.9l2.4,4.1L171.5,149.2z M179.3,152.4l4.1-2.5l-0.3-7.6l-4.9-4.1
		l-17.6-0.1l-0.6,3.8c0,0-0.3,20.9-0.3,21.3l4.6,0.5l1.4-9.8l6.6-0.3l6.8,10.6l4.9-1.5L179.3,152.4z"/>
</g>
<path class="st10" d="M199,159.8l-6.1-2.1l-1.6-9.4l2.7-3.5l9.5-0.5l1.6,13.4L199,159.8z M206.9,138.9l-18.4,0.6l-2.3,4l0.6,16.5
	l2.6,3.6l18.4,0.6l2.6-3.4l0.1-18.2L206.9,138.9z"/>
</svg>
