<?xml version="1.0" encoding="UTF-8" standalone="no"?>
<svg
   xmlns:dc="http://purl.org/dc/elements/1.1/"
   xmlns:cc="http://creativecommons.org/ns#"
   xmlns:rdf="http://www.w3.org/1999/02/22-rdf-syntax-ns#"
   xmlns:svg="http://www.w3.org/2000/svg"
   xmlns="http://www.w3.org/2000/svg"
   xmlns:xlink="http://www.w3.org/1999/xlink"
   xmlns:sodipodi="http://sodipodi.sourceforge.net/DTD/sodipodi-0.dtd"
   xmlns:inkscape="http://www.inkscape.org/namespaces/inkscape"
   version="1.1"
   id="Layer_1"
   x="0px"
   y="0px"
   viewBox="0 0 200 72"
   style="enable-background:new 0 0 288 288;"
   xml:space="preserve"
   sodipodi:docname="logo.svg"
   inkscape:version="1.0 (4035a4fb49, 2020-05-01)"><metadata
   id="metadata117"><rdf:RDF><cc:Work
       rdf:about=""><dc:format>image/svg+xml</dc:format><dc:type
         rdf:resource="http://purl.org/dc/dcmitype/StillImage" /></cc:Work></rdf:RDF></metadata><defs
   id="defs115" /><sodipodi:namedview
   inkscape:document-rotation="0"
   pagecolor="#ffffff"
   bordercolor="#666666"
   borderopacity="1"
   objecttolerance="10"
   gridtolerance="10"
   guidetolerance="10"
   inkscape:pageopacity="0"
   inkscape:pageshadow="2"
   inkscape:window-width="1198"
   inkscape:window-height="822"
   id="namedview113"
   showgrid="false"
   inkscape:zoom="2.6423612"
   inkscape:cx="100.35807"
   inkscape:cy="68.27606"
   inkscape:window-x="8"
   inkscape:window-y="6"
   inkscape:window-maximized="0"
   inkscape:current-layer="Layer_1" />
<style
   type="text/css"
   id="style2">
	.st0{fill:#12D1D1;}
	.st1{fill:#550542;}
	.st2{fill:#CA3E0D;}
	.st3{fill:none;stroke:#D61224;stroke-width:1.662;stroke-miterlimit:10;}
	.st4{fill:#C83E0F;}
	.st5{clip-path:url(#SVGID_2_);fill:#CA3E0D;}
	.st6{clip-path:url(#SVGID_2_);fill:none;stroke:#D61224;stroke-width:1.662;stroke-miterlimit:10;}
	.st7{clip-path:url(#SVGID_4_);fill:#CA3E0D;}
	.st8{clip-path:url(#SVGID_4_);fill:none;stroke:#D61224;stroke-width:1.662;stroke-miterlimit:10;}
	.st9{fill:#FEC460;}
	.st10{fill:#FFC662;}
	.st11{clip-path:url(#SVGID_6_);fill:#FFC662;}
	.st12{clip-path:url(#SVGID_8_);fill:#FFC662;}
	.st13{clip-path:url(#SVGID_8_);fill:#FEC460;}
</style>
<polygon
   class="st0"
   points="68.2,189.3 89.9,188.4 93.4,185.9 96.5,189.5 104.8,190.2 109.7,182.9 116.3,191 132.2,187.5 133.1,166 134.9,166.4 135.3,190.2 152.5,183.8 156.4,161.9 158.7,161.9 158.3,186.5 173.8,188.8 177.2,174.4 180,176.2 188.7,190.2 200.5,187 230.8,189.5 238.4,186.2 275.6,181.2 272.5,160.2 254.8,161.5 253.5,138.6 240.7,135.8 237,107.5 225.5,99.1 184.4,98.8 180.6,115.4 175.9,113.9 171.7,99.9 159.9,103.8 153.3,98.4 131,101 125.1,106.4 120.6,98.4 94.1,97 90.8,103.8 85.6,97.4 57.6,98.4 46.8,113.9 46.5,135.8 25.8,135.8 12.4,151 13.4,181.2 25.6,189.5 54.8,189.3 62.8,184.8 "
   id="polygon4"
   transform="matrix(0.73771054,0,0,0.73771054,-6.6533676,-69.599327)" />
<polygon
   class="st1"
   points="91,106.1 85.9,100 59.8,101 49.2,115.6 49.2,137.6 26.9,137.6 15.7,150.5 16.7,179 28.6,186.8 58.1,185.8 64.9,182.4 71,186.1 91.3,185.8 94.7,183.4 97.8,186.8 105.6,186.1 109.3,180 116.8,186.8 130,185.1 132,163.1 135.8,165.1 137.1,185.8 150.3,180.4 155.1,157.7 160.2,159 159.8,184.8 173.1,186.1 176.4,172.6 180.5,174.3 189,187.5 199.2,184.4 228.7,186.8 232.4,183.7 272.5,179 271.5,162 252.1,162.4 251.1,139.7 238.2,138 233.7,108.7 223.6,101.7 186.2,101.4 182.5,117 175,115.6 171,102.4 159.4,106.1 153,101 131.3,103.4 125.5,108.5 121.1,101 95.4,99.7 "
   id="polygon6"
   transform="matrix(0.73771054,0,0,0.73771054,-6.6533676,-69.599327)" />
<polygon
   class="st2"
   points="81.2,130.7 82.9,125.8 88.3,125.8 86.1,138 60.2,139.6 55.3,133.9 56.8,110.1 61.9,105.7 84.7,106.4 88.3,117.7 81.7,117.8 80.1,114 64.2,115.3 65.4,132.7 "
   id="polygon8"
   transform="matrix(0.73771054,0,0,0.73771054,-6.6533676,-69.599327)" />
<polygon
   class="st3"
   points="81.2,130.7 82.9,125.8 88.3,125.8 86.1,138 60.2,139.6 55.3,133.9 56.8,110.1 61.9,105.7 84.7,106.4 88.3,117.7 81.7,117.8 80.1,114 64.2,115.3 65.4,132.7 "
   id="polygon10"
   transform="matrix(0.73771054,0,0,0.73771054,-6.6533676,-69.599327)" />
<polygon
   class="st2"
   points="169,139.8 174,139.3 180.2,132.2 184.6,139.2 189.2,139.2 193.2,135.9 199,106.4 191.2,106.4 187.3,130.4 183.6,122.5 176.6,121.8 172,132.7 170.4,107.9 162.1,110.5 165.4,136.7 "
   id="polygon12"
   transform="matrix(0.73771054,0,0,0.73771054,-6.6533676,-69.599327)" />
<polygon
   class="st3"
   points="169,139.8 174,139.3 180.2,132.2 184.6,139.2 189.2,139.2 193.2,135.9 199,106.4 191.2,106.4 187.3,130.4 183.6,122.5 176.6,121.8 172,132.7 170.4,107.9 162.1,110.5 165.4,136.7 "
   id="polygon14"
   transform="matrix(0.73771054,0,0,0.73771054,-6.6533676,-69.599327)" />
<polygon
   class="st4"
   points="50.5,166.3 56.9,167 55.7,179 30,179.6 23.2,173.8 23.2,150.1 27.9,144.3 55.4,146.3 56.7,157.5 51.8,158.5 50.3,154.1 32.2,152.1 30.1,170.2 50.1,172.4 "
   id="polygon16"
   transform="matrix(0.73771054,0,0,0.73771054,-6.6533676,-69.599327)" />
<polygon
   class="st3"
   points="50.5,166.3 56.9,167 55.7,179 30,179.6 23.2,173.8 23.2,150.1 27.9,144.3 55.4,146.3 56.7,157.5 51.8,158.5 50.3,154.1 32.2,152.1 30.1,170.2 50.1,172.4 "
   id="polygon18"
   transform="matrix(0.73771054,0,0,0.73771054,-6.6533676,-69.599327)" />
<polygon
   class="st2"
   points="103.9,147 117.3,168.2 119.5,145.5 126,143.5 125.1,179.2 116.3,180.4 104.4,161.8 104.1,178.6 96.6,178.6 97.8,149.9 "
   id="polygon20"
   transform="matrix(0.73771054,0,0,0.73771054,-6.6533676,-69.599327)" />
<polygon
   class="st3"
   points="103.9,147 117.3,168.2 119.5,145.5 126,143.5 125.1,179.2 116.3,180.4 104.4,161.8 104.1,178.6 96.6,178.6 97.8,149.9 "
   id="polygon22"
   transform="matrix(0.73771054,0,0,0.73771054,-6.6533676,-69.599327)" />
<g
   id="g42"
   transform="matrix(0.73771054,0,0,0.73771054,-6.6533676,-69.599327)">
	<defs
   id="defs25">
		<rect
   id="SVGID_1_"
   x="12.4"
   y="97"
   width="263.20001"
   height="94" />
	</defs>
	<clipPath
   id="SVGID_2_">
		<use
   xlink:href="#SVGID_1_"
   style="overflow:visible"
   id="use27"
   x="0"
   y="0"
   width="100%"
   height="100%" />
	</clipPath>
	<path
   class="st5"
   d="m 130.4,145 -1,8 13.1,0.2 -1.2,27.5 6.1,-1.9 1.9,-25.4 c 0,0 13.1,-0.3 13.1,-0.8 0,-0.5 -0.2,-6.9 -0.2,-6.9 z"
   clip-path="url(#SVGID_2_)"
   id="path30" />
	<path
   class="st6"
   d="m 130.4,145 -1,8 13.1,0.2 -1.2,27.5 6.1,-1.9 1.9,-25.4 c 0,0 13.1,-0.3 13.1,-0.8 0,-0.5 -0.2,-6.9 -0.2,-6.9 z"
   clip-path="url(#SVGID_2_)"
   id="path32" />
	<path
   class="st5"
   d="m 238.9,144.6 0.7,33.9 26.2,-3.7 v -7 c 0,0 -18.1,3 -18.1,2.5 0,-0.5 -0.4,-24.8 -0.4,-24.8 z"
   clip-path="url(#SVGID_2_)"
   id="path34" />
	<path
   class="st6"
   d="m 238.9,144.6 0.7,33.9 26.2,-3.7 v -7 c 0,0 -18.1,3 -18.1,2.5 0,-0.5 -0.4,-24.8 -0.4,-24.8 z"
   clip-path="url(#SVGID_2_)"
   id="path36" />
	<path
   class="st5"
   d="m 113.5,121.9 c 0,0.8 -12.5,-0.3 -12.5,-0.3 l -0.5,-8.9 h 14.2 l 1.3,5.8 c 0,0.1 -2.5,2.6 -2.5,3.4 m 3.4,4.8 6.2,-2.4 1.1,-8.7 -5.1,-9.2 -23.1,-1.1 -3.1,5 c 0,0 -0.4,28.9 -0.6,29.7 h 8.1 l 1.6,-11.5 6.8,0.4 8.6,11.8 7.9,-2.3 z"
   clip-path="url(#SVGID_2_)"
   id="path38" />
	<path
   class="st6"
   d="m 113.5,121.9 c 0,0.8 -12.5,-0.3 -12.5,-0.3 l -0.5,-8.9 h 14.2 l 1.3,5.8 c 0,0.1 -2.5,2.6 -2.5,3.4 z m 3.4,4.8 6.2,-2.4 1.1,-8.7 -5.1,-9.2 -23.1,-1.1 -3.1,5 c 0,0 -0.4,28.9 -0.6,29.7 h 8.1 l 1.6,-11.5 6.8,0.4 8.6,11.8 7.9,-2.3 z"
   clip-path="url(#SVGID_2_)"
   id="path40" />
</g>
<path
   style="stroke-width:0.73771"
   class="st2"
   d="m 101.42122,29.401427 -6.934475,-1.327879 -1.106566,-8.262358 1.696734,-3.393468 9.221387,-2.286903 2.2869,12.024682 z m 9.14762,-16.672258 -3.8361,-3.5410108 -15.713234,1.6967348 -3.614782,5.680371 0.221313,12.467308 3.909866,4.278721 15.639457,0.221313 4.05741,-3.467239 z"
   id="path44" />
<path
   class="st3"
   d="m 101.42122,29.401427 -6.934475,-1.327879 -1.106566,-8.262358 1.696734,-3.393468 9.221387,-2.286903 2.2869,12.024682 z m 9.14762,-16.672258 -3.8361,-3.5410108 -15.713234,1.6967348 -3.614782,5.680371 0.221313,12.467308 3.909866,4.278721 15.639457,0.221313 4.05741,-3.467239 z"
   id="path46" />
<g
   id="g66"
   transform="matrix(0.73771054,0,0,0.73771054,-6.6533676,-69.599327)">
	<defs
   id="defs49">
		<rect
   id="SVGID_3_"
   x="12.4"
   y="97"
   width="263.20001"
   height="94" />
	</defs>
	<clipPath
   id="SVGID_4_">
		<use
   xlink:href="#SVGID_3_"
   style="overflow:visible"
   id="use51"
   x="0"
   y="0"
   width="100%"
   height="100%" />
	</clipPath>
	<path
   class="st7"
   d="M 216.4,131.7 H 207 l 2.3,-16.8 10.4,0.3 0.8,11.4 z m 10,-22.1 -7.6,-3.6 h -15.3 c -0.3,0.5 -5.5,29.9 -5.5,29.9 0,0 2.3,5.3 2.7,4.7 0.4,-0.6 17.3,-0.8 17.3,-0.8 l 12.4,-9.9 z"
   clip-path="url(#SVGID_4_)"
   id="path54" />
	<path
   class="st8"
   d="M 216.4,131.7 H 207 l 2.3,-16.8 10.4,0.3 0.8,11.4 z m 10,-22.1 -7.6,-3.6 h -15.3 c -0.3,0.5 -5.5,29.9 -5.5,29.9 0,0 2.3,5.3 2.7,4.7 0.4,-0.6 17.3,-0.8 17.3,-0.8 l 12.4,-9.9 z"
   clip-path="url(#SVGID_4_)"
   id="path56" />
	<path
   class="st7"
   d="m 79.5,172.4 c -0.5,0.8 -10.7,-2 -10.7,-2 l -0.8,-12 2.8,-5.8 12.5,-0.3 2.3,13 c 0,0 -5.6,6.4 -6.1,7.1 M 91.7,145.3 H 64.9 l -4.2,3.9 0.3,25.3 3.6,3.1 23.9,0.8 3.6,-4.9 1.9,-23.7 z"
   clip-path="url(#SVGID_4_)"
   id="path58" />
	<path
   class="st8"
   d="m 79.5,172.4 c -0.5,0.8 -10.7,-2 -10.7,-2 l -0.8,-12 2.8,-5.8 12.5,-0.3 2.3,13 c 0,0 -5.6,6.4 -6.1,7.1 z M 91.7,145.3 H 64.9 l -4.2,3.9 0.3,25.3 3.6,3.1 23.9,0.8 3.6,-4.9 1.9,-23.7 z"
   clip-path="url(#SVGID_4_)"
   id="path60" />
	<path
   class="st7"
   d="m 181.7,159.1 -7.9,-1.3 1,-7.1 13.2,-1.3 3.3,5.6 z m 10.6,4.4 5.6,-3.4 -0.3,-10.3 -6.6,-5.6 -21,-0.2 -3.6,5.1 c 0,0 -0.3,28.3 -0.3,28.8 l 6.3,0.7 1.9,-13.2 9,-0.3 9.2,14.4 6.6,-2 z"
   clip-path="url(#SVGID_4_)"
   id="path62" />
	<path
   class="st8"
   d="m 181.7,159.1 -7.9,-1.3 1,-7.1 13.2,-1.3 3.3,5.6 z m 10.6,4.4 5.6,-3.4 -0.3,-10.3 -6.6,-5.6 -21,-0.2 -3.6,5.1 c 0,0 -0.3,28.3 -0.3,28.8 l 6.3,0.7 1.9,-13.2 9,-0.3 9.2,14.4 6.6,-2 z"
   clip-path="url(#SVGID_4_)"
   id="path64" />
</g>
<path
   style="stroke-width:0.73771"
   class="st2"
   d="m 158.2987,57.434428 -9.29515,-0.147542 -1.84427,-10.401719 2.72953,-3.46724 9.51646,-0.516398 2.21314,11.582056 z m 4.42627,-19.918185 -18.36899,0.590169 -2.28691,3.983636 0.59017,16.524716 2.65576,3.614782 18.369,0.590169 2.65576,-3.393469 0.14753,-18.14768 z"
   id="path68" />
<path
   class="st3"
   d="m 158.2987,57.434428 -9.29515,-0.147542 -1.84427,-10.401719 2.72953,-3.46724 9.51646,-0.516398 2.21314,11.582056 z m 4.42627,-19.918185 -18.36899,0.590169 -2.28691,3.983636 0.59017,16.524716 2.65576,3.614782 18.369,0.590169 2.65576,-3.393469 0.14753,-18.14768 z"
   id="path70" />
<polygon
   class="st9"
   points="80.7,128.2 82.4,123.3 87.8,123.3 85.6,135.4 59.7,137.1 54.8,131.4 56.3,107.6 61.4,103.2 84.2,103.8 87.8,115.2 81.2,115.3 79.7,111.5 63.7,112.7 64.9,130.1 "
   id="polygon72"
   transform="matrix(0.73771054,0,0,0.73771054,-6.6533676,-69.599327)" />
<polygon
   class="st10"
   points="168.5,137.3 173.5,136.8 179.7,129.7 184.2,136.7 188.7,136.7 192.7,133.4 198.5,103.9 190.8,103.9 186.8,127.9 183.1,120 176.1,119.3 171.6,130.2 169.9,105.4 161.6,108 165,134.1 "
   id="polygon74"
   transform="matrix(0.73771054,0,0,0.73771054,-6.6533676,-69.599327)" />
<polygon
   class="st9"
   points="50,163.8 56.4,164.5 55.3,176.5 29.5,177 22.7,171.3 22.7,147.5 27.5,141.8 54.9,143.8 56.3,155 51.4,156 49.8,151.6 31.7,149.6 29.7,167.7 49.7,169.9 "
   id="polygon76"
   transform="matrix(0.73771054,0,0,0.73771054,-6.6533676,-69.599327)" />
<polygon
   class="st10"
   points="103.5,144.5 116.8,165.7 119.1,143 125.9,141.8 124.6,176.7 115.8,177.9 104,159.2 103.6,176 96.2,176 97.4,147.4 "
   id="polygon78"
   transform="matrix(0.73771054,0,0,0.73771054,-6.6533676,-69.599327)" />
<g
   id="g92"
   transform="matrix(0.73771054,0,0,0.73771054,-6.6533676,-69.599327)">
	<defs
   id="defs81">
		<rect
   id="SVGID_5_"
   x="12.4"
   y="97"
   width="263.20001"
   height="94" />
	</defs>
	<clipPath
   id="SVGID_6_">
		<use
   xlink:href="#SVGID_5_"
   style="overflow:visible"
   id="use83"
   x="0"
   y="0"
   width="100%"
   height="100%" />
	</clipPath>
	<path
   class="st11"
   d="m 129.9,142.4 -1,8 13.1,0.2 -1.2,27.5 6.1,-1.9 1.9,-25.4 c 0,0 13.1,-0.3 13.1,-0.8 0,-0.5 -0.2,-6.9 -0.2,-6.9 z"
   clip-path="url(#SVGID_6_)"
   id="path86" />
	<path
   class="st11"
   d="m 238.4,142.1 0.7,33.9 26.2,-3.7 v -7 c 0,0 -18.1,3 -18.1,2.5 0,-0.5 -0.4,-24.8 -0.4,-24.8 z"
   clip-path="url(#SVGID_6_)"
   id="path88" />
	<path
   class="st11"
   d="m 113,119.4 c 0,0.8 -12.5,-0.3 -12.5,-0.3 l -0.5,-8.9 h 14.2 l 1.3,5.8 c 0,0.1 -2.5,2.6 -2.5,3.4 m 3.4,4.8 6.2,-2.4 1.1,-8.7 -5.1,-9.2 -23.1,-1.1 -3.1,5 c 0,0 -0.4,28.9 -0.6,29.7 h 8.1 l 1.6,-11.5 6.8,0.4 8.6,11.8 7.9,-2.3 z"
   clip-path="url(#SVGID_6_)"
   id="path90" />
</g>
<path
   style="stroke-width:0.73771"
   class="st10"
   d="m 101.05237,27.557151 -6.93448,-1.32788 -1.106566,-8.262358 1.696734,-3.393468 9.221382,-2.286902 2.28691,12.024682 z m 9.22138,-16.672258 -3.83609,-3.5410116 -15.713239,1.6967348 -3.614781,5.6803708 0.221313,12.467309 3.909866,4.278721 15.639461,0.221313 4.05741,-3.467239 z"
   id="path94" />
<g
   id="g108"
   transform="matrix(0.73771054,0,0,0.73771054,-6.6533676,-69.599327)">
	<defs
   id="defs97">
		<rect
   id="SVGID_7_"
   x="12.4"
   y="97"
   width="263.20001"
   height="94" />
	</defs>
	<clipPath
   id="SVGID_8_">
		<use
   xlink:href="#SVGID_7_"
   style="overflow:visible"
   id="use99"
   x="0"
   y="0"
   width="100%"
   height="100%" />
	</clipPath>
	<path
   class="st12"
   d="m 210.7,132 -4.2,-2.8 2.3,-16.8 8.1,0.1 4.1,12 z m 13.2,-25.3 -5.6,-3.2 H 203 c -0.3,0.5 -5.5,29.9 -5.5,29.9 0,0 2.3,5.3 2.7,4.7 0.4,-0.6 14.9,0.5 14.9,0.5 L 228.7,127 Z"
   clip-path="url(#SVGID_8_)"
   id="path102" />
	<path
   class="st13"
   d="m 82.2,169.3 c -0.5,0.8 -13.8,-1.4 -13.8,-1.4 l -0.8,-12 2.8,-5.8 12.5,-0.3 2.3,13 c -0.1,0 -2.5,5.7 -3,6.5 m 9,-26.5 H 64.4 l -4.2,3.9 0.3,25.3 3.6,3.1 23.9,0.8 3.6,-4.9 1.9,-23.7 z"
   clip-path="url(#SVGID_8_)"
   id="path104" />
	<path
   class="st12"
   d="m 181.2,156.6 -7.9,-1.3 1,-7.1 13.2,-1.3 3.3,5.6 z m 10.6,4.3 5.6,-3.4 -0.3,-10.3 -6.6,-5.6 -23.8,-0.2 -0.8,5.1 c 0,0 -0.3,28.3 -0.3,28.8 l 6.3,0.7 1.9,-13.2 9,-0.3 9.2,14.4 6.6,-2 z"
   clip-path="url(#SVGID_8_)"
   id="path106" />
</g>
<path
   style="stroke-width:0.73771"
   class="st10"
   d="m 154.46261,56.475404 -6.123,-2.139361 -1.62296,-9.368924 2.72953,-3.467239 9.51646,-0.516397 1.54919,13.426332 z m 7.8935,-20.803438 -18.36899,0.590169 -2.28691,3.983637 0.59018,16.524716 2.65576,3.614782 18.36899,0.590168 2.65576,-3.393469 0.14754,-18.147679 z"
   id="path110" />
</svg>
