<?xml version="1.0" encoding="UTF-8" standalone="no"?>
<svg
   xmlns:dc="http://purl.org/dc/elements/1.1/"
   xmlns:cc="http://creativecommons.org/ns#"
   xmlns:rdf="http://www.w3.org/1999/02/22-rdf-syntax-ns#"
   xmlns:svg="http://www.w3.org/2000/svg"
   xmlns="http://www.w3.org/2000/svg"
   xmlns:xlink="http://www.w3.org/1999/xlink"
   xmlns:sodipodi="http://sodipodi.sourceforge.net/DTD/sodipodi-0.dtd"
   xmlns:inkscape="http://www.inkscape.org/namespaces/inkscape"
   version="1.1"
   id="Layer_1"
   x="0px"
   y="0px"
   viewBox="0 0 340.20001 120.575"
   xml:space="preserve"
   sodipodi:docname="logo.svg"
   width="340.20001"
   height="120.575"
   inkscape:version="1.0 (4035a4fb49, 2020-05-01)"><metadata
   id="metadata294"><rdf:RDF><cc:Work
       rdf:about=""><dc:format>image/svg+xml</dc:format><dc:type
         rdf:resource="http://purl.org/dc/dcmitype/StillImage" /></cc:Work></rdf:RDF></metadata><defs
   id="defs292" /><sodipodi:namedview
   inkscape:document-rotation="0"
   pagecolor="#ffffff"
   bordercolor="#666666"
   borderopacity="1"
   objecttolerance="10"
   gridtolerance="10"
   guidetolerance="10"
   inkscape:pageopacity="0"
   inkscape:pageshadow="2"
   inkscape:window-width="1118"
   inkscape:window-height="768"
   id="namedview290"
   showgrid="false"
   inkscape:zoom="2.4965278"
   inkscape:cx="240.19485"
   inkscape:cy="68.345741"
   inkscape:window-x="298"
   inkscape:window-y="38"
   inkscape:window-maximized="0"
   inkscape:current-layer="Layer_1" />
<style
   type="text/css"
   id="style179">
	.st0{fill:#12D1D1;}
	.st1{fill:#550542;}
	.st2{fill:#CA3E0D;}
	.st3{fill:none;stroke:#D61224;stroke-width:1.662;stroke-miterlimit:10;}
	.st4{fill:#C83E0F;}
	.st5{clip-path:url(#SVGID_2_);fill:#CA3E0D;}
	.st6{clip-path:url(#SVGID_2_);fill:none;stroke:#D61224;stroke-width:1.662;stroke-miterlimit:10;}
	.st7{clip-path:url(#SVGID_4_);fill:#CA3E0D;}
	.st8{clip-path:url(#SVGID_4_);fill:none;stroke:#D61224;stroke-width:1.662;stroke-miterlimit:10;}
	.st9{fill:#FEC460;}
	.st10{fill:#FFC662;}
	.st11{clip-path:url(#SVGID_6_);fill:#FFC662;}
	.st12{clip-path:url(#SVGID_8_);fill:#FFC662;}
	.st13{clip-path:url(#SVGID_8_);fill:#FEC460;}
</style>
<polygon
   class="st0"
   points="46.8,145 47.5,167.3 56.5,173.5 78.9,172.7 84,170 88.6,172.9 104.1,172.7 106.6,170.8 108.9,173.5 114.8,172.9 117.7,168.1 123.3,173.5 133.3,172.1 134.8,156 137.7,157.3 138.7,172.7 148.8,168.4 151.9,152 155.8,152.8 156,171.8 166,172.9 168.6,162.3 170.6,163.6 177,174 185.8,171.6 208.1,173.5 213.8,171.1 241.2,167.3 240.5,154 225.8,154.3 225.1,136.5 215.3,135.2 212.7,112.9 204.2,106.7 173.8,106.5 171,118.7 167.5,117.6 164.5,107.3 155.7,110.2 150.8,106.2 134.4,108.1 130,112 126.7,106.2 107.2,105.1 104.7,110.2 100.8,105.4 80.2,106.2 72.2,117.6 72.2,134.9 55.2,134.9 "
   id="polygon181"
   transform="matrix(1.75,0,0,1.75,-81.9,-183.925)" />
<polygon
   class="st1"
   points="150.7,108.1 134.6,109.9 130.4,113.6 127.1,108.1 108.1,107.1 104.8,111.9 101.1,107.3 81.8,108.1 74,118.9 74,135.2 57.5,135.2 49.2,144.7 50,165.7 58.7,171.5 80.6,170.7 85.6,168.2 90.1,171 105.1,170.7 107.6,169 109.9,171.5 115.6,171 118.4,166.5 123.9,171.5 133.7,170.2 135.2,153.9 137.9,155.4 138.9,170.7 148.7,166.7 152.2,149.9 156,150.9 155.7,170 165.5,171 168,160.9 171,162.2 177.2,172 184.8,169.7 206.5,171.5 209.3,169.2 238.9,165.7 238.2,153.2 223.9,153.4 223.1,136.7 213.6,135.4 210.3,113.8 202.8,108.6 175.2,108.3 172.4,119.9 166.9,118.9 163.9,109.1 155.4,111.9 "
   id="polygon183"
   transform="matrix(1.75,0,0,1.75,-81.9,-183.925)" />
<polygon
   class="st2"
   points="98.8,126.4 102.8,126.4 101.2,135.4 82.1,136.6 78.5,132.4 79.6,114.8 83.3,111.6 100.2,112 102.8,120.4 98,120.5 96.8,117.7 85.1,118.6 85.9,131.5 97.6,130 "
   id="polygon185"
   transform="matrix(1.75,0,0,1.75,-81.9,-183.925)" />
<polygon
   class="st3"
   points="98.8,126.4 102.8,126.4 101.2,135.4 82.1,136.6 78.5,132.4 79.6,114.8 83.3,111.6 100.2,112 102.8,120.4 98,120.5 96.8,117.7 85.1,118.6 85.9,131.5 97.6,130 "
   id="polygon187"
   transform="matrix(1.75,0,0,1.75,-81.9,-183.925)" />
<polygon
   class="st2"
   points="180.3,133.9 184.6,112.1 178.9,112.1 176,129.8 173.3,124 168.1,123.4 164.7,131.5 163.5,113.2 157.4,115.1 159.8,134.4 162.5,136.8 166.1,136.4 170.7,131.1 174,136.3 177.4,136.3 "
   id="polygon189"
   transform="matrix(1.75,0,0,1.75,-81.9,-183.925)" />
<polygon
   class="st3"
   points="180.3,133.9 184.6,112.1 178.9,112.1 176,129.8 173.3,124 168.1,123.4 164.7,131.5 163.5,113.2 157.4,115.1 159.8,134.4 162.5,136.8 166.1,136.4 170.7,131.1 174,136.3 177.4,136.3 "
   id="polygon191"
   transform="matrix(1.75,0,0,1.75,-81.9,-183.925)" />
<polygon
   class="st4"
   points="79.7,156.9 78.8,165.7 59.7,166.1 54.7,161.9 54.7,144.3 58.2,140.1 78.5,141.6 79.5,149.8 75.9,150.6 74.8,147.3 61.4,145.8 59.9,159.2 74.7,160.9 74.9,156.4 "
   id="polygon193"
   transform="matrix(1.75,0,0,1.75,-81.9,-183.925)" />
<polygon
   class="st3"
   points="79.7,156.9 78.8,165.7 59.7,166.1 54.7,161.9 54.7,144.3 58.2,140.1 78.5,141.6 79.5,149.8 75.9,150.6 74.8,147.3 61.4,145.8 59.9,159.2 74.7,160.9 74.9,156.4 "
   id="polygon195"
   transform="matrix(1.75,0,0,1.75,-81.9,-183.925)" />
<polygon
   class="st2"
   points="123.5,166.8 114.8,153 114.5,165.4 109,165.4 109.9,144.2 114.4,142.1 124.3,157.7 125.9,141 130.7,139.5 130.1,165.9 "
   id="polygon197"
   transform="matrix(1.75,0,0,1.75,-81.9,-183.925)" />
<polygon
   class="st3"
   points="123.5,166.8 114.8,153 114.5,165.4 109,165.4 109.9,144.2 114.4,142.1 124.3,157.7 125.9,141 130.7,139.5 130.1,165.9 "
   id="polygon199"
   transform="matrix(1.75,0,0,1.75,-81.9,-183.925)" />
<g
   id="g219"
   transform="matrix(1.75,0,0,1.75,-81.9,-183.925)">
	<defs
   id="defs202">
		<rect
   id="SVGID_1_"
   x="46.799999"
   y="105.1"
   width="194.5"
   height="68.900002" />
	</defs>
	<clipPath
   id="SVGID_2_">
		<use
   xlink:href="#SVGID_1_"
   style="overflow:visible"
   id="use204"
   x="0"
   y="0"
   width="100%"
   height="100%" />
	</clipPath>
	<path
   class="st5"
   d="m 134,140.6 -0.8,5.9 9.6,0.1 -0.9,20.3 4.5,-1.4 1.4,-18.8 c 0,0 9.6,-0.3 9.6,-0.6 0,-0.3 -0.1,-5.1 -0.1,-5.1 z"
   clip-path="url(#SVGID_2_)"
   id="path207" />
	<path
   class="st6"
   d="m 134,140.6 -0.8,5.9 9.6,0.1 -0.9,20.3 4.5,-1.4 1.4,-18.8 c 0,0 9.6,-0.3 9.6,-0.6 0,-0.3 -0.1,-5.1 -0.1,-5.1 z"
   clip-path="url(#SVGID_2_)"
   id="path209" />
	<path
   class="st5"
   d="m 214.1,140.3 0.5,25 19.3,-2.7 v -5.2 c 0,0 -13.4,2.2 -13.4,1.8 0,-0.4 -0.3,-18.3 -0.3,-18.3 z"
   clip-path="url(#SVGID_2_)"
   id="path211" />
	<path
   class="st6"
   d="m 214.1,140.3 0.5,25 19.3,-2.7 v -5.2 c 0,0 -13.4,2.2 -13.4,1.8 0,-0.4 -0.3,-18.3 -0.3,-18.3 z"
   clip-path="url(#SVGID_2_)"
   id="path213" />
	<path
   class="st5"
   d="m 121.5,123.5 c 0,0.6 -9.2,-0.2 -9.2,-0.2 l -0.4,-6.6 h 10.5 l 0.9,4.3 c 0,0.1 -1.8,2 -1.8,2.5 m 2.5,3.6 4.6,-1.8 0.8,-6.4 -3.8,-6.8 -17.1,-0.8 -2.3,3.7 c 0,0 -0.3,21.3 -0.4,21.9 h 6 l 1.2,-8.5 5,0.3 6.4,8.7 5.8,-1.7 z"
   clip-path="url(#SVGID_2_)"
   id="path215" />
	<path
   class="st6"
   d="m 121.5,123.5 c 0,0.6 -9.2,-0.2 -9.2,-0.2 l -0.4,-6.6 h 10.5 l 0.9,4.3 c 0,0.1 -1.8,2 -1.8,2.5 z m 2.5,3.6 4.6,-1.8 0.8,-6.4 -3.8,-6.8 -17.1,-0.8 -2.3,3.7 c 0,0 -0.3,21.3 -0.4,21.9 h 6 l 1.2,-8.5 5,0.3 6.4,8.7 5.8,-1.7 z"
   clip-path="url(#SVGID_2_)"
   id="path217" />
</g>
<path
   style="stroke-width:1.75"
   class="st2"
   d="M 173.25,48.125 161,45.85 l -1.925,-14.525 2.975,-5.95 16.1,-4.025 4.025,21 z m 16.1,-29.225 -6.65,-6.125 -27.475,2.975 -6.3,9.975 0.35,21.875 6.825,7.525 27.475,0.35 7,-6.125 z"
   id="path221" />
<path
   class="st3"
   d="M 173.25,48.125 161,45.85 l -1.925,-14.525 2.975,-5.95 16.1,-4.025 4.025,21 z m 16.1,-29.225 -6.65,-6.125 -27.475,2.975 -6.3,9.975 0.35,21.875 6.825,7.525 27.475,0.35 7,-6.125 z"
   id="path223" />
<g
   id="g243"
   transform="matrix(1.75,0,0,1.75,-81.9,-183.925)">
	<defs
   id="defs226">
		<rect
   id="SVGID_3_"
   x="46.799999"
   y="105.1"
   width="194.5"
   height="68.900002" />
	</defs>
	<clipPath
   id="SVGID_4_">
		<use
   xlink:href="#SVGID_3_"
   style="overflow:visible"
   id="use228"
   x="0"
   y="0"
   width="100%"
   height="100%" />
	</clipPath>
	<path
   class="st7"
   d="m 197.5,130.8 h -7 l 1.7,-12.4 7.7,0.2 0.6,8.5 z m 7.4,-16.4 -5.6,-2.6 H 188 c -0.2,0.4 -4,22.1 -4,22.1 0,0 1.7,3.9 2,3.4 0.3,-0.4 12.8,-0.6 12.8,-0.6 l 9.2,-7.3 z"
   clip-path="url(#SVGID_4_)"
   id="path231" />
	<path
   class="st8"
   d="m 197.5,130.8 h -7 l 1.7,-12.4 7.7,0.2 0.6,8.5 z m 7.4,-16.4 -5.6,-2.6 H 188 c -0.2,0.4 -4,22.1 -4,22.1 0,0 1.7,3.9 2,3.4 0.3,-0.4 12.8,-0.6 12.8,-0.6 l 9.2,-7.3 z"
   clip-path="url(#SVGID_4_)"
   id="path233" />
	<path
   class="st7"
   d="m 96.3,160.9 c -0.4,0.6 -7.9,-1.5 -7.9,-1.5 l -0.6,-8.8 2.1,-4.3 9.2,-0.2 1.7,9.6 c 0.1,-0.1 -4.1,4.6 -4.5,5.2 m 9.1,-20.1 H 85.6 l -3.1,2.9 0.3,18.7 2.6,2.3 17.7,0.6 2.6,-3.6 1.4,-17.5 z"
   clip-path="url(#SVGID_4_)"
   id="path235" />
	<path
   class="st8"
   d="m 96.3,160.9 c -0.4,0.6 -7.9,-1.5 -7.9,-1.5 l -0.6,-8.8 2.1,-4.3 9.2,-0.2 1.7,9.6 c 0.1,-0.1 -4.1,4.6 -4.5,5.2 z m 9.1,-20.1 H 85.6 l -3.1,2.9 0.3,18.7 2.6,2.3 17.7,0.6 2.6,-3.6 1.4,-17.5 z"
   clip-path="url(#SVGID_4_)"
   id="path237" />
	<path
   class="st7"
   d="m 171.9,151 -5.8,-0.9 0.8,-5.3 9.8,-0.9 2.4,4.1 z m 7.8,3.2 4.1,-2.5 -0.3,-7.6 -4.9,-4.1 -15.5,-0.1 -2.6,3.8 c 0,0 -0.3,20.9 -0.3,21.3 l 4.6,0.5 1.4,-9.8 6.6,-0.3 6.8,10.6 4.9,-1.5 z"
   clip-path="url(#SVGID_4_)"
   id="path239" />
	<path
   class="st8"
   d="m 171.9,151 -5.8,-0.9 0.8,-5.3 9.8,-0.9 2.4,4.1 z m 7.8,3.2 4.1,-2.5 -0.3,-7.6 -4.9,-4.1 -15.5,-0.1 -2.6,3.8 c 0,0 -0.3,20.9 -0.3,21.3 l 4.6,0.5 1.4,-9.8 6.6,-0.3 6.8,10.6 4.9,-1.5 z"
   clip-path="url(#SVGID_4_)"
   id="path241" />
</g>
<path
   style="stroke-width:1.75"
   class="st2"
   d="m 273,97.3 -16.275,-0.35 -3.15,-18.2 4.725,-6.125 16.625,-0.875 3.85,20.3 z m 7.7,-35 -32.2,1.05 -4.025,7 1.05,28.875 4.55,6.3 32.2,1.05 4.55,-5.95 0.175,-31.85 z"
   id="path245" />
<path
   class="st3"
   d="m 273,97.3 -16.275,-0.35 -3.15,-18.2 4.725,-6.125 16.625,-0.875 3.85,20.3 z m 7.7,-35 -32.2,1.05 -4.025,7 1.05,28.875 4.55,6.3 32.2,1.05 4.55,-5.95 0.175,-31.85 z"
   id="path247" />
<polygon
   class="st9"
   points="98.5,124.5 102.5,124.5 100.9,133.5 81.7,134.7 78.1,130.6 79.2,113 83,109.7 99.9,110.2 102.5,118.6 97.6,118.6 96.5,115.8 84.7,116.8 85.6,129.6 97.2,128.1 "
   id="polygon249"
   transform="matrix(1.75,0,0,1.75,-81.9,-183.925)" />
<polygon
   class="st10"
   points="180,132 184.3,110.2 178.6,110.2 175.6,128 172.9,122.1 167.7,121.6 164.4,129.6 163.1,111.3 157,113.3 159.5,132.6 162.1,134.9 165.8,134.5 170.4,129.3 173.7,134.4 177,134.4 "
   id="polygon251"
   transform="matrix(1.75,0,0,1.75,-81.9,-183.925)" />
<polygon
   class="st9"
   points="79.3,155 78.4,163.9 59.4,164.3 54.4,160 54.4,142.5 57.9,138.2 78.2,139.7 79.2,148 75.5,148.7 74.4,145.5 61,144 59.5,157.4 74.3,159 74.5,154.5 "
   id="polygon253"
   transform="matrix(1.75,0,0,1.75,-81.9,-183.925)" />
<polygon
   class="st10"
   points="123.2,164.9 114.4,151.1 114.2,163.5 108.7,163.5 109.5,142.4 114,140.2 123.9,155.9 125.6,139.1 130.6,138.2 129.7,164 "
   id="polygon255"
   transform="matrix(1.75,0,0,1.75,-81.9,-183.925)" />
<g
   id="g269"
   transform="matrix(1.75,0,0,1.75,-81.9,-183.925)">
	<defs
   id="defs258">
		<rect
   id="SVGID_5_"
   x="46.799999"
   y="105.1"
   width="194.5"
   height="68.900002" />
	</defs>
	<clipPath
   id="SVGID_6_">
		<use
   xlink:href="#SVGID_5_"
   style="overflow:visible"
   id="use260"
   x="0"
   y="0"
   width="100%"
   height="100%" />
	</clipPath>
	<path
   class="st11"
   d="m 133.6,138.7 -0.8,5.9 9.6,0.1 -0.9,20.3 4.5,-1.4 1.4,-18.8 c 0,0 9.6,-0.3 9.6,-0.6 0,-0.3 -0.1,-5.1 -0.1,-5.1 z"
   clip-path="url(#SVGID_6_)"
   id="path263" />
	<path
   class="st11"
   d="m 213.7,138.4 0.5,25 19.3,-2.7 v -5.2 c 0,0 -13.4,2.2 -13.4,1.8 0,-0.4 -0.3,-18.3 -0.3,-18.3 z"
   clip-path="url(#SVGID_6_)"
   id="path265" />
	<path
   class="st11"
   d="m 121.1,121.7 c 0,0.6 -9.2,-0.2 -9.2,-0.2 l -0.4,-6.6 H 122 l 0.9,4.3 c 0.1,0 -1.8,1.9 -1.8,2.5 m 2.5,3.5 4.6,-1.8 0.8,-6.4 -3.8,-6.8 -17.1,-0.8 -2.3,3.7 c 0,0 -0.3,21.3 -0.4,21.9 h 6 l 1.2,-8.5 5,0.3 6.4,8.7 5.8,-1.7 z"
   clip-path="url(#SVGID_6_)"
   id="path267" />
</g>
<path
   style="stroke-width:1.75"
   class="st10"
   d="M 172.725,44.8 160.475,42.525 158.55,28 l 2.975,-5.95 16.1,-4.025 4.025,21 z m 16.1,-29.225 -6.65,-6.125 -27.475,2.975 -6.3,9.975 0.35,21.875 6.825,7.525 27.475,0.35 7,-6.125 z"
   id="path271" />
<g
   id="g285"
   transform="matrix(1.75,0,0,1.75,-81.9,-183.925)">
	<defs
   id="defs274">
		<rect
   id="SVGID_7_"
   x="46.799999"
   y="105.1"
   width="194.5"
   height="68.900002" />
	</defs>
	<clipPath
   id="SVGID_8_">
		<use
   xlink:href="#SVGID_7_"
   style="overflow:visible"
   id="use276"
   x="0"
   y="0"
   width="100%"
   height="100%" />
	</clipPath>
	<path
   class="st12"
   d="m 193.3,131 -3.1,-2 1.7,-12.4 6,0.1 3.1,8.9 z m 9.7,-18.7 -4.1,-2.4 h -11.3 c -0.2,0.4 -4,22.1 -4,22.1 0,0 1.7,3.9 2,3.4 0.3,-0.4 11,0.4 11,0.4 l 10.1,-8.5 z"
   clip-path="url(#SVGID_8_)"
   id="path279" />
	<path
   class="st13"
   d="m 98.3,158.5 c -0.4,0.6 -10.2,-1 -10.2,-1 l -0.6,-8.8 2.1,-4.3 9.2,-0.2 1.7,9.6 c 0,-0.1 -1.8,4.1 -2.2,4.7 M 105,139 H 85.2 l -3.1,2.9 0.3,18.7 2.6,2.3 17.7,0.6 2.6,-3.6 1.4,-17.5 z"
   clip-path="url(#SVGID_8_)"
   id="path281" />
	<path
   class="st12"
   d="m 171.5,149.2 -5.8,-0.9 0.8,-5.3 9.8,-0.9 2.4,4.1 z m 7.8,3.2 4.1,-2.5 -0.3,-7.6 -4.9,-4.1 -17.6,-0.1 -0.6,3.8 c 0,0 -0.3,20.9 -0.3,21.3 l 4.6,0.5 1.4,-9.8 6.6,-0.3 6.8,10.6 4.9,-1.5 z"
   clip-path="url(#SVGID_8_)"
   id="path283" />
</g>
<path
   style="stroke-width:1.75"
   class="st10"
   d="m 266.35,95.725 -10.675,-3.675 -2.8,-16.45 4.725,-6.125 16.625,-0.875 2.8,23.45 z m 13.825,-36.575 -32.2,1.05 -4.025,7 1.05,28.875 4.55,6.3 32.2,1.05 4.55,-5.95 0.175,-31.85 z"
   id="path287" />
</svg>
