<?xml version="1.0" encoding="utf-8"?>
<!-- Generator: Adobe Illustrator 23.0.3, SVG Export Plug-In . SVG Version: 6.00 Build 0)  -->
<svg version="1.1" id="Ebene_1" xmlns="http://www.w3.org/2000/svg" xmlns:xlink="http://www.w3.org/1999/xlink" x="0px" y="0px"
	 viewBox="0 0 382.86 145.01" style="enable-background:new 0 0 382.86 145.01;" xml:space="preserve">
<style type="text/css">
	.st0{fill:#12D1D1;}
	.st1{clip-path:url(#SVGID_2_);fill:#12D1D1;}
	.st2{clip-path:url(#SVGID_4_);fill:#12D1D1;}
	.st3{fill:#001433;}
	.st4{fill:#D61224;}
	.st5{fill:none;stroke:#D61224;stroke-width:0.858;stroke-miterlimit:10;}
	.st6{clip-path:url(#SVGID_6_);fill:#D61224;}
	.st7{clip-path:url(#SVGID_6_);fill:none;stroke:#D61224;stroke-width:0.858;stroke-miterlimit:10;}
	.st8{clip-path:url(#SVGID_8_);fill:#D61224;}
	.st9{clip-path:url(#SVGID_8_);fill:none;stroke:#D61224;stroke-width:0.858;stroke-miterlimit:10;}
	.st10{clip-path:url(#SVGID_10_);fill:#12D1D1;}
	.st11{clip-path:url(#SVGID_12_);fill:#12D1D1;}
</style>
<polygon class="st0" points="175.9,4.51 174.47,3.27 173.14,5.17 174.57,6.79 175.99,6.22 "/>
<polygon class="st0" points="0,132.76 0.86,134.38 2.48,134.1 2.67,132.86 1.52,131.62 "/>
<polygon class="st0" points="5.15,135.53 4.29,136.62 4.91,137.96 6.34,137.43 6.86,136.24 "/>
<polygon class="st0" points="209.82,114.37 208.87,116.09 209.63,117.61 211.06,116.95 211.44,115.33 "/>
<polygon class="st0" points="334.84,55.68 339.03,44.43 341.7,48.05 "/>
<polygon class="st0" points="338.84,55.87 347.42,48.24 348.94,52.82 "/>
<g>
	<defs>
		<rect id="SVGID_1_" y="0" width="382.86" height="145.01"/>
	</defs>
	<clipPath id="SVGID_2_">
		<use xlink:href="#SVGID_1_"  style="overflow:visible;"/>
	</clipPath>
	<path class="st1" d="M339.22,57.2c0.76,0,11.82-0.57,11.82-0.57l-1.33,3.43L339.22,57.2z"/>
	<path class="st1" d="M69.94,136.16c-0.51,0.76-6.86,7.88-6.86,7.88s3.81,1.52,3.81,0.76C66.89,144.04,69.94,136.16,69.94,136.16"/>
</g>
<polygon class="st0" points="71.72,144.55 75.28,143.53 71.21,137.69 "/>
<polygon class="st0" points="171.33,9.94 171.14,7.46 169.61,7.27 169.23,9.56 170.37,11.08 "/>
<polygon class="st0" points="221.83,6.13 222.59,4.03 225.45,4.98 223.73,7.08 "/>
<polygon class="st0" points="53.36,57.01 49.93,45.38 46.69,49.39 "/>
<g>
	<defs>
		<rect id="SVGID_3_" y="0" width="382.86" height="145.01"/>
	</defs>
	<clipPath id="SVGID_4_">
		<use xlink:href="#SVGID_3_"  style="overflow:visible;"/>
	</clipPath>
	<path class="st2" d="M50.31,56.82c-0.57-0.19-7.05-3.05-7.05-3.05l0.19,3.05H50.31z"/>
</g>
<polygon class="st0" points="251.11,129.55 253.91,140.99 258.48,140.23 "/>
<polygon class="st0" points="53.55,16.48 52.03,17.12 52.03,19.02 53.93,20.04 55.46,18.26 "/>
<polygon class="st0" points="211.47,110.5 213.51,109.99 213.76,113.04 209.95,112.28 "/>
<polygon class="st0" points="361.9,91.06 359.11,89.53 358.47,92.58 359.87,94.11 "/>
<polygon class="st0" points="123.72,0 118.73,10.25 110.91,0.54 71.58,2.16 55.42,25.36 55.42,60.42 18.4,60.42 1.19,80.92 
	2.75,126.23 21,138.64 62.19,137.02 72.62,131.63 82.01,137.56 113.29,137.02 118.51,133.25 123.2,138.64 135.19,137.56 
	140.93,127.85 152.4,138.64 172.73,135.94 175.86,100.88 181.6,104.11 183.68,137.02 204.02,128.39 209.75,90.63 217.58,92.79 
	217.05,133.79 238.95,137.56 244.17,115.98 248.32,118.68 261.35,139.72 279.1,134.86 324.47,138.64 330.2,133.79 382.86,126.23 
	381.3,99.26 354.71,99.8 353.14,63.66 331.24,60.96 327.59,10.25 309.34,1.08 259.01,2.7 253.27,27.51 246.25,25.36 240,4.32 
	222.27,10.25 212.36,2.16 178.99,5.94 170.13,14.03 163.35,2.16 "/>
<polygon class="st3" points="324.29,13.65 306.51,5.02 261.79,6.54 256.2,29.92 245.01,27.88 238.92,8.06 221.64,13.65 211.98,6.03 
	179.46,9.59 170.82,17.21 164.21,6.03 125.59,4 118.98,13.65 111.36,4.51 74.77,6.03 59.01,27.88 59.01,60.92 22.93,60.92 
	6.16,80.23 7.69,122.92 25.47,134.61 65.62,133.08 75.78,128 84.93,133.59 115.42,133.08 120.51,129.52 125.08,134.61 
	136.77,133.59 142.36,124.44 153.54,134.61 173.36,132.06 176.41,99.03 182,102.08 184.03,133.08 203.85,124.95 209.44,89.38 
	217.06,91.41 216.56,130.03 237.9,133.59 242.98,113.26 249.08,115.8 261.79,135.62 277.03,131.05 321.24,134.61 326.83,130.03 
	378.16,122.92 376.64,97.51 350.72,98.02 349.2,63.97 327.85,61.43 "/>
<polygon class="st4" points="112.44,17.08 117.76,34.08 107.86,34.24 105.58,28.54 81.7,30.44 83.46,56.53 107.09,53.53 
	109.65,46.24 117.76,46.24 114.51,64.47 75.62,66.9 68.33,58.43 70.54,22.76 78.16,16.13 "/>
<polygon class="st5" points="112.44,17.08 117.76,34.08 107.86,34.24 105.58,28.54 81.7,30.44 83.46,56.53 107.09,53.53 
	109.65,46.24 117.76,46.24 114.51,64.47 75.62,66.9 68.33,58.43 70.54,22.76 78.16,16.13 "/>
<polygon class="st4" points="220.41,20.79 225.45,59.96 230.79,64.73 238.22,63.97 247.56,53.29 254.23,63.78 261.09,63.78 
	266.99,58.82 275.73,14.61 264.14,14.61 258.23,50.63 252.7,38.81 242.22,37.67 235.36,54.06 232.88,16.89 "/>
<polygon class="st5" points="220.41,20.79 225.45,59.96 230.79,64.73 238.22,63.97 247.56,53.29 254.23,63.78 261.09,63.78 
	266.99,58.82 275.73,14.61 264.14,14.61 258.23,50.63 252.7,38.81 242.22,37.67 235.36,54.06 232.88,16.89 "/>
<polygon class="st4" points="68.48,89.44 61.11,90.96 58.82,84.36 31.64,81.31 28.59,108.5 58.57,111.8 59.08,102.65 68.73,103.67 
	66.95,121.71 28.33,122.47 18.17,113.83 18.17,78.26 25.28,69.62 66.45,72.67 "/>
<polygon class="st5" points="68.48,89.44 61.11,90.96 58.82,84.36 31.64,81.31 28.59,108.5 58.57,111.8 59.08,102.65 68.73,103.67 
	66.95,121.71 28.33,122.47 18.17,113.83 18.17,78.26 25.28,69.62 66.45,72.67 "/>
<polygon class="st4" points="123.36,119.68 125.14,76.73 134.29,72.41 154.36,104.18 157.67,70.13 167.32,67.08 166.05,120.69 
	152.84,122.47 135.05,94.52 134.54,119.68 "/>
<polygon class="st5" points="123.36,119.68 125.14,76.73 134.29,72.41 154.36,104.18 157.67,70.13 167.32,67.08 166.05,120.69 
	152.84,122.47 135.05,94.52 134.54,119.68 "/>
<g>
	<defs>
		<rect id="SVGID_5_" y="0" width="382.86" height="145.01"/>
	</defs>
	<clipPath id="SVGID_6_">
		<use xlink:href="#SVGID_5_"  style="overflow:visible;"/>
	</clipPath>
	<path class="st6" d="M171.39,68.79l-1.53,11.94l19.57,0.25l-1.78,41.16l9.15-2.79l2.79-38.11c0,0,19.57-0.51,19.57-1.27
		c0-0.76-0.26-10.42-0.26-10.42L171.39,68.79z"/>
	<path class="st7" d="M171.39,68.79l-1.53,11.94l19.57,0.25l-1.78,41.16l9.15-2.79l2.79-38.11c0,0,19.57-0.51,19.57-1.27
		c0-0.76-0.26-10.42-0.26-10.42L171.39,68.79z"/>
	<path class="st6" d="M327.78,69.87l1.05,50.82l39.23-5.53v-10.53c0,0-27.12,4.48-27.12,3.69s-0.53-37.13-0.53-37.13L327.78,69.87z"
		/>
	<path class="st7" d="M327.78,69.87l1.05,50.82l39.23-5.53v-10.53c0,0-27.12,4.48-27.12,3.69s-0.53-37.13-0.53-37.13L327.78,69.87z"
		/>
	<path class="st6" d="M151.7,37.86c0,1.14-18.68-0.38-18.68-0.38l-0.76-13.34h21.34l1.91,8.77C155.51,32.9,151.7,36.71,151.7,37.86
		 M156.84,45.1l9.34-3.58l1.71-12.98l-7.64-13.74l-34.67-1.72l-4.57,7.43c0,0-0.57,43.26-0.87,44.49h12.15l2.43-17.24l10.14,0.57
		l12.92,17.72l11.82-3.49L156.84,45.1z"/>
	<path class="st7" d="M151.7,37.86c0,1.14-18.68-0.38-18.68-0.38l-0.76-13.34h21.34l1.91,8.77C155.51,32.9,151.7,36.71,151.7,37.86z
		 M156.84,45.1l9.34-3.58l1.71-12.98l-7.64-13.74l-34.67-1.72l-4.57,7.43c0,0-0.57,43.26-0.87,44.49h12.15l2.43-17.24l10.14,0.57
		l12.92,17.72l11.82-3.49L156.84,45.1z"/>
</g>
<path class="st4" d="M198.58,55.77l-14.1-2.67l-2.29-16.77l3.43-6.86l18.68-4.57l4.57,24.39L198.58,55.77z M217.24,21.89l-7.79-7.13
	l-31.86,3.49l-7.34,11.6l0.48,25.38l7.91,8.67l31.8,0.5l8.19-7.08L217.24,21.89z"/>
<path class="st5" d="M198.58,55.77l-14.1-2.67l-2.29-16.77l3.43-6.86l18.68-4.57l4.57,24.39L198.58,55.77z M217.24,21.89l-7.79-7.13
	l-31.86,3.49l-7.34,11.6l0.48,25.38l7.91,8.67l31.8,0.5l8.19-7.08L217.24,21.89z"/>
<g>
	<defs>
		<rect id="SVGID_7_" y="0" width="382.86" height="145.01"/>
	</defs>
	<clipPath id="SVGID_8_">
		<use xlink:href="#SVGID_7_"  style="overflow:visible;"/>
	</clipPath>
	<path class="st8" d="M299.2,52.34h-14.1l3.43-25.16l15.63,0.38l1.14,17.15L299.2,52.34z M314.19,19.18l-11.37-5.33h-22.87
		c-0.38,0.76-8.18,44.79-8.18,44.79s3.43,7.88,4.09,6.99c0.66-0.89,28.29,0.07,28.29,0.07l13.15-9.16L314.19,19.18z"/>
	<path class="st9" d="M299.2,52.34h-14.1l3.43-25.16l15.63,0.38l1.14,17.15L299.2,52.34z M314.19,19.18l-11.37-5.33h-22.87
		c-0.38,0.76-8.18,44.79-8.18,44.79s3.43,7.88,4.09,6.99c0.66-0.89,28.29,0.07,28.29,0.07l13.15-9.16L314.19,19.18z"/>
	<path class="st8" d="M100.24,112.56c-0.76,1.14-16.01-3.05-16.01-3.05L83.09,91.6l4.19-8.77l18.68-0.38l3.43,19.44
		C109.39,101.89,101,111.42,100.24,112.56 M118.54,71.91H78.39l-6.35,5.84l0.51,37.86l5.34,4.57l35.83,1.27l5.34-7.37l2.79-35.57
		L118.54,71.91z"/>
	<path class="st9" d="M100.24,112.56c-0.76,1.14-16.01-3.05-16.01-3.05L83.09,91.6l4.19-8.77l18.68-0.38l3.43,19.44
		C109.39,101.89,101,111.42,100.24,112.56z M118.54,71.91H78.39l-6.35,5.84l0.51,37.86l5.34,4.57l35.83,1.27l5.34-7.37l2.79-35.57
		L118.54,71.91z"/>
	<path class="st8" d="M246.22,91.6l-11.82-1.91l1.52-10.67l19.82-1.91l4.95,8.38L246.22,91.6z M262.1,98.08l8.38-5.08l-0.51-15.5
		l-9.91-8.39l-31.51-0.25l-5.34,7.62c0,0-0.51,42.43-0.51,43.2l9.4,1.02l2.79-19.82l13.47-0.51l13.72,21.6l9.91-3.05L262.1,98.08z"
		/>
	<path class="st9" d="M246.22,91.6l-11.82-1.91l1.52-10.67l19.82-1.91l4.95,8.38L246.22,91.6z M262.1,98.08l8.38-5.08l-0.51-15.5
		l-9.91-8.39l-31.51-0.25l-5.34,7.62c0,0-0.51,42.43-0.51,43.2l9.4,1.02l2.79-19.82l13.47-0.51l13.72,21.6l9.91-3.05L262.1,98.08z"
		/>
</g>
<path class="st4" d="M306.43,110.39l-18.95-0.37l-3.71-21.18l5.57-7.06l19.32-1.11l4.46,23.5L306.43,110.39z M315.46,69.87
	l-37.35,1.27l-4.57,8.13l1.27,33.54l5.34,7.37l37.35,1.27l5.34-6.86l0.25-36.84L315.46,69.87z"/>
<path class="st5" d="M306.43,110.39l-18.95-0.37l-3.71-21.18l5.57-7.06l19.32-1.11l4.46,23.5L306.43,110.39z M315.46,69.87
	l-37.35,1.27l-4.57,8.13l1.27,33.54l5.34,7.37l37.35,1.27l5.34-6.86l0.25-36.84L315.46,69.87z"/>
<polygon class="st0" points="111.72,13.3 117.05,30.29 107.15,30.45 104.86,24.75 80.98,26.65 82.74,52.74 106.38,49.75 
	108.94,42.45 117.05,42.45 113.8,60.69 74.9,63.12 67.61,54.65 69.82,18.97 77.44,12.34 "/>
<polygon class="st0" points="219.69,17 224.73,56.18 230.07,60.94 237.5,60.18 246.84,49.51 253.51,59.99 260.37,59.99 
	266.28,55.03 275.01,10.82 263.42,10.82 257.51,46.84 251.99,35.02 241.5,33.88 234.64,50.27 232.17,13.11 "/>
<polygon class="st0" points="67.76,85.65 60.39,87.18 58.11,80.57 30.92,77.52 27.87,104.71 57.85,108.01 58.36,98.86 68.02,99.88 
	66.24,117.92 27.62,118.68 17.45,110.04 17.45,74.47 24.57,65.83 65.73,68.88 "/>
<polygon class="st0" points="122.65,115.89 124.43,72.95 133.58,68.63 153.65,100.39 156.95,66.34 166.61,63.29 165.34,116.9 
	152.13,118.68 134.34,90.73 133.83,115.89 "/>
<g>
	<defs>
		<rect id="SVGID_9_" y="0" width="382.86" height="145.01"/>
	</defs>
	<clipPath id="SVGID_10_">
		<use xlink:href="#SVGID_9_"  style="overflow:visible;"/>
	</clipPath>
	<path class="st10" d="M170.67,65.01l-1.53,11.94l19.57,0.25l-1.78,41.16l9.15-2.79l2.79-38.11c0,0,19.57-0.51,19.57-1.27
		c0-0.76-0.25-10.42-0.25-10.42L170.67,65.01z"/>
	<path class="st10" d="M327.06,66.09l1.05,50.82l39.23-5.53v-10.53c0,0-27.12,4.48-27.12,3.69S339.7,67.4,339.7,67.4L327.06,66.09z"
		/>
	<path class="st10" d="M150.98,34.07c0,1.14-18.68-0.38-18.68-0.38l-0.76-13.34h21.34l1.91,8.77
		C154.79,29.11,150.98,32.93,150.98,34.07 M156.13,41.31l9.34-3.58l1.71-12.98l-7.64-13.74l-34.67-1.72l-4.57,7.43
		c0,0-0.57,43.26-0.87,44.49h12.15l2.43-17.24l10.14,0.57l12.92,17.72l11.82-3.49L156.13,41.31z"/>
</g>
<path class="st0" d="M197.86,51.98l-14.1-2.67l-2.29-16.77l3.43-6.86l18.68-4.57l4.57,24.39L197.86,51.98z M216.53,18.1l-7.79-7.13
	l-31.86,3.49l-7.34,11.6l0.48,25.38l7.91,8.67l31.8,0.5l8.19-7.08L216.53,18.1z"/>
<g>
	<defs>
		<rect id="SVGID_11_" y="0" width="382.86" height="145.01"/>
	</defs>
	<clipPath id="SVGID_12_">
		<use xlink:href="#SVGID_11_"  style="overflow:visible;"/>
	</clipPath>
	<path class="st11" d="M298.49,48.55h-14.1l3.43-25.16l15.63,0.38l1.14,17.15L298.49,48.55z M313.48,15.39l-11.37-5.33h-22.87
		c-0.38,0.76-8.18,44.78-8.18,44.78s3.43,7.88,4.09,6.99c0.66-0.89,28.29,0.07,28.29,0.07l13.15-9.16L313.48,15.39z"/>
	<path class="st11" d="M99.53,108.77c-0.76,1.14-16.01-3.05-16.01-3.05l-1.14-17.91l4.19-8.77l18.68-0.38l3.43,19.44
		C108.67,98.1,100.29,107.63,99.53,108.77 M117.82,68.12H77.67l-6.35,5.84l0.51,37.86l5.34,4.57l35.83,1.27l5.34-7.37l2.79-35.57
		L117.82,68.12z"/>
	<path class="st11" d="M245.51,87.81l-11.82-1.91l1.52-10.67l19.82-1.91l4.95,8.38L245.51,87.81z M261.39,94.29l8.38-5.08
		l-0.51-15.5l-9.91-8.39l-31.51-0.25l-5.34,7.62c0,0-0.51,42.43-0.51,43.2l9.4,1.02l2.79-19.82l13.47-0.51l13.72,21.6l9.91-3.05
		L261.39,94.29z"/>
</g>
<path class="st0" d="M305.71,106.6l-18.95-0.37l-3.71-21.18l5.57-7.06l19.32-1.11l4.46,23.5L305.71,106.6z M314.75,66.09
	l-37.35,1.27l-4.57,8.13l1.27,33.54l5.34,7.37l37.35,1.27l5.34-6.86l0.25-36.84L314.75,66.09z"/>
</svg>
