<svg version="1.1" id="Ebene_1" xmlns="http://www.w3.org/2000/svg" xmlns:xlink="http://www.w3.org/1999/xlink" x="0" y="0" viewBox="0 0 383 145" xml:space="preserve"><style>.st0,.st1{fill:#12d1d1}.st1{clip-path:url(#SVGID_2_)}.st4{fill:#d61224}.st5{fill:none;stroke:#d61224;stroke-width:.858;stroke-miterlimit:10}.st6,.st7{clip-path:url(#SVGID_6_);fill:#d61224}.st7{fill:none;stroke:#d61224;stroke-width:.858;stroke-miterlimit:10}.st8,.st9{clip-path:url(#SVGID_8_);fill:#d61224}.st9{fill:none;stroke:#d61224;stroke-width:.858;stroke-miterlimit:10}.st10,.st11{clip-path:url(#SVGID_10_);fill:#12d1d1}.st11{clip-path:url(#SVGID_12_)}</style><path class="st0" d="M176 5l-2-2-1 2 2 2 1-1zM0 133l1 1h1l1-1-1-1zM5 136l-1 1 1 1 1-1 1-1zM210 114l-1 2 1 2 1-1v-2zM335 56l4-12 3 4zM339 56l8-8 2 5z"/><defs><path id="SVGID_1_" d="M0 0h383v145H0z"/></defs><clipPath id="SVGID_2_"><use xlink:href="#SVGID_1_" overflow="visible"/></clipPath><path class="st1" d="M339 57h12l-1 3-11-3zM70 136l-7 8 4 1 3-9"/><path class="st0" d="M72 145l3-1-4-6zM171 10V7h-1l-1 3 1 1zM222 6l1-2 2 1-1 2zM53 57l-3-12-3 4z"/><defs><path id="SVGID_3_" d="M0 0h383v145H0z"/></defs><clipPath id="SVGID_4_"><use xlink:href="#SVGID_3_" overflow="visible"/></clipPath><path d="M50 57l-7-3v3h7z" clip-path="url(#SVGID_4_)" fill="#12d1d1"/><path class="st0" d="M251 130l3 11 4-1zM54 16l-2 1v2l2 1 1-2zM211 111l3-1v3l-4-1zM362 91l-3-1-1 3 2 1z"/><path class="st0" d="M124 0l-5 10-8-9-39 1-17 23v35H18L1 81l2 45 18 13 41-2 11-5 9 6 31-1 6-4 4 6 12-1 6-10 11 11 21-3 3-35 6 3 2 33 20-9 6-37 8 2-1 41 22 4 5-22 4 3 13 21 18-5 45 4 6-5 53-8-2-27-26 1-2-36-22-3-3-51-19-9-50 2-6 25-7-3-6-21-18 6-10-8-33 4-9 8-7-12z"/><path fill="#001433" d="M324 14l-17-9-45 2-6 23-11-2-6-20-17 6-10-8-33 4-8 7-7-11-38-2-7 10-8-9-36 1-16 22v33H23L6 80l2 43 17 12 41-2 10-5 9 6 30-1 6-3 4 5 12-1 5-10 12 11 19-3 3-33 6 3 2 31 20-8 5-36 8 2v39l21 4 5-21 6 3 13 20 15-5 44 4 6-5 51-7-1-25h-26l-2-34-21-3z"/><path class="st4" d="M112 17l6 17h-10l-2-5-24 1 1 27 24-3 3-8h8l-3 18-39 3-8-9 3-35 7-7z"/><path class="st5" d="M112 17l6 17h-10l-2-5-24 1 1 27 24-3 3-8h8l-3 18-39 3-8-9 3-35 7-7z"/><path class="st4" d="M220 21l5 39 6 5 7-1 10-11 6 11h7l6-5 9-44h-12l-6 36-5-12-11-1-7 16-2-37z"/><path class="st5" d="M220 21l5 39 6 5 7-1 10-11 6 11h7l6-5 9-44h-12l-6 36-5-12-11-1-7 16-2-37z"/><path class="st4" d="M68 89l-7 2-2-7-27-3-3 28 30 3v-9l10 1-2 18H28l-10-8V78l7-8 41 3z"/><path class="st5" d="M68 89l-7 2-2-7-27-3-3 28 30 3v-9l10 1-2 18H28l-10-8V78l7-8 41 3z"/><path class="st4" d="M123 120l2-43 9-5 20 32 4-34 9-3-1 54-13 1-18-27v25z"/><path class="st5" d="M123 120l2-43 9-5 20 32 4-34 9-3-1 54-13 1-18-27v25z"/><defs><path id="SVGID_5_" d="M0 0h383v145H0z"/></defs><clipPath id="SVGID_6_"><use xlink:href="#SVGID_5_" overflow="visible"/></clipPath><path class="st6" d="M171 69l-1 12h19l-1 41 9-3 3-38 19-1V70l-48-1z"/><path class="st7" d="M171 69l-1 12h19l-1 41 9-3 3-38 19-1V70l-48-1z"/><path class="st6" d="M328 70l1 51 39-6v-10l-27 3-1-37-12-1z"/><path class="st7" d="M328 70l1 51 39-6v-10l-27 3-1-37-12-1z"/><path class="st6" d="M152 38l-19-1-1-13h22l2 9-4 5m5 7l9-3 2-13-8-14-34-2-5 8-1 44h12l3-17h10l13 18 12-3-13-18z"/><path class="st7" d="M152 38l-19-1-1-13h22l2 9-4 5zm5 7l9-3 2-13-8-14-34-2-5 8-1 44h12l3-17h10l13 18 12-3-13-18z"/><path class="st4" d="M199 56l-15-3-2-17 4-7 18-4 5 24-10 7zm18-34l-8-7-31 3-8 12 1 25 8 9h31l9-7-2-35z"/><path class="st5" d="M199 56l-15-3-2-17 4-7 18-4 5 24-10 7zm18-34l-8-7-31 3-8 12 1 25 8 9h31l9-7-2-35z"/><g><defs><path id="SVGID_7_" d="M0 0h383v145H0z"/></defs><clipPath id="SVGID_8_"><use xlink:href="#SVGID_7_" overflow="visible"/></clipPath><path class="st8" d="M299 52h-14l4-25 15 1 1 17-6 7zm15-33l-11-5h-23l-8 45s3 8 4 7h28l13-9-3-38z"/><path class="st9" d="M299 52h-14l4-25 15 1 1 17-6 7zm15-33l-11-5h-23l-8 45s3 8 4 7h28l13-9-3-38z"/><path class="st8" d="M100 113c-1 1-16-3-16-3l-1-18 4-9 19-1 3 20-9 11m19-41H78l-6 6 1 38 5 4 36 1 5-7 3-35-3-7z"/><path class="st9" d="M100 113c-1 1-16-3-16-3l-1-18 4-9 19-1 3 20-9 11zm19-41H78l-6 6 1 38 5 4 36 1 5-7 3-35-3-7z"/><path class="st8" d="M246 92l-12-2 2-11 20-2 5 8-15 7zm16 6l8-5V78l-10-9h-31l-6 7v44l9 1 3-20 13-1 14 22 10-3-10-21z"/><path class="st9" d="M246 92l-12-2 2-11 20-2 5 8-15 7zm16 6l8-5V78l-10-9h-31l-6 7v44l9 1 3-20 13-1 14 22 10-3-10-21z"/></g><path class="st4" d="M306 110h-19l-3-21 5-7 20-1 4 23-7 6zm9-40l-37 1-4 8 1 34 5 7 37 1 6-6V78l-8-8z"/><path class="st5" d="M306 110h-19l-3-21 5-7 20-1 4 23-7 6zm9-40l-37 1-4 8 1 34 5 7 37 1 6-6V78l-8-8z"/><path class="st0" d="M112 13l5 17h-10l-2-5-24 2 2 26 23-3 3-8h8l-3 19-39 2-7-8 2-36 7-7zM220 17l5 39 5 5 8-1 9-10 7 10h6l6-5 9-44h-12l-5 36-6-12-10-1-7 16-3-37zM68 86l-8 1-2-6-27-3-3 27 30 3v-9l10 1-2 18-38 1-11-9V74l8-8 41 3zM123 116l1-43 10-4 20 31 3-34 10-3-2 54-13 2-18-28v25z"/><g><defs><path id="SVGID_9_" d="M0 0h383v145H0z"/></defs><clipPath id="SVGID_10_"><use xlink:href="#SVGID_9_" overflow="visible"/></clipPath><path class="st10" d="M171 65l-2 12h20l-2 41 9-2 3-39 19-1V66l-47-1zM327 66l1 51 39-6v-10l-27 4V67l-13-1zM151 34h-19V20h21l2 9-4 5m5 7l9-3 2-13-7-14-35-2-5 8-1 44h13l2-17 10 1 13 17 12-3-13-18z"/></g><path class="st0" d="M198 52l-14-3-3-16 4-7 19-5 4 24-10 7zm19-34l-8-7-32 3-7 12v25l8 9 32 1 8-7-1-36z"/><g><defs><path id="SVGID_11_" d="M0 0h383v145H0z"/></defs><clipPath id="SVGID_12_"><use xlink:href="#SVGID_11_" overflow="visible"/></clipPath><path class="st11" d="M298 49h-14l4-26 15 1 2 17-7 8zm15-34l-11-5h-23l-8 45s3 8 4 7h28l14-9-4-38zM100 109c-1 1-16-3-16-3l-2-18 5-9h18l4 19-9 11m18-41H78l-7 6 1 38 5 4 36 2 5-8 3-35-3-7zM246 88l-12-2 1-11 20-2 5 9-14 6zm15 6l9-5-1-15-10-9h-31l-6 8v43l9 1 3-20h14l13 21 10-3-10-21z"/></g><path class="st0" d="M306 107l-19-1-4-21 6-7 19-1 4 23-6 7zm9-41l-38 1-4 8 1 34 5 7 38 2 5-7V74l-7-8z"/></svg>