<?xml version="1.0" encoding="utf-8"?>
<!-- Generator: Adobe Illustrator 21.1.0, SVG Export Plug-In . SVG Version: 6.00 Build 0)  -->
<svg version="1.1" id="Layer_1" xmlns="http://www.w3.org/2000/svg" xmlns:xlink="http://www.w3.org/1999/xlink" x="0px" y="0px"
	 viewBox="0 0 500 500" style="enable-background:new 0 0 500 500;" xml:space="preserve">
<path d="M438.7,310.3c-15.4-22.4-35.2-46.8-29.5-71.1c9.6-41.6,37.8-68.6,37.8-68.6c-10.9,7.2-53.2,13.9-75,37.2
	c-31.4,46.6-36.5,125.6-82.6,125.6c0,0.1-7-6.4-5.1-62.2c0.7-21.7,8.5-42.6,15.4-63.3c9.2-27.5,15.2-77.2-40.7-113.7
	c-2.6-1.7-16.5-11.4-32.7-22.7c-25.6-17.9-10-62.9-10-62.9c1.2,0.8-44.2,34.1-25,78.8c12.8,29.7,46.8,78.2,28.2,98
	c-23.4,25-50,51.9-47.4,98.7c-80.1-27.5-38.4-124.3-38.4-124.3S51.6,244.2,82.5,350c16.7,57,59.5,88.8,90.3,110.8
	c10.3-12.8,42.2-86.4,42.3-86.5c-3.6-16.2,70.5,106.3,70.5,106.3l73.5-15.3c18.6-9.9,35.8-22.8,47.6-40.5
	C433.6,384.6,464.6,347.8,438.7,310.3z"/>
</svg>
