<?xml version="1.0" encoding="utf-8"?>
<!-- Generator: Adobe Illustrator 21.1.0, SVG Export Plug-In . SVG Version: 6.00 Build 0)  -->
<svg version="1.1" id="Layer_1" xmlns="http://www.w3.org/2000/svg" xmlns:xlink="http://www.w3.org/1999/xlink" x="0px" y="0px"
	 viewBox="0 0 500 500" style="enable-background:new 0 0 500 500;" xml:space="preserve">
<path d="M366.7,41.4c-46.2-24.6-101.9-20-152.9,7.2c33.4-12,67.3-11.8,96.2,3.5c68.3,36.3,82.4,143.5,31.5,239.4
	s-147.7,144.2-216,107.9c-28.9-15.3-48-43.3-56.7-77.7c6,57.4,33.4,106.1,79.6,130.7c85.9,45.7,204.5-9.3,264.8-122.8
	S452.7,87.1,366.7,41.4z"/>
<path d="M291.4,105c-12.5-6.5-27.1-7.4-42.2-3.5c1.1,0.5,2.2,1,3.2,1.5c41.2,21.4,50.2,85.7,20.1,143.6s-87.8,87.6-129,66.3
	c-5.9-3.1-11.2-7-15.7-11.7c3.2,25.9,14.2,46.2,32.8,55.9c41.2,21.4,103.8-17.7,140-87.4S332.6,126.3,291.4,105z"/>
</svg>
