<?xml version="1.0" encoding="utf-8"?>
<!-- Generator: Adobe Illustrator 21.1.0, SVG Export Plug-In . SVG Version: 6.00 Build 0)  -->
<svg version="1.1" id="Layer_1" xmlns="http://www.w3.org/2000/svg" xmlns:xlink="http://www.w3.org/1999/xlink" x="0px" y="0px"
	 viewBox="0 0 500 500" style="enable-background:new 0 0 500 500;" xml:space="preserve">
<path d="M422.9,316.8l-65.1-58.4l60.6-68l25.6-172.8L297.8,83l-59.9,75l-74.4-51.9l-141.5-40l49,145.4l68.7,65.6l-41.3,82
	L67.5,478.6L192.3,421l68.2-59.6l61.1,57.2l153.6,29.1L422.9,316.8z M327.5,361.5L251,300.4L199.2,361l-77.8,52.6l35.6-76.8
	l51.5-70.4l-59.5-47.6l-59.4-93.1l101.8,49.7l50.2,45.7l46-62.8l96.6-66.5L341.8,194L285,260.5l78.7,71.6l42.2,60.1L327.5,361.5z"/>
</svg>
