<?xml version="1.0" encoding="utf-8"?>
<!-- Generator: Adobe Illustrator 21.1.0, SVG Export Plug-In . SVG Version: 6.00 Build 0)  -->
<svg version="1.1" id="Layer_1" xmlns="http://www.w3.org/2000/svg" xmlns:xlink="http://www.w3.org/1999/xlink" x="0px" y="0px"
	 viewBox="0 0 500 500" style="enable-background:new 0 0 500 500;" xml:space="preserve">
<path d="M151,182.9l18,14l-6.5,30.9c0,0-5.5,130.4-5.5,134.1l23,4l13-93l108,1l12,91l38-16l-26-59l3.4-71l25.1-26.9l44.4-13.2
	l35-24.7l16.6-17l8.7-79.6l-42.6-10.2l-21.9,58.5l-24.2,8.1l-23.2,18.1l-25.1-14.6l-35.5,25.9l7.1-23.7h2.9L322.4,61
	c0,0-37.4-33-41.3-36.1l-51.9,12L218,118.4l21.2,0.2l-9.1,30.5l-19.2-15.8l-40.5-11.7c-10.6-8.6-23-18.9-23-18.9l-6.1,0.1
	l-35.1-70.6L61.3,45.9l29.7,79l20.9,23.5 M251.4,127.9h-0.2l0.5-0.8L251.4,127.9z"/>
<polyline points="250,476.9 71,422.9 60,357.9 214,404.9 214,300.9 280,298.9 285,402.9 422,348.9 412,422.9 "/>
</svg>
