<?xml version="1.0" encoding="utf-8"?>
<!-- Generator: Adobe Illustrator 21.1.0, SVG Export Plug-In . SVG Version: 6.00 Build 0)  -->
<svg version="1.1" id="Layer_1" xmlns="http://www.w3.org/2000/svg" xmlns:xlink="http://www.w3.org/1999/xlink" x="0px" y="0px"
	 viewBox="0 0 500 500" style="enable-background:new 0 0 500 500;" xml:space="preserve">
<path d="M478.5,68.2l3.9-11.5c0,0-90.5,122.2-161.7,126.2c-1.6-58.7-15.9-116.7-42.3-169.9L273,2c0,0,18.8,125.8-14.4,187.9
	c-63.5-55.4-142.8-89.9-226.9-98.4l-12.1-1.2c0,0,151,66.3,160.7,138.2C118.4,249.9,62.2,286,16.8,334.2L8.4,343
	c0,0,109.2-60,179.1-51.9c-18.9,32.2-33.5,66.9-43.1,103.5l-3.1,11.8c0,0,33-51.6,75.2-91.5c-5.5,57,1,114.9,19.6,169.9l3.9,11.5
	c0,0-1.5-113.6,33.1-174.3c47,52.9,107.1,92.9,174.7,115.6l11.5,3.9c0,0-111.8-82.8-125-152.3c40.6-1.9,81-9.9,119.7-23.9l11.4-4.1
	c0,0-57.9,2-113.4-9C410.3,204,454.2,140.3,478.5,68.2z"/>
</svg>
