<?xml version="1.0" encoding="utf-8"?>
<!-- Generator: Adobe Illustrator 21.1.0, SVG Export Plug-In . SVG Version: 6.00 Build 0)  -->
<svg version="1.1" id="Layer_1" xmlns="http://www.w3.org/2000/svg" xmlns:xlink="http://www.w3.org/1999/xlink" x="0px" y="0px"
	 viewBox="0 0 500 500" style="enable-background:new 0 0 500 500;" xml:space="preserve">
<style type="text/css">
	.st0{fill:none;stroke:#000000;stroke-width:18;stroke-miterlimit:10;}
</style>
<rect x="85.9" y="85.8" transform="matrix(0.7071 -0.7071 0.7071 0.7071 -103.4803 249.9861)" class="st0" width="328.2" height="328.2"/>
<g>
	<path d="M178,411c0-3.2-11-107-11-107l11.1-32.4L163,258l1.4-5.9L123,235l-8.6-24.4l-20.1-39l32.9-17l21.1,40.8l5.5-0.1
		c0,0,10.7,8.9,20,16.4l1.2-5.4l50.7,29.3l7.9-26.5l-18.4-0.2L225,138l45.1-10.4c3.4,2.7,35.9,31.4,35.9,31.4l-23.2,50.8l-2.5,0
		l-6.2,20.6L311,203l15.8,17.6L353,201l17.8-2.6l9.7-37.9l33.2,24L250,17.8L5,250l243.9,230.9L178,411z"/>
	<polygon points="480,252 420.8,191.7 416.4,225.1 420,229.5 371.6,261.4 351.9,263.6 301.1,297.2 283,368 309.5,416.5 250.1,481.9 
			"/>
	<polygon points="225.2,237.2 224.7,238.1 224.9,238.1 	"/>
</g>
</svg>
