<?xml version="1.0" encoding="utf-8"?>
<!-- Generator: Adobe Illustrator 21.1.0, SVG Export Plug-In . SVG Version: 6.00 Build 0)  -->
<svg version="1.1" id="Layer_1" xmlns="http://www.w3.org/2000/svg" xmlns:xlink="http://www.w3.org/1999/xlink" x="0px" y="0px"
	 viewBox="0 0 500 500" style="enable-background:new 0 0 500 500;" xml:space="preserve">
<style type="text/css">
	.st0{fill:#FFFFFF;stroke:#000000;stroke-width:18;stroke-miterlimit:10;}
</style>
<rect x="85.9" y="85.8" transform="matrix(0.7071 -0.7071 0.7071 0.7071 -103.4803 249.9861)" class="st0" width="328.2" height="328.2"/>
<g>
	<path d="M153.1,381.9l31.4,36.9l2.3-4l-33.5-33.5C153.2,381.5,153.1,381.8,153.1,381.9z"/>
	<path d="M478,248L248,24L21,249l132.3,132.3c3.7-9.9,43.5-94.6,57.2-123.5c-20.7-1.7-41.2,5.7-56,20.6c1.5-6.2,3.9-12.2,7.1-17.9
		c19.6-35.1,64.1-46.4,99.2-25.4c35.1,21,47.7,66.5,28,101.6c-3.3,5.7-7.1,10.8-11.5,15.2c5.7-23.2-0.1-48-15.2-66.6l-75.3,129.5
		L250,478L478,248z M270.7,209.7c-49.7-22.7-120.9,9.5-120.9,9.5c2.8-3,75.4-52.2,75.4-52.2l94.5-43.2l21.8,136.4l0.5,58.2
		C342,318.4,320,232.4,270.7,209.7z"/>
</g>
</svg>
