<?xml version="1.0" encoding="utf-8"?>
<!-- Generator: Adobe Illustrator 21.1.0, SVG Export Plug-In . SVG Version: 6.00 Build 0)  -->
<svg version="1.1" id="Layer_1" xmlns="http://www.w3.org/2000/svg" xmlns:xlink="http://www.w3.org/1999/xlink" x="0px" y="0px"
	 viewBox="0 0 500 500" style="enable-background:new 0 0 500 500;" xml:space="preserve">
<style type="text/css">
	.st0{fill:none;stroke:#000000;stroke-width:30;stroke-miterlimit:10;}
</style>
<rect x="89" y="90.2" transform="matrix(0.7071 -0.7071 0.7071 0.7071 -104.1288 249.6704)" class="st0" width="320.6" height="320.6"/>
<g>
	<path d="M179,407.9c0-3.1-10.7-104.5-10.7-104.5l10.8-31.6l-14.7-13.3l1.4-5.8L125.3,236l-8.4-23.8L97.2,174l32.1-16.6l20.6,39.9
		l5.4-0.1c0,0,10.5,8.7,19.5,16l1.2-5.3l49.5,28.6l7.7-25.9l-18-0.2l9.6-69.3l44.1-10.2c3.3,2.6,35.1,30.7,35.1,30.7l-22.7,49.6
		h-2.4l-6.1,20.1l36-26.8l15.4,17.2l25.6-19.1l17.4-2.5l9.5-37l32.4,23.4L249.3,23.8L10,250.6l238.2,225.5L179,407.9z"/>
	<polygon points="474,252.6 416.2,193.7 411.9,226.3 415.4,230.6 368.1,261.7 348.9,263.9 299.2,296.7 281.5,365.9 307.4,413.2 
		249.4,477.1 	"/>
	<polygon points="225.1,238.1 224.6,239 224.8,239 	"/>
</g>
</svg>
