<?xml version="1.0" encoding="utf-8"?>
<!-- Generator: Adobe Illustrator 21.1.0, SVG Export Plug-In . SVG Version: 6.00 Build 0)  -->
<svg version="1.1" id="Layer_1" xmlns="http://www.w3.org/2000/svg" xmlns:xlink="http://www.w3.org/1999/xlink" x="0px" y="0px"
	 viewBox="0 0 500 500" style="enable-background:new 0 0 500 500;" xml:space="preserve">
<path d="M417,18.9c-2,4-397,428-397,428l46,42l405-438L417,18.9z"/>
<polygon points="60,44.9 187,43.9 188,87.9 142,85.9 144,173.9 190,173.9 189,211.9 61,213.9 62,173.9 101,173.9 101,84.9 61,85.9 
	"/>
<polygon points="465,476.9 269,477.9 268,433.9 309,435.9 307,347.9 266,347.9 267,309.9 464,307.9 463,347.9 350,347.9 350,436.9 
	464,435.9 "/>
<rect x="392" y="333.9" width="40" height="112"/>
</svg>
