<?xml version="1.0" encoding="utf-8"?>
<!-- Generator: Adobe Illustrator 21.1.0, SVG Export Plug-In . SVG Version: 6.00 Build 0)  -->
<svg version="1.1" id="Layer_1" xmlns="http://www.w3.org/2000/svg" xmlns:xlink="http://www.w3.org/1999/xlink" x="0px" y="0px"
	 viewBox="0 0 500 500" style="enable-background:new 0 0 500 500;" xml:space="preserve">
<path d="M432.2,403.2l-59.8-28V155.4l46.5-36.2l3.3-76.4l-76.4-10L339.3,86h-53.1l-13.3-53.1h-69.7l-6.6,49.8L153.3,86l-10-43.2
	l-83,6.6l6.6,69.7l43.2,28.8v230.7c-26.7,16.8-63.1,41-63.1,41v63.1l386,2L432.2,403.2z M188.1,241c0-26.5,23.2-48.2,51.5-48.2
	s51.5,21.7,51.5,48.2v54.5c0,10.3-9,18.7-19.9,18.7h-63.1c-11,0-19.9-8.4-19.9-18.7V241z"/>
</svg>
