<?xml version="1.0" encoding="utf-8"?>
<!-- Generator: Adobe Illustrator 21.1.0, SVG Export Plug-In . SVG Version: 6.00 Build 0)  -->
<svg version="1.1" id="Layer_1" xmlns="http://www.w3.org/2000/svg" xmlns:xlink="http://www.w3.org/1999/xlink" x="0px" y="0px"
	 viewBox="0 0 500 500" style="enable-background:new 0 0 500 500;" xml:space="preserve">
<path d="M199.1,485.3c-15.8-2.2-17.9-24.1-2.9-29.4c127.3-44.6,228-83.1,196.1-179.8c-38.7-117.6-210.5-42.4-167.5-122.7
	c23.8-44.4,208.7-29.5,255.9,70.8C544.6,412.7,337.8,504.2,199.1,485.3z"/>
<path d="M302.6,15.2c15.8,2.2,17.9,24.1,2.9,29.4c-127.3,44.6-228,83.1-196.1,179.8C148.2,342,319.9,266.8,276.9,347
	C253.1,391.4,68.2,376.5,21,276.2C-42.8,87.7,163.9-3.8,302.6,15.2z"/>
</svg>
