<?xml version="1.0" encoding="utf-8"?>
<!-- Generator: Adobe Illustrator 21.1.0, SVG Export Plug-In . SVG Version: 6.00 Build 0)  -->
<svg version="1.1" id="Layer_1" xmlns="http://www.w3.org/2000/svg" xmlns:xlink="http://www.w3.org/1999/xlink" x="0px" y="0px"
	 viewBox="0 0 500 500" style="enable-background:new 0 0 500 500;" xml:space="preserve">
<path d="M480,397.1l-349.1-42.3c4-23.3,7.3-42.5,7.3-42.5L42,285.5L18,431.9l99.9,3.4c-0.1-1.5,2.4-17,5.6-36.5l352.2,33.8
	L480,397.1z"/>
<path d="M481.5,237.9l-35.8-82.4c0.3-0.9-78.1,2.1-78.1,2.1c-8.8-8-18.3-15.1-28.5-21.2c0,0-10-79.4-10-79.5L227.7,45.4
	c0,0-35.5,74.3-35.5,74.3c-11.3,3.7-22.2,8.5-32.5,14.3c0,0-70.1-27.4-70.2-26.7l-58.9,79.2c-0.4,0.4,41.2,66.3,41.2,66.3l76.7,17.5
	c13.5-44.6,64.4-86.9,113.2-80.5c50.5,6.6,93.3,39.1,93.3,103.1v27.1l66.2,11.9l7.6-41.2C439.5,280.7,480.6,241.9,481.5,237.9z"/>
</svg>
