<?xml version="1.0" encoding="utf-8"?>
<!-- Generator: Adobe Illustrator 21.1.0, SVG Export Plug-In . SVG Version: 6.00 Build 0)  -->
<svg version="1.1" id="Layer_1" xmlns="http://www.w3.org/2000/svg" xmlns:xlink="http://www.w3.org/1999/xlink" x="0px" y="0px"
	 viewBox="0 0 500 500" style="enable-background:new 0 0 500 500;" xml:space="preserve">
<path d="M312.1,378.2l-29.3-39.4l3.3-5.6l-40-47.8l-21.8,31.9l-13.9-74.6l-57.1-68.3L85.6,74.3l-57.2,47.8
	c-18.7,50.5,5.1,92.9,60.7,178.5l-0.8,44.2l59.3,17.1l34.5-5.6l35.9,22.2l36.8,47.5l3.1-26l-2.2-28.4l35.8,23.7L312.1,378.2z
	 M151.8,300.4L107.2,288l-12.9-35.8l47.1-25.4l43.4,27.7C187.9,260.3,151.8,300.4,151.8,300.4z"/>
<path d="M472,371l-17.1-37.8l-15.5-39.3l11.6-32.9l-6.4-61.4l-43.6-7.1c-27.1-25.5-49.2-46.8-69-62.8
	c-39.1-31.6-95.8-28.7-131.6,6.8L194,143l71.5,90.3l57.1,68.3l70.9,26.9l-35.3,15.8l40,47.8l6.1-2.3l33.5,35.8l20.5-17.1l-17-39.4
	l31.5,27.3L472,371z M338.7,278.5l-19.5-47.7l33.3-41.8l33,19l4.3,46C389.8,254.1,343.9,282.5,338.7,278.5z"/>
<polygon points="134.4,35.9 124.8,79.6 155.6,112.1 167.2,67.8 "/>
<polygon points="220,19.6 203.1,61.1 228,98.4 246.9,56.7 "/>
<polygon points="310,27.8 288.2,57.6 300.6,92.4 324.1,62.8 "/>
<polygon points="378.4,473 388.1,429.2 357.3,396.7 345.7,441 "/>
<polygon points="292.8,489.2 309.7,447.7 284.9,410.4 266,452.1 "/>
<polygon points="202.9,480.9 224.7,451.1 212.2,416.3 188.8,445.9 "/>
</svg>
