<?xml version="1.0" encoding="utf-8"?>
<!-- Generator: Adobe Illustrator 21.1.0, SVG Export Plug-In . SVG Version: 6.00 Build 0)  -->
<svg version="1.1" id="Layer_1" xmlns="http://www.w3.org/2000/svg" xmlns:xlink="http://www.w3.org/1999/xlink" x="0px" y="0px"
	 viewBox="0 0 500 500" style="enable-background:new 0 0 500 500;" xml:space="preserve">
<polygon points="430,462 74.1,462 44,379 139,404 344,403 456,379 "/>
<path d="M286,241c0-84.1-48-194-109.5-194C131,47,75,147.7,75,231.9s42.9,129,99,129S286,325.1,286,241z"/>
<path d="M305.5,46C289,46,273,63,273,63c41,45,62,111.6,62,177c0,62.8-19,106.1-54,119.8c0,0,31,4.6,55.3-2.8
	c43.5-13.2,78.7-46.4,78.7-117C415,155.9,378,46,305.5,46z"/>
</svg>
