<?xml version="1.0" encoding="utf-8"?>
<!-- Generator: Adobe Illustrator 21.1.0, SVG Export Plug-In . SVG Version: 6.00 Build 0)  -->
<svg version="1.1" id="Layer_1" xmlns="http://www.w3.org/2000/svg" xmlns:xlink="http://www.w3.org/1999/xlink" x="0px" y="0px"
	 viewBox="0 0 500 500" style="enable-background:new 0 0 500 500;" xml:space="preserve">
<style type="text/css">
	.st0{fill:none;}
</style>
<polygon class="st0" points="317,247.9 267,248.9 267,305.9 317,306.9 "/>
<polygon class="st0" points="149,307.1 191,307.1 195,248.9 149,252.2 "/>
<path d="M221,293.9l22.2-119C235.1,161.2,223,140,223,140l-41-61l-80,110l-1.9,189.9L18,389l34,58l169.6,1.6l39.4-51.7L221,293.9z
	 M191,307.1h-42v-54.9l46-3.3L191,307.1z"/>
<path d="M281.6,287.1l15.8,109.4l-50,41.5l47.1,11.3l148.1,20.8l-11.8-60.2l-28.1-7.2l44.6-193.4l-115.2-26.6 M336.5,253.6
	l48.9,10.3l-13.3,57.5l-48.5-12.2L336.5,253.6z"/>
<polygon points="301,99.9 292,163.9 377,78.9 "/>
</svg>
