<?xml version="1.0" encoding="utf-8"?>
<!-- Generator: Adobe Illustrator 21.1.0, SVG Export Plug-In . SVG Version: 6.00 Build 0)  -->
<svg version="1.1" id="Layer_1" xmlns="http://www.w3.org/2000/svg" xmlns:xlink="http://www.w3.org/1999/xlink" x="0px" y="0px"
	 viewBox="0 0 500 500" style="enable-background:new 0 0 500 500;" xml:space="preserve">
<path d="M370.7,208c0,0,31.3,66.7,18.7,86c-66.7-41.3-66-176-66-176c-1.5,10.7-22.7,62.7-13.3,118c12.2,50.7,30,69.3,29.5,84
	c0,0.1-17.3,4.4-42.9-45.2C282,246.7,272.3,103.2,103.3,76.7C77.6,72.6,38.2,28,38.2,28c1.2,0.1-3.1,47.1,36.5,72.2
	c26.3,16.7,79.4,30.7,104.6,79.8c26,50.7,30.5,123.4,62,158C178.2,355,98,196,98,196s10,132.7,97.3,196.7
	c36.2,26.5,111.5,35.7,101.3,38.7c-66,19.3-129.3-24.7-129.3-24.7s23.6,56.9,70,68c78,18.7,43.5-6.4,114,5.3
	c96,16,127.3-40.7,122-91.3c1.3,2.7-3.9-35.2-8.6-54.3C454.1,290.7,409.5,224.5,370.7,208z"/>
</svg>
