<?xml version="1.0" encoding="utf-8"?>
<!-- Generator: Adobe Illustrator 21.1.0, SVG Export Plug-In . SVG Version: 6.00 Build 0)  -->
<svg version="1.1" id="Layer_1" xmlns="http://www.w3.org/2000/svg" xmlns:xlink="http://www.w3.org/1999/xlink" x="0px" y="0px"
	 viewBox="0 0 500 500" style="enable-background:new 0 0 500 500;" xml:space="preserve">
<style type="text/css">
	.st0{fill:none;stroke:#000000;stroke-width:50;stroke-miterlimit:10;stroke-dasharray:100;}
</style>
<path d="M407.4,224.1l4.7-35.3L378,146l-16.1,51.3L344,200l-26.2,19.6L302,202l-36.9,27.4l6.2-20.6l2.5,0L297,158
	c0,0-32.5-28.7-35.9-31.4L216,137l-9.8,70.9l18.4,0.2l-7.9,26.5L166,205.3l-1.2,5.4c-9.2-7.5-20-16.4-20-16.4l-5.3,0.1L109,133
	l-23.7,37.6l20.2,39.1L114,234l41.4,17.1L154,257l15.1,13.6L158,303c0,0,11,103.8,11,107l79,20l52.5-14.5L274,367l18.1-70.8
	l50.8-33.6l19.7-2.2l48.4-31.9l-7.3-6.5L407.4,224.1z M215.9,237.1l-0.2,0l0.5-0.9L215.9,237.1z"/>
<g>
	<circle class="st0" cx="249.5" cy="249.5" r="221.5"/>
</g>
</svg>
