<?xml version="1.0" encoding="utf-8"?>
<!-- Generator: Adobe Illustrator 21.1.0, SVG Export Plug-In . SVG Version: 6.00 Build 0)  -->
<svg version="1.1" id="Layer_1" xmlns="http://www.w3.org/2000/svg" xmlns:xlink="http://www.w3.org/1999/xlink" x="0px" y="0px"
	 viewBox="0 0 500 500" style="enable-background:new 0 0 500 500;" xml:space="preserve">
<style type="text/css">
	.st0{fill:none;stroke:#000000;stroke-width:18;stroke-miterlimit:10;stroke-dasharray:57.9909,57.9909;}
</style>
<path d="M166.6,252.5c-3.2,5.7-5.6,11.7-7.1,17.9c22.5-22.7,58.3-27.9,87.7-10.3s42.9,52.3,35.1,83.8c4.4-4.4,8.2-9.5,11.5-15.2
	c19.7-35.1,7.1-80.6-28-101.6S186.2,217.4,166.6,252.5z"/>
<g>
	<path d="M251,251.1c-13.8-4.1-28.1-4.9-41.8-2.8L251,251.1z"/>
	<path d="M324.7,115.8l-94.5,43.2c0,0-72.6,49.2-75.4,52.2c0,0,71.2-32.2,120.9-9.5C325,224.4,347,310.4,347,310.4l-0.5-58.2
		L324.7,115.8z"/>
</g>
<path d="M158.1,373.9c2.4-7.8,61.9-133.7,61.9-133.7l59.7,15.4l-90.2,155.2L158.1,373.9z"/>
<g>
	<circle class="st0" cx="249.5" cy="250.5" r="221.5"/>
</g>
<polygon points="150.5,389 185,432.7 157.4,423.5 139,407.4 "/>
</svg>
