<?xml version="1.0" encoding="utf-8"?>
<!-- Generator: Adobe Illustrator 21.1.0, SVG Export Plug-In . SVG Version: 6.00 Build 0)  -->
<svg version="1.1" id="Layer_1" xmlns="http://www.w3.org/2000/svg" xmlns:xlink="http://www.w3.org/1999/xlink" x="0px" y="0px"
	 viewBox="0 0 500 500" style="enable-background:new 0 0 500 500;" xml:space="preserve">
<style type="text/css">
	.st0{fill:none;stroke:#000000;stroke-width:18;stroke-miterlimit:10;stroke-dasharray:57.9909,57.9909;}
</style>
<path d="M178,411c0-3.2-11-107-11-107l22.2-64.7L317,235l-34,133l26.5,48.5L257,431L178,411z"/>
<path d="M270.1,127.6c3.4,2.7,35.9,31.4,35.9,31.4l-23.2,50.8l-67.6-0.9L225,138L270.1,127.6z"/>
<polygon points="196,287.7 163,258 175,206.3 226,235.8 "/>
<polygon points="360.4,258 297.3,299.7 259,241.6 311,203 "/>
<path d="M186.5,221.9c-2.6-1.8-32.7-26.6-32.7-26.6l-44.3,1.2L123,235l66.9,27.6L186.5,221.9z"/>
<polygon points="309,233.9 353,201 382.6,196.6 420,229.5 371.6,261.4 312.3,268 "/>
<rect x="229.8" y="192.1" transform="matrix(0.9579 0.2871 -0.2871 0.9579 75.2466 -62.9497)" width="44.9" height="66"/>
<polygon points="152.9,204.4 120,221.4 94.3,171.6 118,134 "/>
<polygon points="421.1,189.8 416.4,225.1 370.4,199.8 387,147 "/>
<g>
	<circle class="st0" cx="249.5" cy="249.5" r="221.5"/>
</g>
<polygon points="89,155 114,118 107,102 81,150 "/>
<polygon points="420,169 387,129 390,109 424,150 "/>
<polygon points="178,432 241,451 266,454 319,441 311,427 253,441 175,418 "/>
</svg>
