<?xml version="1.0" encoding="utf-8"?>
<!-- Generator: Adobe Illustrator 21.1.0, SVG Export Plug-In . SVG Version: 6.00 Build 0)  -->
<svg version="1.1" id="Layer_1" xmlns="http://www.w3.org/2000/svg" xmlns:xlink="http://www.w3.org/1999/xlink" x="0px" y="0px"
	 viewBox="0 0 500 500" style="enable-background:new 0 0 500 500;" xml:space="preserve">
<path d="M435,402l-66.6-1.5C353.8,351.6,333,278,333,278l-0.3,0.1l1-0.9l-10.9-38.7l0-0.3c21.9-23.9,40.7-46.2,40.7-46.2l1.7-42.5
	l-44.4-41.9L307,134.4l15,35.8l-7.4,4.6l-41.6-33.2L263.4,83L201,27l-11,32l35.5,39.9l4.8,44.2L206,110l-44.5-24.6l-48.3-8.2
	L122,102l21.2,13.8L182,139l9.6,16.9L190,156l-0.8,4.6L152,147l-60.3,25.2L78,189.1l31.8,5.8L149,187l33.7,10l-2.5,14L159,216
	l-35,31l8,24l32-25h30.9l14.1,32l30.1,21l7.5,98.8L71,394l-13,80l384-11L435,402z"/>
</svg>
