<?xml version="1.0" encoding="utf-8"?>
<!-- Generator: Adobe Illustrator 21.1.0, SVG Export Plug-In . SVG Version: 6.00 Build 0)  -->
<svg version="1.1" id="Layer_1" xmlns="http://www.w3.org/2000/svg" xmlns:xlink="http://www.w3.org/1999/xlink" x="0px" y="0px"
	 viewBox="0 0 500 500" style="enable-background:new 0 0 500 500;" xml:space="preserve">
<polygon points="187.4,220.5 47.1,345.6 125,221.7 217.9,175.4 "/>
<polygon points="333,227 364,298 455,360 398,281 "/>
<polygon points="360.4,193.2 398,233 472.4,240.4 419.9,206.8 "/>
<polygon points="185,276 142,302 122,373 175,318 "/>
<polygon points="244,230 198,313 240,285 239,356 270,479 290,400 300,346 305,286 341,318 308,227 310,175 308,153 459,182 
	298,115 323,88 267,101 216,79 231,109 44,213 231,150 249,169 259,199 "/>
<polygon points="262,33 245,59 268,91 289,56 "/>
</svg>
