<?xml version="1.0" encoding="utf-8"?>
<!-- Generator: Adobe Illustrator 21.1.0, SVG Export Plug-In . SVG Version: 6.00 Build 0)  -->
<svg version="1.1" id="Layer_1" xmlns="http://www.w3.org/2000/svg" xmlns:xlink="http://www.w3.org/1999/xlink" x="0px" y="0px"
	 viewBox="0 0 500 500" style="enable-background:new 0 0 500 500;" xml:space="preserve">
<path d="M244.5,431.9l2.7,45c0.3,3.6,3.3,6.5,6.9,6.5l26.9-0.1c3.1,0,5.7-2.1,6.6-5l7.5-25.6c2-7,12.2-6.4,13.4,0.8l4,23.8
	c0.5,3.4,3.4,5.8,6.8,5.8l28.7-0.1c3.9,0,7-3.3,6.8-7.2l-3.3-88.9c0-0.9,0.2,9,0.4,8.2l60.3-5.8c0.5-1.6-1.4,0.8,0,0l0,0
	c0.9-0.5,9.8-18.5,10.3-19.4l37.5-51c1.7-2.6,1.5-6-0.6-8.3l-37.1-42.4c-0.9-1-1.6-2.3-1.7-3.6c-7.7-60.7-14.4-107.9-24.8-145
	C378.5,57,320.9,14,255.9,14.3l-14,0.1l-1.4,0l1.6,316.5l55.2,68.4c1.7,3,0.8,6.4-1.4,8.4l-52.5-1.9 M277.5,308.9
	c-3.1-1.5-4.6-5-3.5-8.3l19.5-62.6c0.8-2.3,2.7-4.2,5.2-4.7l65.7-13.8c3.2-0.7,6.6,1.1,7.8,4.4l15.8,42.5c0.8,2.1,0.5,4.4-0.7,6.2
	l-33.1,48.6c-1.5,2.1-4.1,3.3-6.7,2.9C333.9,322.1,292,315.5,277.5,308.9z"/>
<rect x="159.4" y="20.9" transform="matrix(-1 -4.490331e-11 4.490331e-11 -1 353.7573 362.78)" width="35" height="321"/>
<rect x="153.4" y="387.9" transform="matrix(-1 -4.486867e-11 4.486867e-11 -1 342.7573 862.78)" width="36" height="87"/>
<rect x="78.4" y="56.9" transform="matrix(-1 -4.493973e-11 4.493973e-11 -1 190.7573 381.78)" width="34" height="268"/>
<rect x="80.4" y="384.9" transform="matrix(-1 -4.490642e-11 4.490642e-11 -1 192.7573 837.78)" width="32" height="68"/>
</svg>
