<?xml version="1.0" encoding="utf-8"?>
<!-- Generator: Adobe Illustrator 21.1.0, SVG Export Plug-In . SVG Version: 6.00 Build 0)  -->
<svg version="1.1" id="Layer_1" xmlns="http://www.w3.org/2000/svg" xmlns:xlink="http://www.w3.org/1999/xlink" x="0px" y="0px"
	 viewBox="0 0 500 500" style="enable-background:new 0 0 500 500;" xml:space="preserve">
<path d="M421.6,256.2c-35.6,28.7-66,90.3-94.7,77.9c0,0.1-2.1-7,18.3-50.9c7.9-17.1,20-31.7,31.4-46.3
	c15.2-19.4,36.1-57.4,13.9-101.6c-1-2.1-6.3-13.5-12.5-26.9c-9.3-20.2,13.4-50.1,15.3-52.6c-2.6,2-39.2,16.8-42.6,55.9
	c-2.3,27.1,2.1,74.9-16.3,85.7c-16.4,9.7-34.1,19.6-48.2,38.1C268,168.9,244.9,119,244.9,119s0.2,1,0.4,2.7l-0.7-2.2
	c0.2-1.6,0.3-2.5,0.3-2.5s-21.8,51.1-39.5,118.2c-14.1-18.3-31.7-28.3-48-37.9c-18.4-10.8-14-58.6-16.3-85.7
	c-3.3-39.1-39.9-53.9-42.6-55.9c2,2.5,24.6,32.4,15.3,52.6c-6.2,13.4-11.5,24.8-12.5,26.9c-22.2,44.1-1.3,82.1,13.9,101.6
	c11.4,14.6,23.5,29.2,31.4,46.3c20.4,44,18.3,51,18.3,50.9c-28.6,12.4-59.1-49.2-94.7-77.9c-21.6-12.7-50.2-6.7-59.4-9.5
	c0,0,26.8,13.9,47.2,44.5c11.9,17.8,8,42.6,6.2,64.6c-3.2,36.9,28.8,57.8,59.4,82.6c7.9,6.4,16.4,11,25,14.3l0.5-49.2l99-65.2
	l92.2,67.1l1.4,47.8c9.2-3.3,18.2-8.1,26.5-14.8c30.6-24.8,62.5-45.8,59.4-82.6c-1.8-22-5.7-46.8,6.2-64.6
	c20.3-30.6,47.2-44.5,47.2-44.5C471.8,249.5,443.2,243.5,421.6,256.2z"/>
</svg>
