<?xml version="1.0" encoding="utf-8"?>
<!-- Generator: Adobe Illustrator 21.1.0, SVG Export Plug-In . SVG Version: 6.00 Build 0)  -->
<svg version="1.1" id="Layer_1" xmlns="http://www.w3.org/2000/svg" xmlns:xlink="http://www.w3.org/1999/xlink" x="0px" y="0px"
	 viewBox="0 0 500 500" style="enable-background:new 0 0 500 500;" xml:space="preserve">
<path d="M479,457c-53.4-17.4-76.4-55.8-85.8-79.4c57.6-29.2,95.8-80,95.8-137.6c0-90.6-83-155-196-163c0,0-10,0-10,0
	c-1.6,0,16,83,16,83l26,159l-82-46l22.6,130.7c4.4,0.2,8.9,0.3,13.4,0.3c15.7,0,31-1.4,45.8-3.9C373.2,481.6,528.4,473.1,479,457z"
	/>
<path d="M263,235L234.5,26.2C122.9,30,34,101.9,34,190c0,82.9,78.8,151.4,181.1,162.4C202.3,278.6,186,182,186,182L263,235z"/>
</svg>
