<?xml version="1.0" encoding="utf-8"?>
<!-- Generator: Adobe Illustrator 21.1.0, SVG Export Plug-In . SVG Version: 6.00 Build 0)  -->
<svg version="1.1" id="Layer_1" xmlns="http://www.w3.org/2000/svg" xmlns:xlink="http://www.w3.org/1999/xlink" x="0px" y="0px"
	 viewBox="0 0 500 500" style="enable-background:new 0 0 500 500;" xml:space="preserve">
<path d="M139,302c7,0,87-4,87-4l2-107l54,3l-2,107l99,1v47l-101,4l-5,96l-43-6l-1-89l-95-5L139,302z"/>
<g>
	<path d="M401.7,96l-19.5,33.9l-37.2-21.5l22.7-39.3c-27.3-17.3-58.7-28.6-92.6-32V97h-43V37.1c-33.5,3.4-64.8,14.5-91.9,31.6
		l24.1,41.7l-37.2,21.5l-21-36.4C65.6,134.2,40.5,188.7,40.5,249c0,29.3,5.9,57.1,16.6,82.5C89.3,254.8,165.1,201,253.5,201
		s164.2,53.8,196.4,130.5c10.7-25.4,16.6-53.2,16.6-82.5C466.5,189,441.6,134.7,401.7,96z"/>
</g>
</svg>
