<?xml version="1.0" encoding="utf-8"?>
<!-- Generator: Adobe Illustrator 21.1.0, SVG Export Plug-In . SVG Version: 6.00 Build 0)  -->
<svg version="1.1" id="Layer_1" xmlns="http://www.w3.org/2000/svg" xmlns:xlink="http://www.w3.org/1999/xlink" x="0px" y="0px"
	 viewBox="0 0 500 500" style="enable-background:new 0 0 500 500;" xml:space="preserve">
<path d="M438,212l-117.7-8.6L314,72L249.7,3.6L201,66l-10.3,135.7L76,208L3.9,255.6L63,316l127,13.6L208,442l41,54.8l38-53.8
	l24.7-122.5L430,313l64.8-49.4L438,212z M376,282l-98,3l-11,106l-17,52l-20-49l-10-107l-103-5l-38.4-23.5L128,241l92-5l9-118
	l24.1-48.4L273,117l10,117l95,6l54.2,25.2L376,282z"/>
<path d="M359,168c2-5,3-56,3-56l79-18l-31,56L359,168z"/>
<polygon points="155,174 150,127 88,98 97,161 "/>
<polygon points="158,355 155,406 82,442 103,374 "/>
<polygon points="348,355.7 352.4,409.1 419,435.3 404.2,371 "/>
</svg>
