<?xml version="1.0" encoding="utf-8"?>
<!-- Generator: Adobe Illustrator 21.1.0, SVG Export Plug-In . SVG Version: 6.00 Build 0)  -->
<svg version="1.1" id="Layer_1" xmlns="http://www.w3.org/2000/svg" xmlns:xlink="http://www.w3.org/1999/xlink" x="0px" y="0px"
	 viewBox="0 0 500 500" style="enable-background:new 0 0 500 500;" xml:space="preserve">
<path d="M423,93.9l-11-10C391.1,63,256.9,75.1,236,96L58.6,273.4c-20.9,20.9-20.9,54.9,0,75.8l94.6,94.6c20.9,20.9,54.9,20.9,75.8,0
	l177.4-177.4C427.3,245.5,443.9,114.8,423,93.9z M342.5,204.9c-26.8,0-48.5-21.7-48.5-48.5c0-26.8,21.7-48.5,48.5-48.5
	s48.5,21.7,48.5,48.5C391,183.2,369.3,204.9,342.5,204.9z"/>
</svg>
