<?xml version="1.0" encoding="utf-8"?>
<!-- Generator: Adobe Illustrator 21.1.0, SVG Export Plug-In . SVG Version: 6.00 Build 0)  -->
<svg version="1.1" id="Layer_1" xmlns="http://www.w3.org/2000/svg" xmlns:xlink="http://www.w3.org/1999/xlink" x="0px" y="0px"
	 viewBox="0 0 500 500" style="enable-background:new 0 0 500 500;" xml:space="preserve">
<path d="M460.8,156.6l-42.9-42.9L452,76.9l-43.6-37.6c-0.3,0.7-12,13.4-30.9,34L338.2,34l-41.6,41.6L275,54l-43.2,43.2l64.1,64.1
	c-44.1,47.5-94.8,102-139.4,150l-58-58l-43.2,43.2l20,20l-41.6,41.6l41,41c-22.7,24.4-36.8,39.5-36.8,39.5L80.8,478l34.9-37.7
	l40.6,40.6l41.6-41.6l21.6,21.6l43.2-43.2l-65.5-65.5l139.1-150.3l59.6,59.6l43.2-43.2l-20-20L460.8,156.6z"/>
</svg>
