<?xml version="1.0" encoding="utf-8"?>
<!-- Generator: Adobe Illustrator 21.1.0, SVG Export Plug-In . SVG Version: 6.00 Build 0)  -->
<svg version="1.1" id="Layer_1" xmlns="http://www.w3.org/2000/svg" xmlns:xlink="http://www.w3.org/1999/xlink" x="0px" y="0px"
	 viewBox="0 0 500 500" style="enable-background:new 0 0 500 500;" xml:space="preserve">
<path d="M26,402c3,0,441-4,441-4l17,59l-323,11L26,457V402z"/>
<path d="M416.4,331.3L312,329l0,0c33.5-22,56.8-56.5,64.3-95.8c9.3-48.8,1.9-102.6-29.8-128.9c9,113-51.4,21.7-65-7l-14-34L237,14
	c8,42-21.5,66.4-38,89c-22,30-16.7,60.6-29,96l-15,12l-13.3-54.3C107,210.8,127,282.3,165,332l-79.6,2.3l-10,45l345-2L416.4,331.3z
	 M245.4,330.3c-31.7,0-63-24-58-90c1-13.1,12.8,12.7,29-10c0.5-0.6,0.9-1.3,1.4-1.9c4.5-6.7,2.6-15.9,2.3-26.3c-1-31-1.4-53.9,15-79
	l10-19l12,80c0.5,0.5,21.4,71.3,43.4,16.3c16.2,22.6,14.4,55.9,11.6,68.7C305,300,277.2,330.3,245.4,330.3z"/>
</svg>
