<?xml version="1.0" encoding="UTF-8" standalone="no"?>
<!DOCTYPE svg PUBLIC "-//W3C//DTD SVG 1.1//EN" "http://www.w3.org/Graphics/SVG/1.1/DTD/svg11.dtd">
<svg width="100%" height="100%" viewBox="0 0 154 240" version="1.1" xmlns="http://www.w3.org/2000/svg" xmlns:xlink="http://www.w3.org/1999/xlink" xml:space="preserve" xmlns:serif="http://www.serif.com/" style="fill-rule:evenodd;clip-rule:evenodd;stroke-linejoin:round;stroke-miterlimit:2;">
    <g transform="matrix(0.601191,0,0,0.601191,29.7156,4.26699)">
        <g id="Icons-Spacing" serif:id="Icons Spacing">
            <g>
                <g id="Ebene7">
                    <path d="M74.009,5.549C73.996,5.462 81.671,5.602 82.108,5.555C82.222,5.543 82.25,5.854 82.231,6.075C82.213,6.289 78.55,6.437 78.471,9.246C78.399,11.801 80.664,11.367 80.682,11.484C80.739,11.859 80.705,12.622 80.705,12.622L72.318,12.628L72.312,11.525C72.312,11.525 75.375,11.165 75.274,9.564C75.216,8.638 72.97,8.227 72.009,7.652C70.868,6.969 68.878,5.791 69.62,5.747C70.957,5.666 74.131,6.361 74.009,5.549Z" style="fill:rgb(153,204,204);"/>
                    <path d="M72.932,4.273C73.001,4.218 73.078,4.165 73.164,4.115C73.225,4.078 73.559,3.887 74.166,3.867C75.384,3.826 81.543,3.943 81.931,3.901C82.513,3.839 83.047,4.024 83.463,4.541C83.689,4.822 83.942,5.602 83.888,6.22C83.859,6.549 83.697,7.365 82.655,7.716C82.425,7.794 81.836,7.891 81.209,8.14C80.748,8.323 80.154,8.589 80.134,9.293C80.129,9.455 80.166,9.655 80.182,9.734C80.298,9.749 80.699,9.799 80.78,9.807C82.017,9.932 82.274,10.89 82.326,11.234C82.392,11.667 82.375,12.502 82.368,12.665C82.368,12.681 82.367,12.689 82.367,12.689C82.331,13.581 81.599,14.285 80.706,14.286L72.319,14.292C71.404,14.293 70.66,13.553 70.655,12.638L70.649,11.535C70.644,10.768 71.164,10.098 71.908,9.912C71.908,9.912 72.26,9.877 72.703,9.761C72.119,9.536 71.547,9.314 71.155,9.079C70.351,8.598 69.171,7.883 68.634,7.425C68.277,7.12 68.072,6.82 67.975,6.617C67.689,6.021 67.769,5.506 67.958,5.103C68.142,4.711 68.528,4.146 69.52,4.086C70.215,4.044 71.37,4.184 72.367,4.255C72.54,4.268 72.754,4.272 72.932,4.273ZM75.665,5.387L75.672,5.471L75.675,5.522C77.955,5.529 81.802,5.588 82.108,5.555C82.222,5.543 82.25,5.854 82.231,6.075C82.213,6.289 78.55,6.437 78.471,9.246C78.399,11.801 80.664,11.367 80.682,11.484C80.739,11.859 80.705,12.622 80.705,12.622L72.318,12.628L72.312,11.525C72.312,11.525 75.375,11.165 75.274,9.564C75.216,8.638 72.97,8.227 72.009,7.652C70.868,6.969 68.878,5.791 69.62,5.747C70.957,5.666 74.131,6.361 74.009,5.549C74.005,5.523 74.696,5.517 75.676,5.522L75.672,5.453L75.664,5.376C75.66,5.351 75.657,5.327 75.654,5.302L75.665,5.387ZM82.214,7.212L82.241,7.212C82.256,7.211 82.271,7.21 82.286,7.209L82.214,7.212Z" style="fill:rgb(96,96,106);"/>
                </g>
            </g>
        </g>
    </g>
</svg>
